<?xml version="1.0" encoding="UTF-8" standalone="no"?>
<!-- Generator: Adobe Illustrator 27.5.0, SVG Export Plug-In . SVG Version: 6.00 Build 0)  -->

<svg
   version="1.1"
   x="0px"
   y="0px"
   viewBox="0 0 500 500"
   style="enable-background:new 0 0 500 500;"
   xml:space="preserve"
   id="svg172"
   sodipodi:docname="CaucasianHands.svg"
   inkscape:version="1.3.2 (091e20e, 2023-11-25, custom)"
   xmlns:inkscape="http://www.inkscape.org/namespaces/inkscape"
   xmlns:sodipodi="http://sodipodi.sourceforge.net/DTD/sodipodi-0.dtd"
   xmlns:xlink="http://www.w3.org/1999/xlink"
   xmlns="http://www.w3.org/2000/svg"
   xmlns:svg="http://www.w3.org/2000/svg"><defs
   id="defs172"><linearGradient
     id="swatch185"
     inkscape:swatch="solid"
     inkscape:label="Cuticle"
     inkscape:pinned="false"><stop
       style="stop-color:#fdf4f2;stop-opacity:1;"
       offset="0"
       id="stop185" /></linearGradient><linearGradient
     id="swatch183"
     inkscape:swatch="solid"
     inkscape:label="Nail"><stop
       style="stop-color:#fdf4f2;stop-opacity:1;"
       offset="0"
       id="stop183" /></linearGradient><linearGradient
     id="swatch182"
     inkscape:swatch="solid"
     inkscape:label="Blue"><stop
       style="stop-color:#334b73;stop-opacity:1;"
       offset="0"
       id="stop182" /></linearGradient><linearGradient
     id="swatch181"><stop
       style="stop-color:#ffc896;stop-opacity:1;"
       offset="0"
       id="stop181" /></linearGradient><linearGradient
     id="swatch180"
     inkscape:swatch="solid"
     inkscape:label="Shadow"><stop
       style="stop-color:#dfd6d2;stop-opacity:1;"
       offset="0"
       id="stop180" /></linearGradient><linearGradient
     id="swatch179"><stop
       style="stop-color:#ffc896;stop-opacity:1;"
       offset="0"
       id="stop179" /></linearGradient><linearGradient
     id="swatch178"><stop
       style="stop-color:#ffc896;stop-opacity:1;"
       offset="0"
       id="stop178" /></linearGradient><linearGradient
     id="swatch177"
     inkscape:swatch="solid"
     inkscape:label="Light"
     inkscape:pinned="false"><stop
       style="stop-color:#fdf3f1;stop-opacity:1;"
       offset="0"
       id="stop177" /></linearGradient><linearGradient
     inkscape:collect="always"
     xlink:href="#swatch177"
     id="linearGradient177"
     x1="63.877"
     y1="109.6095"
     x2="122.253"
     y2="109.6095"
     gradientUnits="userSpaceOnUse" /><linearGradient
     inkscape:collect="always"
     xlink:href="#swatch182"
     id="linearGradient182"
     x1="376.13211"
     y1="249.20599"
     x2="446.496"
     y2="249.20599"
     gradientUnits="userSpaceOnUse" /><linearGradient
     inkscape:collect="always"
     xlink:href="#swatch180"
     id="linearGradient183"
     x1="56.577999"
     y1="233.5155"
     x2="61.195"
     y2="233.5155"
     gradientUnits="userSpaceOnUse" /><linearGradient
     inkscape:collect="always"
     xlink:href="#swatch183"
     id="linearGradient184"
     x1="73.401"
     y1="183.689"
     x2="83.548"
     y2="183.689"
     gradientUnits="userSpaceOnUse" /><linearGradient
     inkscape:collect="always"
     xlink:href="#swatch180"
     id="linearGradient185"
     x1="56.577999"
     y1="236.9415"
     x2="59.568001"
     y2="236.9415"
     gradientUnits="userSpaceOnUse" /><linearGradient
     inkscape:collect="always"
     xlink:href="#swatch185"
     id="linearGradient186"
     x1="75.028"
     y1="187.1285"
     x2="81.922"
     y2="187.1285"
     gradientUnits="userSpaceOnUse" /><linearGradient
     inkscape:collect="always"
     xlink:href="#swatch183"
     id="linearGradient1"
     gradientUnits="userSpaceOnUse" /><linearGradient
     inkscape:collect="always"
     xlink:href="#swatch180"
     id="linearGradient2"
     gradientUnits="userSpaceOnUse" /><linearGradient
     inkscape:collect="always"
     xlink:href="#swatch180"
     id="linearGradient3"
     gradientUnits="userSpaceOnUse" /><linearGradient
     inkscape:collect="always"
     xlink:href="#swatch180"
     id="linearGradient4"
     gradientUnits="userSpaceOnUse" /><linearGradient
     inkscape:collect="always"
     xlink:href="#swatch180"
     id="linearGradient5"
     gradientUnits="userSpaceOnUse" /></defs><sodipodi:namedview
   id="namedview172"
   pagecolor="#ffffff"
   bordercolor="#000000"
   borderopacity="0.25"
   inkscape:showpageshadow="2"
   inkscape:pageopacity="0.0"
   inkscape:pagecheckerboard="0"
   inkscape:deskcolor="#d1d1d1"
   inkscape:zoom="1.722"
   inkscape:cx="128.6295"
   inkscape:cy="247.96748"
   inkscape:window-width="1858"
   inkscape:window-height="1057"
   inkscape:window-x="54"
   inkscape:window-y="-8"
   inkscape:window-maximized="1"
   inkscape:current-layer="svg172" />
<g
   id="BACKGROUND"
   style="display:none">
	<rect
   style="fill:#3c5887"
   width="500"
   height="500"
   id="rect1"
   x="0"
   y="0" />
</g>
<g
   id="OBJECTS"
   transform="translate(4.0650407,-1.7421603)">
	<path
   style="fill:url(#swatch182)"
   d="m 65.657,139.843 c 1.823,2.781 4.882,4.678 8.381,4.909 v 7.743 14.608 h 38.055 v -14.611 -11.401 c 6.107,-4.025 10.161,-10.941 10.161,-18.762 v -7.358 -22.301 -33.991 0 0 c 0,-0.286 -0.021,-0.567 -0.053,-0.845 -0.01,-0.087 -0.026,-0.171 -0.039,-0.256 -0.03,-0.193 -0.065,-0.383 -0.109,-0.571 -0.022,-0.092 -0.045,-0.182 -0.071,-0.273 -0.052,-0.186 -0.112,-0.369 -0.178,-0.549 -0.028,-0.077 -0.054,-0.155 -0.085,-0.23 -0.099,-0.245 -0.209,-0.484 -0.333,-0.715 -0.002,-0.004 -0.004,-0.009 -0.006,-0.013 -0.131,-0.242 -0.278,-0.474 -0.435,-0.699 -0.035,-0.051 -0.074,-0.098 -0.111,-0.148 -0.125,-0.17 -0.256,-0.334 -0.394,-0.493 -0.05,-0.057 -0.101,-0.112 -0.153,-0.168 -0.141,-0.151 -0.288,-0.296 -0.441,-0.435 -0.049,-0.044 -0.095,-0.089 -0.145,-0.132 -0.203,-0.175 -0.413,-0.341 -0.635,-0.493 0,0 -0.001,0 -0.001,0 v 0 c -1.172,-0.804 -2.587,-1.277 -4.107,-1.277 v 0 c -4.013,0 -7.297,3.284 -7.297,7.297 v -8.504 c 0,-0.286 -0.021,-0.567 -0.053,-0.845 -0.01,-0.086 -0.026,-0.17 -0.039,-0.256 -0.03,-0.193 -0.065,-0.384 -0.11,-0.572 -0.022,-0.092 -0.045,-0.182 -0.071,-0.273 -0.052,-0.186 -0.112,-0.369 -0.178,-0.549 -0.028,-0.077 -0.054,-0.154 -0.085,-0.23 -0.099,-0.245 -0.209,-0.485 -0.333,-0.715 -0.002,-0.004 -0.004,-0.009 -0.006,-0.013 -0.131,-0.242 -0.278,-0.474 -0.434,-0.699 -0.035,-0.051 -0.074,-0.098 -0.111,-0.148 -0.125,-0.17 -0.256,-0.334 -0.394,-0.493 -0.05,-0.057 -0.101,-0.112 -0.152,-0.167 -0.141,-0.151 -0.288,-0.296 -0.442,-0.435 -0.049,-0.044 -0.095,-0.089 -0.145,-0.132 -0.203,-0.175 -0.413,-0.341 -0.635,-0.493 0,0 -0.001,0 -0.001,0 v 0 c -1.172,-0.804 -2.587,-1.277 -4.107,-1.277 -4.013,0 -7.297,3.284 -7.297,7.297 v -6.516 c 0,-0.286 -0.021,-0.567 -0.053,-0.845 -0.01,-0.086 -0.026,-0.17 -0.039,-0.256 -0.03,-0.193 -0.065,-0.384 -0.11,-0.572 -0.022,-0.092 -0.045,-0.182 -0.07,-0.272 -0.052,-0.187 -0.112,-0.37 -0.179,-0.55 C 92.589,41.088 92.564,41.011 92.533,40.936 92.434,40.691 92.324,40.451 92.2,40.22 92.198,40.216 92.196,40.211 92.194,40.207 92.063,39.965 91.916,39.733 91.76,39.508 91.725,39.457 91.686,39.41 91.649,39.36 91.524,39.19 91.393,39.026 91.255,38.867 91.205,38.81 91.154,38.755 91.103,38.7 c -0.141,-0.151 -0.288,-0.296 -0.441,-0.435 -0.049,-0.044 -0.096,-0.09 -0.146,-0.132 -0.203,-0.175 -0.413,-0.341 -0.635,-0.493 0,0 -0.001,0 -0.001,0 v 0 c -1.172,-0.804 -2.587,-1.277 -4.107,-1.277 -4.013,0 -7.297,3.284 -7.297,7.297 v 5.6 c 0,-0.286 -0.021,-0.567 -0.053,-0.845 -0.01,-0.086 -0.026,-0.17 -0.039,-0.256 -0.03,-0.193 -0.065,-0.384 -0.11,-0.572 -0.022,-0.092 -0.045,-0.182 -0.07,-0.273 -0.052,-0.186 -0.112,-0.369 -0.178,-0.549 -0.028,-0.077 -0.054,-0.154 -0.085,-0.23 -0.099,-0.245 -0.209,-0.484 -0.333,-0.715 -0.002,-0.004 -0.004,-0.009 -0.006,-0.013 -0.131,-0.242 -0.278,-0.474 -0.435,-0.699 -0.035,-0.05 -0.074,-0.098 -0.11,-0.147 -0.125,-0.17 -0.256,-0.335 -0.395,-0.493 -0.05,-0.057 -0.101,-0.112 -0.152,-0.167 -0.141,-0.152 -0.288,-0.296 -0.442,-0.435 -0.048,-0.044 -0.095,-0.089 -0.145,-0.132 -0.203,-0.175 -0.413,-0.341 -0.635,-0.493 0,0 -10e-4,0 -10e-4,-10e-4 v 0 C 74.115,42.436 72.7,41.963 71.18,41.963 c -4.013,0 -7.297,3.284 -7.297,7.297 v 52.109 4.183 11.61 l -7.948,-7.948 c -3.728,-3.728 -9.829,-3.728 -13.558,0 -1.767,1.767 -1.988,4.518 -0.663,6.531 v 0 0 c 0.189,0.288 0.411,0.561 0.663,0.814 z"
   id="path1"
   inkscape:label="five.shadow" />
	<path
   style="fill:url(#swatch182)"
   d="m 58.188,267.356 13.84,13.84 c 1.563,3.701 5.124,6.361 9.311,6.638 v 7.368 0 14.983 h 38.054 v -14.986 -11.026 c 6.107,-4.025 10.161,-10.941 10.161,-18.762 v -9.402 -11.559 -11.602 c 0,-4.013 -3.284,-7.297 -7.297,-7.297 v 0 c -4.013,0 -7.297,3.284 -7.297,7.297 v -3.133 c 0,-4.013 -3.284,-7.297 -7.297,-7.297 -4.013,0 -7.297,3.284 -7.297,7.297 v -1.396 c 0,-4.013 -3.284,-7.297 -7.297,-7.297 -4.013,0 -7.297,3.284 -7.297,7.297 v -35.978 c 0,-4.013 -3.284,-7.297 -7.297,-7.297 -4.013,0 -7.297,3.284 -7.297,7.297 v 49.137 c -0.847,-4.251 -4.617,-7.481 -9.107,-7.481 v 0 c -2.562,0 -4.722,1.78 -5.322,4.163 -0.022,-0.003 -0.042,-0.011 -0.065,-0.013 -0.07,0.338 -0.106,0.687 -0.106,1.045 v 5.822 0 2.081 0.031 0 14.902 c 0,0.289 0.021,0.572 0.054,0.853 -0.165,1.598 0.337,3.256 1.556,4.475 z"
   id="path2"
   inkscape:label="one.shadow" />
	<path
   style="fill:url(#swatch182)"
   d="m 148.262,117.676 18.977,18.976 c 1.798,2.923 4.951,4.922 8.572,5.108 v 9.734 12.608 h 38.055 v -12.61 -13.242 c 6.1,-3.947 10.161,-10.806 10.161,-18.572 V 99.839 c 0,-0.181 -0.016,-0.357 -0.027,-0.535 L 237.537,66.42 c 1.528,-3.711 -0.258,-7.998 -3.97,-9.526 -3.711,-1.528 -7.998,0.259 -9.526,3.97 l -12.52,30.411 h -0.561 v -6.301 c 0,-4.207 -3.442,-7.649 -7.649,-7.649 -4.207,0 -7.649,3.442 -7.649,7.649 v -0.287 c 0,-4.049 -3.313,-7.362 -7.362,-7.362 -4.049,0 -7.362,3.313 -7.362,7.362 v 1.796 c 0,-4.204 -3.44,-7.644 -7.644,-7.644 v 0 c -4.204,0 -7.644,3.44 -7.644,7.644 v 13.355 4.151 10.171 l -7.948,-7.948 c -3.728,-3.728 -9.829,-3.728 -13.558,0 -1.767,1.767 -1.988,4.518 -0.663,6.531 v 0 0 c 0.19,0.288 0.411,0.561 0.663,0.814 l 4.117,4.117 v 0 z"
   id="path3"
   inkscape:label="radical.shadow" />
	<path
   style="fill:url(#swatch182)"
   d="m 339.199,243.387 h -10.924 v -0.061 h 9.213 c 3.994,0 7.262,-3.268 7.262,-7.262 v -0.057 c 0,-3.994 -3.268,-7.262 -7.262,-7.262 h -18.27 c -0.152,0 -0.301,0.014 -0.451,0.023 h -18.283 c -1.606,-0.942 -3.302,-2.047 -5.06,-3.411 v 0 l 2.416,-12.091 c 1.098,-5.494 -2.499,-10.888 -7.993,-11.986 -2.477,-0.495 -4.909,1.127 -5.405,3.604 l -0.117,0.589 v 0 l -1.555,7.781 v 0 l -4.603,23.035 c -0.047,0.233 -0.078,0.466 -0.098,0.698 -0.151,0.628 -0.244,1.277 -0.278,1.941 h -22.342 v 38.055 h 14.362 c -0.002,0.004 -0.003,0.008 -0.005,0.012 h 11.503 c 3.948,6.093 10.803,10.149 18.564,10.149 h 19.838 c 0.089,0 0.175,-0.011 0.264,-0.013 h 11.493 c 3.994,0 7.262,-3.268 7.262,-7.262 v -0.057 c 0,-3.994 -3.268,-7.262 -7.262,-7.262 h 3.961 c 3.994,0 7.262,-3.268 7.262,-7.262 v -0.057 c 0,-3.994 -3.268,-7.262 -7.262,-7.262 h 3.77 c 3.994,0 7.262,-3.268 7.262,-7.262 v -0.057 c 0,-3.995 -3.268,-7.263 -7.262,-7.263 z"
   id="path4"
   inkscape:label="thumb.shadow" />
	<path
   style="fill:url(#swatch182)"
   d="m 366.984,132.417 h 12.867 c 3.947,6.1 10.806,10.161 18.572,10.161 h 19.838 c 0.089,0 0.175,-0.011 0.263,-0.013 h 11.494 c 3.994,0 7.262,-3.268 7.262,-7.262 v -0.057 c 0,-3.994 -3.268,-7.262 -7.262,-7.262 h 3.961 c 3.994,0 7.262,-3.268 7.262,-7.262 v -0.057 c 0,-3.994 -3.268,-7.262 -7.262,-7.262 h 3.77 c 3.994,0 7.262,-3.268 7.262,-7.262 v -0.057 c 0,-3.994 -3.268,-7.262 -7.262,-7.262 h -10.924 v -0.054 h 34.19 c 4.014,0 7.297,-3.284 7.297,-7.297 0,-4.013 -3.284,-7.297 -7.297,-7.297 h -40.416 c 4.843,-0.3 8.715,-4.343 8.715,-9.258 0,-2.562 -1.78,-4.722 -4.162,-5.322 0.003,-0.022 0.011,-0.042 0.013,-0.065 -0.338,-0.07 -0.687,-0.106 -1.044,-0.106 h -0.299 v 0 h -0.733 -6.902 v 0 H 402.06 c -2.348,-0.172 -4.879,0.352 -6.104,1.576 l -15.428,15.428 c -2.417,1.857 -4.02,4.712 -4.185,7.938 h -9.359 -12.983 v 38.055 l 12.983,-0.003 z m 37.163,-48.216 v 0 h -0.494 v 0 z"
   id="path5"
   inkscape:label="point.shadow" />
	<path
   style="fill:url(#swatch182)"
   d="m 475.237,407.565 c 0.044,-0.048 0.089,-0.095 0.132,-0.145 1.1,-1.278 1.771,-2.935 1.771,-4.743 0,-4.013 -3.284,-7.297 -7.297,-7.297 h -5.6 c 0.286,0 0.567,-0.021 0.845,-0.053 0.086,-0.01 0.17,-0.026 0.256,-0.039 0.193,-0.03 0.384,-0.065 0.572,-0.11 0.092,-0.022 0.182,-0.045 0.272,-0.07 0.186,-0.052 0.369,-0.112 0.549,-0.178 0.077,-0.028 0.154,-0.054 0.23,-0.084 0.245,-0.099 0.484,-0.209 0.715,-0.333 0.004,-0.002 0.009,-0.004 0.013,-0.006 0.242,-0.131 0.474,-0.278 0.699,-0.435 0.05,-0.035 0.097,-0.073 0.146,-0.11 0.17,-0.125 0.335,-0.256 0.494,-0.395 0.057,-0.05 0.112,-0.101 0.167,-0.152 0.152,-0.141 0.296,-0.288 0.435,-0.442 0.044,-0.048 0.089,-0.095 0.132,-0.145 0.175,-0.203 0.341,-0.413 0.493,-0.635 l 10e-4,-10e-4 v 0 c 0.804,-1.172 1.277,-2.587 1.277,-4.107 0,-4.013 -3.284,-7.297 -7.297,-7.297 h -47.814 -8.478 -16.64 l 2.692,-13.473 c 1.106,-5.534 -2.517,-10.966 -8.051,-12.072 -2.438,-0.487 -4.831,1.109 -5.318,3.547 l -6.03,30.177 c -0.126,0.633 -0.152,1.263 -0.09,1.875 -0.002,0.035 -0.004,0.071 -0.005,0.107 h -9.359 -12.983 v 38.055 h 12.985 12.867 c 3.947,6.1 10.806,10.161 18.572,10.161 h 19.838 c 0.089,0 0.175,-0.011 0.264,-0.013 h 11.493 c 3.994,0 7.262,-3.268 7.262,-7.262 v -0.057 c 0,-3.994 -3.268,-7.262 -7.262,-7.262 h -3.194 v 0 h 7.155 c 3.994,0 7.262,-3.268 7.262,-7.262 v -0.057 c 0,-3.994 -3.268,-7.262 -7.262,-7.262 h -7.155 v -0.012 h 44.851 c 0.286,0 0.567,-0.021 0.845,-0.053 0.086,-0.01 0.17,-0.026 0.256,-0.039 0.193,-0.03 0.384,-0.065 0.572,-0.109 0.092,-0.022 0.182,-0.045 0.272,-0.07 0.187,-0.052 0.37,-0.112 0.551,-0.178 0.076,-0.028 0.153,-0.054 0.228,-0.084 0.246,-0.1 0.486,-0.21 0.718,-0.334 0.004,-0.002 0.008,-0.003 0.011,-0.005 0.242,-0.131 0.474,-0.278 0.699,-0.435 0.05,-0.035 0.098,-0.074 0.147,-0.111 0.17,-0.125 0.335,-0.256 0.493,-0.395 0.057,-0.05 0.112,-0.101 0.167,-0.152 0.152,-0.147 0.297,-0.294 0.436,-0.448 z"
   id="path6"
   inkscape:label="gun.shadow" />
	<path
   style="fill:url(#swatch182)"
   d="m 265.809,119.069 13.483,13.483 c 1.741,2.654 4.086,4.872 6.834,6.473 v 12.47 12.608 h 38.055 v -12.61 0 -13.242 c 6.1,-3.947 10.161,-10.806 10.161,-18.572 v -7.707 -12.133 -44.16 c 0,-4.013 -3.284,-7.297 -7.297,-7.297 -4.013,0 -7.297,3.284 -7.297,7.297 v 30.263 c 0,-4.013 -3.284,-7.297 -7.297,-7.297 -4.013,0 -7.297,3.284 -7.297,7.297 0,-4.013 -3.284,-7.297 -7.297,-7.297 -4.013,0 -7.297,3.284 -7.297,7.297 V 46.259 c 0,-4.013 -3.284,-7.297 -7.297,-7.297 -4.013,0 -7.297,3.284 -7.297,7.297 v 53.58 2.711 0.184 l -9.316,6.759 c -2.561,1.858 -3.305,4.891 -2.125,7.491 0.263,0.761 0.678,1.48 1.284,2.085 z"
   id="path7"
   inkscape:label="rock.shadow" />
	<path
   style="fill:url(#swatch182)"
   d="m 134.107,341.618 v 0 c -3.891,-0.984 -7.88,1.393 -8.864,5.284 L 116,383.429 h -1.448 l 4.337,-46.177 c 0.375,-3.996 -2.587,-7.572 -6.583,-7.947 v 0 c -3.996,-0.375 -7.572,2.587 -7.948,6.583 L 99.893,383.43 H 98.761 L 95.58,333.773 c -0.257,-4.005 -3.743,-7.072 -7.749,-6.816 v 0 c -4.005,0.257 -7.072,3.743 -6.816,7.749 l 3.122,48.724 h -1.243 l -9.943,-42.727 c -0.91,-3.909 -4.852,-6.363 -8.761,-5.453 v 0 c -3.909,0.91 -6.363,4.852 -5.453,8.761 l 11.142,47.882 c 0,0.034 -0.005,0.067 -0.005,0.101 v 2.895 l -9.316,6.759 c -2.561,1.858 -3.305,4.891 -2.125,7.491 0.264,0.761 0.68,1.48 1.285,2.085 l 13.483,13.483 c 1.741,2.654 4.086,4.872 6.834,6.473 v 11.155 13.922 h 38.055 v -13.927 0 -11.928 c 6.1,-3.947 10.161,-10.806 10.161,-18.572 v -17.324 l 11.14,-44.025 c 0.985,-3.89 -1.393,-7.878 -5.284,-8.863 z"
   id="path8"
   inkscape:label="four.shadow" />
	<path
   style="fill:url(#swatch182)"
   d="m 169.44,266.633 c 1.741,2.654 4.086,4.872 6.834,6.473 v 12.094 0 12.983 h 38.055 V 285.198 272.33 c 6.1,-3.947 10.161,-10.806 10.161,-18.572 v -5.051 -14.787 -8.284 c 0,-4.014 -3.284,-7.297 -7.297,-7.297 -3.919,0 -7.134,3.134 -7.283,7.018 h -0.014 v -5.335 c 0,-4.013 -3.284,-7.297 -7.297,-7.297 -4.013,0 -7.297,3.284 -7.297,7.297 v -3 c 0,-4.013 -3.284,-7.297 -7.297,-7.297 v 0 c -4.013,0 -7.297,3.284 -7.297,7.297 v 4 c 0,-4.013 -3.284,-7.297 -7.297,-7.297 -4.013,0 -7.297,3.284 -7.297,7.297 v 12.898 2.895 l -9.316,6.759 c -2.561,1.858 -3.305,4.891 -2.125,7.491 0.264,0.761 0.68,1.48 1.285,2.085 z"
   id="path9"
   inkscape:label="zero.shadow" />
	<path
   style="fill:url(#swatch182)"
   d="m 233.59,348.864 c -0.01,-0.086 -0.026,-0.171 -0.039,-0.256 -0.03,-0.193 -0.065,-0.384 -0.11,-0.571 -0.022,-0.092 -0.045,-0.182 -0.07,-0.273 -0.052,-0.186 -0.112,-0.369 -0.178,-0.549 -0.028,-0.077 -0.054,-0.155 -0.085,-0.23 -0.099,-0.245 -0.209,-0.484 -0.333,-0.715 -0.002,-0.004 -0.004,-0.009 -0.006,-0.013 -0.131,-0.242 -0.278,-0.474 -0.435,-0.699 -0.035,-0.051 -0.074,-0.098 -0.111,-0.148 -0.125,-0.17 -0.256,-0.334 -0.394,-0.493 -0.05,-0.057 -0.101,-0.112 -0.153,-0.168 -0.141,-0.151 -0.288,-0.296 -0.441,-0.435 -0.049,-0.044 -0.095,-0.089 -0.145,-0.132 -0.203,-0.175 -0.413,-0.341 -0.635,-0.493 l -0.001,-0.001 v 0 c -1.172,-0.804 -2.587,-1.277 -4.107,-1.277 v 0 c -4.013,0 -7.297,3.284 -7.297,7.297 v -8.504 c 0,-0.286 -0.021,-0.567 -0.053,-0.845 -0.01,-0.086 -0.026,-0.17 -0.039,-0.256 -0.03,-0.193 -0.065,-0.384 -0.109,-0.572 -0.022,-0.092 -0.045,-0.182 -0.07,-0.273 -0.052,-0.186 -0.112,-0.369 -0.178,-0.549 -0.028,-0.077 -0.054,-0.154 -0.085,-0.23 -0.099,-0.245 -0.209,-0.485 -0.333,-0.716 -0.002,-0.004 -0.004,-0.009 -0.006,-0.013 -0.131,-0.242 -0.278,-0.474 -0.434,-0.699 -0.035,-0.051 -0.074,-0.098 -0.111,-0.148 -0.125,-0.17 -0.255,-0.334 -0.394,-0.493 -0.05,-0.057 -0.101,-0.112 -0.152,-0.167 -0.141,-0.151 -0.288,-0.296 -0.442,-0.435 -0.049,-0.044 -0.095,-0.089 -0.145,-0.132 -0.203,-0.175 -0.414,-0.341 -0.635,-0.493 0,0 -0.001,-10e-4 -0.001,-10e-4 v 0 c -1.172,-0.804 -2.587,-1.277 -4.107,-1.277 -4.014,0 -7.297,3.284 -7.297,7.297 v -6.516 c 0,-0.286 -0.021,-0.567 -0.053,-0.845 -0.01,-0.086 -0.026,-0.17 -0.039,-0.256 -0.03,-0.193 -0.065,-0.384 -0.109,-0.572 -0.022,-0.092 -0.045,-0.182 -0.071,-0.273 -0.052,-0.187 -0.112,-0.37 -0.178,-0.55 -0.028,-0.076 -0.054,-0.153 -0.084,-0.228 -0.1,-0.245 -0.209,-0.485 -0.334,-0.716 -0.002,-0.004 -0.004,-0.009 -0.006,-0.013 -0.131,-0.242 -0.278,-0.474 -0.434,-0.699 -0.036,-0.051 -0.074,-0.098 -0.111,-0.148 -0.125,-0.17 -0.256,-0.334 -0.394,-0.493 -0.05,-0.057 -0.101,-0.112 -0.152,-0.167 -0.141,-0.151 -0.288,-0.296 -0.441,-0.435 -0.049,-0.044 -0.096,-0.09 -0.146,-0.133 -0.203,-0.175 -0.413,-0.341 -0.635,-0.493 0,0 -0.001,0 -0.001,0 v 0 c -1.172,-0.804 -2.587,-1.277 -4.107,-1.277 -4.013,0 -7.297,3.284 -7.297,7.297 v 43.916 c 0,-4.013 -3.284,-7.297 -7.297,-7.297 -4.013,0 -7.297,3.284 -7.297,7.297 v 12.898 2.895 l -9.316,6.759 c -2.561,1.858 -3.305,4.891 -2.125,7.491 0.264,0.761 0.68,1.48 1.285,2.085 l 13.483,13.483 c 1.741,2.654 4.086,4.872 6.834,6.473 v 11.586 0 13.492 h 38.055 V 442.27 429.912 c 6.1,-3.947 10.161,-10.806 10.161,-18.572 v -5.34 -14.498 -7.803 -33.991 0 0 c -0.006,-0.286 -0.027,-0.567 -0.06,-0.844 z"
   id="path10"
   inkscape:label="OK.shadow" />
	<path
   style="fill:url(#swatch182)"
   d="m 330.041,372.911 v 0 c -4.013,0 -7.297,3.284 -7.297,7.297 v -3.746 c 0,-4.153 -3.398,-7.552 -7.552,-7.552 h -0.527 c -2.734,0 -5.134,1.478 -6.46,3.669 l 2.597,-36.068 c 0.288,-4.003 -2.751,-7.514 -6.754,-7.802 -4.003,-0.288 -7.514,2.751 -7.802,6.754 l -3.318,46.079 h -1.045 l -6.611,-43.791 c -0.599,-3.968 -4.336,-6.725 -8.305,-6.126 -3.968,0.599 -6.725,4.336 -6.126,8.305 l 8.023,53.141 -9.219,6.688 c -2.561,1.858 -3.305,4.891 -2.125,7.491 0.264,0.761 0.68,1.479 1.285,2.085 l 13.483,13.483 c 1.741,2.654 4.086,4.872 6.834,6.473 v 25.078 h 38.055 v -14.525 c 0.046,0.019 0.095,0.035 0.141,0.054 v -11.472 c 6.021,-3.961 10.02,-10.775 10.02,-18.481 v -6.664 -13.174 -9.897 c 0,-4.015 -3.284,-7.299 -7.297,-7.299 z"
   id="path11"
   inkscape:label="two.shadow" />
	<path
   style="display:inline;fill:url(#linearGradient182)"
   d="m 398.28,314.958 h 38.055 v -14.08 0 -11.772 c 6.1,-3.947 10.161,-10.806 10.161,-18.572 v -19.838 -0.001 -9.194 c 0,-4.399 -3.6,-7.999 -7.999,-7.999 -4.399,0 -7.999,3.6 -7.999,7.999 v 0.633 h -0.211 l 3.243,-45.031 c 0.288,-4.003 -2.751,-7.514 -6.754,-7.802 -4.003,-0.288 -7.514,2.751 -7.802,6.754 l -3.318,46.079 h -0.348 v -51.383 c 0,-4.013 -3.284,-7.297 -7.297,-7.297 -4.013,0 -7.297,3.284 -7.297,7.297 v 49.213 l -6.283,-41.621 c -0.599,-3.968 -4.336,-6.725 -8.305,-6.126 -3.968,0.599 -6.725,4.336 -6.126,8.305 l 8.022,53.141 -9.219,6.688 c -2.561,1.858 -3.305,4.891 -2.125,7.491 0.264,0.761 0.68,1.48 1.285,2.085 l 13.483,13.483 c 1.741,2.654 4.086,4.872 6.834,6.473 v 11 z"
   id="path12"
   inkscape:label="three.shadow" />
	<g
   id="g34"
   inkscape:label="five">
		<path
   style="fill:url(#swatch177)"
   d="m 71.175,32.843 v 0 c -4.013,0 -7.297,3.284 -7.297,7.297 v 56.292 c 0,4.013 3.284,7.297 7.297,7.297 v 0 c 4.013,0 7.297,-3.284 7.297,-7.297 V 40.14 c 0,-4.014 -3.284,-7.297 -7.297,-7.297 z"
   id="path13" />
		<path
   style="fill:url(#swatch180)"
   d="m 78.472,40.14 c 0,-2.493 -1.268,-4.702 -3.19,-6.02 l 3.19,49.037 z"
   id="path14" />
		<g
   id="g16">
			<path
   style="fill:url(#swatch183)"
   d="m 71.175,36.08 v 0 c -2.79,0 -5.074,2.283 -5.074,5.074 v 2.243 c 0,0 2.283,1.737 5.074,1.737 v 0 c 2.79,0 5.073,-1.737 5.073,-1.737 v -2.243 c 0,-2.791 -2.283,-5.074 -5.073,-5.074 z"
   id="path15" />
			<path
   style="fill:url(#swatch185)"
   d="m 71.175,42.96 c -1.329,0 -2.54,0.522 -3.447,1.366 0.907,0.413 2.117,0.807 3.447,0.807 v 0 c 1.329,0 2.539,-0.395 3.447,-0.807 -0.908,-0.844 -2.118,-1.366 -3.447,-1.366 z"
   id="path16" />
		</g>
		<path
   style="fill:url(#swatch177)"
   d="m 85.769,27.243 v 0 c -4.013,0 -7.297,3.284 -7.297,7.297 v 56.292 c 0,4.013 3.284,7.297 7.297,7.297 v 0 c 4.013,0 7.297,-3.284 7.297,-7.297 V 34.54 c 0,-4.014 -3.284,-7.297 -7.297,-7.297 z"
   id="path17" />
		<path
   style="fill:url(#swatch180)"
   d="M 93.066,83.55 V 34.54 c 0,-2.493 -1.268,-4.703 -3.19,-6.02 z"
   id="path18" />
		<g
   id="g20">
			<path
   style="fill:url(#swatch183)"
   d="m 85.769,30.952 v 0 c -2.79,0 -5.074,2.283 -5.074,5.074 v 2.243 c 0,0 2.283,1.737 5.074,1.737 v 0 c 2.79,0 5.073,-1.737 5.073,-1.737 v -2.243 c 0.001,-2.79 -2.283,-5.074 -5.073,-5.074 z"
   id="path19" />
			<path
   style="fill:url(#swatch185)"
   d="m 85.769,37.832 c -1.329,0 -2.54,0.522 -3.447,1.366 0.907,0.413 2.117,0.807 3.447,0.807 v 0 c 1.329,0 2.539,-0.394 3.446,-0.807 -0.906,-0.844 -2.117,-1.366 -3.446,-1.366 z"
   id="path20" />
		</g>
		<path
   style="fill:url(#swatch177)"
   d="m 100.363,33.759 v 0 c -4.013,0 -7.297,3.284 -7.297,7.297 v 56.292 c 0,4.013 3.284,7.297 7.297,7.297 v 0 c 4.013,0 7.297,-3.284 7.297,-7.297 V 41.056 c 0,-4.014 -3.283,-7.297 -7.297,-7.297 z"
   id="path21" />
		<path
   style="fill:url(#swatch177)"
   d="m 114.957,42.263 v 0 c -4.013,0 -7.297,3.284 -7.297,7.297 v 56.292 c 0,4.013 3.284,7.297 7.297,7.297 v 0 c 4.013,0 7.297,-3.284 7.297,-7.297 V 49.56 c 0,-4.014 -3.283,-7.297 -7.297,-7.297 z"
   id="path22" />
		<path
   style="fill:url(#swatch180)"
   d="M 107.66,83.55 V 41.056 c 0,-2.493 -1.268,-4.703 -3.19,-6.02 z"
   id="path23" />
		<path
   style="fill:url(#swatch180)"
   d="M 122.254,83.55 V 49.56 c 0,-2.493 -1.268,-4.703 -3.19,-6.02 z"
   id="path24" />
		<path
   style="fill:url(#swatch177)"
   d="m 42.372,100.093 v 0 c -2.02,2.02 -2.02,5.325 0,7.345 l 24.668,24.668 c 2.852,2.852 7.519,2.852 10.371,0 l 0.08,-0.08 c 2.852,-2.852 2.852,-7.519 0,-10.371 L 55.93,100.093 c -3.729,-3.728 -9.83,-3.728 -13.558,0 z"
   id="path25" />
		<rect
   x="74.039001"
   y="124.712"
   style="fill:url(#swatch177)"
   width="38.055"
   height="33.271"
   id="rect25" />
		<path
   style="fill:url(#linearGradient1)"
   d="m 93.069,139.787 c 6.971,0 13.485,1.312 19.024,3.585 v -18.66 H 74.039 v 18.663 c 5.541,-2.275 12.056,-3.588 19.03,-3.588 z"
   id="path26" />
		<path
   style="fill:url(#linearGradient177)"
   d="M 99.795,135.669 H 74.754 c -5.982,0 -10.877,-4.894 -10.877,-10.877 V 92.248 c 0,-4.784 3.914,-8.698 8.698,-8.698 h 49.678 v 29.659 c 0.001,12.353 -10.105,22.46 -22.458,22.46 z"
   id="path27" />
		<g
   id="g29">
			<path
   style="fill:url(#swatch183)"
   d="m 100.363,37.736 v 0 c -2.79,0 -5.074,2.283 -5.074,5.073 v 2.243 c 0,0 2.283,1.737 5.074,1.737 v 0 c 2.79,0 5.073,-1.737 5.073,-1.737 v -2.243 c 10e-4,-2.79 -2.282,-5.073 -5.073,-5.073 z"
   id="path28" />
			<path
   style="fill:url(#swatch185)"
   d="m 100.363,44.616 c -1.329,0 -2.54,0.522 -3.447,1.366 0.907,0.413 2.117,0.807 3.447,0.807 v 0 c 1.329,0 2.539,-0.395 3.447,-0.807 -0.907,-0.844 -2.118,-1.366 -3.447,-1.366 z"
   id="path29" />
		</g>
		<g
   id="g31">
			<path
   style="fill:url(#swatch183)"
   d="m 114.957,45.703 v 0 c -2.79,0 -5.073,2.283 -5.073,5.073 v 2.243 c 0,0 2.283,1.737 5.073,1.737 v 0 c 2.79,0 5.074,-1.737 5.074,-1.737 v -2.243 c 0,-2.79 -2.283,-5.073 -5.074,-5.073 z"
   id="path30" />
			<path
   style="fill:url(#swatch185)"
   d="m 114.957,52.583 c -1.329,0 -2.539,0.522 -3.447,1.366 0.907,0.413 2.117,0.807 3.447,0.807 v 0 c 1.329,0 2.54,-0.395 3.447,-0.807 -0.907,-0.845 -2.117,-1.366 -3.447,-1.366 z"
   id="path31" />
		</g>
		<g
   id="g33">
			<path
   style="fill:url(#swatch183)"
   d="m 50.031,108.568 -1.586,-1.586 c -1.837,-1.837 -4.75,-1.941 -6.737,-0.357 0.19,0.288 0.411,0.561 0.663,0.814 l 5.611,5.61 c 1.702,-1.944 2.049,-4.481 2.049,-4.481 z"
   id="path32" />
			<path
   style="fill:url(#swatch185)"
   d="m 47.972,113.038 c 0.756,-0.865 1.258,-1.839 1.566,-2.663 -1.093,0.039 -2.164,0.444 -3.049,1.18 z"
   id="path33" />
		</g>
	</g>
	<g
   id="g46"
   inkscape:label="one">
		<path
   style="fill:url(#swatch177)"
   d="m 78.475,175.924 v 0 c -4.013,0 -7.297,3.284 -7.297,7.297 v 56.292 c 0,4.013 3.284,7.297 7.297,7.297 v 0 c 4.013,0 7.297,-3.284 7.297,-7.297 v -56.292 c 0,-4.013 -3.284,-7.297 -7.297,-7.297 z"
   id="path34" />
		<g
   id="g36">
			<path
   style="fill:url(#linearGradient184)"
   d="m 78.475,179.162 v 0 c -2.79,0 -5.074,2.283 -5.074,5.074 v 2.243 c 0,0 2.283,1.737 5.074,1.737 v 0 c 2.79,0 5.073,-1.737 5.073,-1.737 v -2.243 c 0.001,-2.791 -2.283,-5.074 -5.073,-5.074 z"
   id="path35" />
			<path
   style="fill:url(#linearGradient186)"
   d="m 78.475,186.042 c -1.329,0 -2.54,0.522 -3.447,1.366 0.907,0.413 2.117,0.807 3.447,0.807 v 0 c 1.329,0 2.539,-0.394 3.447,-0.807 -0.907,-0.844 -2.118,-1.366 -3.447,-1.366 z"
   id="path36" />
		</g>
		<path
   style="fill:url(#swatch177)"
   d="m 93.069,211.902 v 0 c -4.013,0 -7.297,3.284 -7.297,7.297 v 23.16 c 0,4.013 3.284,7.297 7.297,7.297 v 0 c 4.013,0 7.297,-3.284 7.297,-7.297 v -23.16 c 0,-4.013 -3.283,-7.297 -7.297,-7.297 z"
   id="path37" />
		<path
   style="fill:url(#swatch177)"
   d="m 107.663,213.298 v 0 c -4.013,0 -7.297,3.284 -7.297,7.297 v 23.16 c 0,4.013 3.284,7.297 7.297,7.297 v 0 c 4.013,0 7.297,-3.284 7.297,-7.297 v -23.16 c 0,-4.013 -3.283,-7.297 -7.297,-7.297 z"
   id="path38" />
		<path
   style="fill:url(#swatch177)"
   d="m 122.257,216.432 v 0 c -4.013,0 -7.297,3.284 -7.297,7.297 v 23.16 c 0,4.013 3.284,7.297 7.297,7.297 v 0 c 4.013,0 7.297,-3.284 7.297,-7.297 v -23.16 c 0.001,-4.014 -3.283,-7.297 -7.297,-7.297 z"
   id="path39" />
		<path
   style="fill:url(#swatch180)"
   d="m 62.071,224.877 v 0 c -3.021,0 -5.493,2.472 -5.493,5.493 v 22.537 c 0,4.038 3.304,7.341 7.341,7.341 h 0.098 c 4.038,0 7.341,-3.304 7.341,-7.341 v -18.743 c 0,-5.108 -4.179,-9.287 -9.287,-9.287 z"
   id="path40" />
		<rect
   x="81.338997"
   y="267.79401"
   style="fill:url(#swatch177)"
   width="38.055"
   height="33.271"
   id="rect40" />
		<path
   style="fill:url(#swatch180)"
   d="m 100.369,282.494 c 6.971,0 13.485,1.312 19.024,3.585 v -18.66 H 81.339 v 18.663 c 5.541,-2.275 12.056,-3.588 19.03,-3.588 z"
   id="path41" />
		<path
   style="fill:url(#swatch180)"
   d="m 58.188,250.427 v 0 c -2.148,2.148 -2.148,5.662 0,7.809 l 16.331,16.331 c 2.855,2.855 7.528,2.855 10.383,0 l 0.068,-0.068 c 2.855,-2.855 2.855,-7.528 0,-10.383 L 71.281,250.428 c -3.6,-3.602 -9.492,-3.602 -13.093,-0.001 z"
   id="path42" />
		<path
   style="fill:url(#swatch177)"
   d="m 107.095,278.75 h -25.04 c -5.982,0 -10.877,-4.895 -10.877,-10.877 V 235.33 c 0,-4.784 3.914,-8.698 8.698,-8.698 h 40.98 c 4.784,0 8.698,3.914 8.698,8.698 v 20.961 c 0.001,12.353 -10.106,22.459 -22.459,22.459 z"
   id="path43" />
		<g
   id="g45">
			<path
   style="fill:url(#linearGradient183)"
   d="m 61.195,236.285 v -2.243 c 0,-2.598 -1.986,-4.731 -4.511,-5.016 -0.07,0.338 -0.106,0.687 -0.106,1.045 v 7.934 c 2.578,-0.171 4.617,-1.72 4.617,-1.72 z"
   id="path44" />
			<path
   style="fill:url(#linearGradient185)"
   d="m 56.578,237.99 c 1.146,-0.077 2.189,-0.411 2.99,-0.775 -0.801,-0.745 -1.844,-1.216 -2.99,-1.322 z"
   id="path45" />
		</g>
	</g>
	<g
   id="g57"
   inkscape:label="radical">
		<path
   style="fill:url(#swatch177)"
   d="m 188.3,68.206 v 0 c -4.049,0 -7.362,3.313 -7.362,7.362 v 18.07 c 0,4.049 3.313,7.362 7.362,7.362 v 0 c 4.049,0 7.362,-3.313 7.362,-7.362 v -18.07 c 0,-4.049 -3.313,-7.362 -7.362,-7.362 z"
   id="path46" />
		<path
   style="fill:url(#swatch177)"
   d="m 173.294,69.72 v 0 c -4.204,0 -7.644,3.44 -7.644,7.644 V 94.87 c 0,4.204 3.44,7.644 7.644,7.644 v 0 c 4.204,0 7.644,-3.44 7.644,-7.644 V 77.364 c 0,-4.204 -3.44,-7.644 -7.644,-7.644 z"
   id="path47" />
		<path
   style="fill:url(#swatch177)"
   d="m 203.311,68.206 v 0 c -4.207,0 -7.649,3.442 -7.649,7.649 V 93.35 c 0,4.207 3.442,7.649 7.649,7.649 v 0 c 4.207,0 7.649,-3.442 7.649,-7.649 V 75.855 c 0.001,-4.207 -3.442,-7.649 -7.649,-7.649 z"
   id="path48" />
		<path
   style="fill:url(#swatch177)"
   d="m 233.567,47.776 v 0 c -3.711,-1.528 -7.998,0.259 -9.526,3.97 l -21.429,52.053 c -1.528,3.711 0.258,7.998 3.97,9.526 v 0 c 3.711,1.528 7.998,-0.259 9.526,-3.97 l 21.429,-52.053 c 1.527,-3.712 -0.259,-7.999 -3.97,-9.526 z"
   id="path49" />
		<path
   style="fill:url(#swatch177)"
   d="m 144.143,97.093 v 0 c -2.02,2.02 -2.02,5.325 0,7.345 l 24.668,24.668 c 2.852,2.852 7.519,2.852 10.371,0 l 0.08,-0.08 c 2.852,-2.852 2.852,-7.519 0,-10.371 L 157.7,97.093 c -3.727,-3.728 -9.828,-3.728 -13.557,0 z"
   id="path50" />
		<rect
   x="175.811"
   y="121.712"
   style="fill:url(#swatch177)"
   width="38.055"
   height="33.271"
   id="rect50" />
		<path
   style="fill:url(#swatch180)"
   d="m 194.841,138.787 c 6.971,0 13.485,1.312 19.024,3.585 v -18.66 H 175.81 v 18.663 c 5.542,-2.275 12.057,-3.588 19.031,-3.588 z"
   id="path51" />
		<path
   style="fill:url(#swatch177)"
   d="m 201.916,132.669 h -25.559 c -5.889,0 -10.708,-4.819 -10.708,-10.708 V 90.72 c 0,-4.71 3.854,-8.563 8.563,-8.563 h 41.25 c 4.71,0 8.563,3.853 8.563,8.563 v 19.838 c 0.001,12.161 -9.948,22.111 -22.109,22.111 z"
   id="path52" />
		<g
   id="g54">
			<path
   style="fill:url(#swatch183)"
   d="m 232.257,50.957 v 0 c -2.58,-1.062 -5.561,0.18 -6.623,2.76 l -0.854,2.074 c 0,0 1.45,2.476 4.03,3.538 v 0 c 2.58,1.062 5.353,0.325 5.353,0.325 l 0.854,-2.074 c 1.062,-2.581 -0.18,-5.561 -2.76,-6.623 z"
   id="path53" />
			<path
   style="fill:url(#swatch185)"
   d="m 229.638,57.318 c -1.229,-0.506 -2.547,-0.484 -3.707,-0.049 0.682,0.727 1.651,1.553 2.88,2.059 v 0 c 1.229,0.506 2.498,0.602 3.494,0.565 -0.517,-1.125 -1.438,-2.069 -2.667,-2.575 z"
   id="path54" />
		</g>
		<g
   id="g56">
			<path
   style="fill:url(#swatch183)"
   d="m 151.803,105.567 -1.586,-1.586 c -1.837,-1.837 -4.75,-1.941 -6.737,-0.357 0.19,0.288 0.411,0.561 0.663,0.814 l 5.611,5.61 c 1.702,-1.944 2.049,-4.481 2.049,-4.481 z"
   id="path55" />
			<path
   style="fill:url(#swatch185)"
   d="m 149.744,110.038 c 0.756,-0.865 1.258,-1.839 1.566,-2.663 -1.093,0.039 -2.164,0.444 -3.049,1.18 z"
   id="path56" />
		</g>
	</g>
	<g
   id="g67"
   inkscape:label="thumbs">
		<path
   style="fill:url(#swatch177)"
   d="m 344.75,226.945 v -0.057 c 0,-3.994 -3.268,-7.262 -7.262,-7.262 h -18.27 c -3.994,0 -7.262,3.268 -7.262,7.262 v 0.057 c 0,3.994 3.268,7.262 7.262,7.262 h 18.27 c 3.994,0 7.262,-3.268 7.262,-7.262 z"
   id="path57" />
		<path
   style="fill:url(#swatch177)"
   d="m 346.461,241.587 v -0.057 c 0,-3.994 -3.268,-7.262 -7.262,-7.262 h -18.27 c -3.994,0 -7.262,3.268 -7.262,7.262 v 0.057 c 0,3.994 3.268,7.262 7.262,7.262 h 18.27 c 3.994,0 7.262,-3.268 7.262,-7.262 z"
   id="path58" />
		<path
   style="fill:url(#swatch177)"
   d="m 342.691,256.168 v -0.057 c 0,-3.994 -3.268,-7.262 -7.262,-7.262 h -18.27 c -3.994,0 -7.262,3.268 -7.262,7.262 v 0.057 c 0,3.994 3.268,7.262 7.262,7.262 h 18.27 c 3.995,0 7.262,-3.268 7.262,-7.262 z"
   id="path59" />
		<path
   style="fill:url(#swatch180)"
   d="m 295.424,216.238 c -0.844,-0.655 -3.877,-1.029 -4.906,-0.948 -0.786,9.877 -5.117,18.731 -8.107,28.094 -0.213,0.667 -0.409,1.34 -0.595,2.015 3.057,1.579 6.653,2.568 10.541,2.722 11.552,0.457 21.209,-6.541 21.568,-15.63 0.359,-9.089 -7.988,-8.097 -18.501,-16.253 z"
   id="path60" />
		<path
   style="fill:url(#swatch177)"
   d="m 338.731,270.749 v -0.057 c 0,-3.994 -3.268,-7.262 -7.262,-7.262 h -18.27 c -3.994,0 -7.262,3.268 -7.262,7.262 v 0.057 c 0,3.994 3.268,7.262 7.262,7.262 h 18.27 c 3.994,10e-4 7.262,-3.268 7.262,-7.262 z"
   id="path61" />
		<path
   style="fill:url(#swatch180)"
   d="m 289.847,192.161 v 0 c -2.477,-0.495 -4.909,1.127 -5.405,3.604 l -6.275,31.404 c -0.699,3.498 1.591,6.932 5.089,7.631 l 1.773,0.354 c 3.498,0.699 6.932,-1.591 7.631,-5.089 l 5.179,-25.919 c 1.099,-5.493 -2.498,-10.887 -7.992,-11.985 z"
   id="path62" />
		
			<rect
   x="253.05701"
   y="232.201"
   transform="rotate(90,272.08435,248.83665)"
   style="fill:url(#swatch177)"
   width="38.055"
   height="33.271"
   id="rect62" />
		<path
   style="fill:url(#swatch180)"
   d="m 273.391,248.852 c 0,6.971 -1.312,13.485 -3.585,19.024 h 18.66 v -38.055 h -18.663 c 2.275,5.542 3.588,12.057 3.588,19.031 z"
   id="path63" />
		<path
   style="fill:url(#swatch177)"
   d="m 277.763,255.915 v -25.559 c 0,-5.889 4.818,-10.708 10.708,-10.708 h 31.241 c 4.71,0 8.563,3.854 8.563,8.563 v 41.25 c 0,4.71 -3.853,8.563 -8.563,8.563 h -19.838 c -12.161,10e-4 -22.111,-9.949 -22.111,-22.109 z"
   id="path64" />
		<g
   id="g66">
			<path
   style="fill:url(#linearGradient5)"
   d="m 287.634,203.353 0.439,-2.199 c 0.509,-2.547 -1.021,-5.028 -3.44,-5.803 -0.134,0.318 -0.239,0.653 -0.309,1.004 l -1.555,7.781 c 2.563,0.336 4.865,-0.783 4.865,-0.783 z"
   id="path65" />
			<path
   style="fill:url(#linearGradient3)"
   d="m 282.773,204.12 c 1.139,0.149 2.228,0.026 3.084,-0.174 -0.639,-0.887 -1.57,-1.554 -2.673,-1.882 z"
   id="path66" />
		</g>
	</g>
	<g
   id="g78"
   inkscape:label="point">
		<path
   style="fill:url(#swatch177)"
   d="m 445.011,97.02 v -0.057 c 0,-3.994 -3.268,-7.262 -7.262,-7.262 h -18.27 c -3.994,0 -7.262,3.268 -7.262,7.262 v 0.057 c 0,3.994 3.268,7.262 7.262,7.262 h 18.27 c 3.994,0.001 7.262,-3.267 7.262,-7.262 z"
   id="path67" />
		<path
   style="fill:url(#swatch177)"
   d="m 441.242,111.602 v -0.057 c 0,-3.994 -3.268,-7.262 -7.262,-7.262 h -18.27 c -3.994,0 -7.262,3.268 -7.262,7.262 v 0.057 c 0,3.994 3.268,7.262 7.262,7.262 h 18.27 c 3.994,0 7.262,-3.268 7.262,-7.262 z"
   id="path68" />
		<path
   style="fill:url(#swatch177)"
   d="m 437.281,126.183 v -0.057 c 0,-3.994 -3.268,-7.262 -7.262,-7.262 h -18.27 c -3.994,0 -7.262,3.268 -7.262,7.262 v 0.057 c 0,3.994 3.268,7.262 7.262,7.262 h 18.27 c 3.994,0 7.262,-3.268 7.262,-7.262 z"
   id="path69" />
		
			<rect
   x="351.60699"
   y="87.635002"
   transform="rotate(90,370.6345,104.2702)"
   style="fill:url(#swatch177)"
   width="38.055"
   height="33.271"
   id="rect69" />
		<path
   style="fill:url(#swatch180)"
   d="m 370.569,104.273 c 0,6.971 -1.312,13.485 -3.585,19.024 h 18.66 V 85.243 h -18.663 c 2.276,5.541 3.588,12.056 3.588,19.03 z"
   id="path70" />
		<path
   style="fill:url(#swatch177)"
   d="m 468.312,82.35 v 0 c 0,-4.013 -3.284,-7.297 -7.297,-7.297 h -56.292 c -4.013,0 -7.297,3.284 -7.297,7.297 v 0 c 0,4.013 3.284,7.297 7.297,7.297 h 56.292 c 4.013,0 7.297,-3.284 7.297,-7.297 z"
   id="path71" />
		<g
   id="g73">
			<path
   style="fill:url(#swatch183)"
   d="m 465.074,82.35 v 0 c 0,-2.791 -2.283,-5.074 -5.073,-5.074 h -2.243 c 0,0 -1.737,2.283 -1.737,5.073 v 0 c 0,2.79 1.737,5.073 1.737,5.073 h 2.243 c 2.79,0.001 5.073,-2.282 5.073,-5.072 z"
   id="path72" />
			<path
   style="fill:url(#swatch185)"
   d="m 458.194,82.35 c 0,-1.329 -0.522,-2.54 -1.366,-3.447 -0.413,0.907 -0.807,2.117 -0.807,3.447 v 0 c 0,1.329 0.395,2.539 0.807,3.447 0.844,-0.908 1.366,-2.118 1.366,-3.447 z"
   id="path73" />
		</g>
		<path
   style="fill:url(#swatch180)"
   d="m 429.313,65.794 v 0 c 0,-3.021 -2.472,-5.493 -5.493,-5.493 h -22.537 c -4.038,0 -7.341,3.304 -7.341,7.341 v 0.098 c 0,4.038 3.304,7.341 7.341,7.341 h 18.743 c 5.108,10e-4 9.287,-4.179 9.287,-9.287 z"
   id="path74" />
		<path
   style="fill:url(#swatch180)"
   d="m 408,61.877 h -1.583 c -2.148,-2.148 -8.315,-2.148 -10.463,0 l -16.331,16.331 c -2.855,2.855 -2.855,7.528 0,10.383 l 0.068,0.068 c 2.855,2.855 7.528,2.855 10.383,0 L 403.762,74.97 c 3.602,-3.6 7.839,-9.492 4.238,-13.093 z"
   id="path75" />
		<g
   id="g77">
			<path
   style="fill:url(#linearGradient4)"
   d="m 417.905,64.918 h 2.243 c 2.598,0 4.731,-1.986 5.016,-4.511 -0.338,-0.07 -0.687,-0.106 -1.044,-0.106 h -7.935 c 0.171,2.579 1.72,4.617 1.72,4.617 z"
   id="path76" />
			<path
   style="fill:url(#linearGradient2)"
   d="m 416.2,60.301 c 0.077,1.146 0.411,2.19 0.775,2.99 0.745,-0.801 1.216,-1.844 1.322,-2.99 z"
   id="path77" />
		</g>
		<path
   style="fill:url(#swatch177)"
   d="M 376.313,111.348 V 85.79 c 0,-5.889 4.818,-10.708 10.708,-10.708 h 31.241 c 4.71,0 8.563,3.854 8.563,8.563 v 41.25 c 0,4.71 -3.854,8.563 -8.563,8.563 h -19.838 c -12.161,0 -22.111,-9.949 -22.111,-22.11 z"
   id="path78" />
	</g>
	<g
   id="g94"
   inkscape:label="gun">
		<path
   style="fill:url(#swatch177)"
   d="m 439.408,408.186 v -0.057 c 0,-3.994 -3.268,-7.262 -7.262,-7.262 h -18.27 c -3.994,0 -7.262,3.268 -7.262,7.262 v 0.057 c 0,3.994 3.268,7.262 7.262,7.262 h 18.27 c 3.995,0 7.262,-3.268 7.262,-7.262 z"
   id="path79" />
		<path
   style="fill:url(#swatch177)"
   d="m 435.448,422.767 v -0.057 c 0,-3.994 -3.268,-7.262 -7.262,-7.262 h -18.27 c -3.994,0 -7.262,3.268 -7.262,7.262 v 0.057 c 0,3.994 3.268,7.262 7.262,7.262 h 18.27 c 3.994,0 7.262,-3.268 7.262,-7.262 z"
   id="path80" />
		<path
   style="fill:url(#swatch177)"
   d="m 385.951,346.121 v 0 c -2.438,-0.487 -4.831,1.109 -5.318,3.547 l -6.03,30.177 c -0.688,3.442 1.566,6.821 5.008,7.509 l 1.977,0.395 c 3.442,0.688 6.821,-1.566 7.509,-5.008 l 4.905,-24.548 c 1.106,-5.533 -2.517,-10.966 -8.051,-12.072 z"
   id="path81" />
		
			<rect
   x="349.77399"
   y="384.21899"
   transform="rotate(90,368.80135,400.85445)"
   style="fill:url(#swatch177)"
   width="38.055"
   height="33.271"
   id="rect81" />
		<path
   style="fill:url(#swatch180)"
   d="m 368.736,400.857 c 0,6.971 -1.312,13.485 -3.585,19.024 h 18.66 v -38.055 h -18.663 c 2.275,5.542 3.588,12.057 3.588,19.031 z"
   id="path82" />
		<path
   style="fill:url(#swatch177)"
   d="m 471.539,378.963 v 0 c 0,-4.013 -3.284,-7.297 -7.297,-7.297 H 407.95 c -4.013,0 -7.297,3.284 -7.297,7.297 v 0 c 0,4.013 3.284,7.297 7.297,7.297 h 56.292 c 4.014,0 7.297,-3.283 7.297,-7.297 z"
   id="path83" />
		<path
   style="fill:url(#swatch180)"
   d="m 464.242,386.26 c 2.493,0 4.702,-1.268 6.02,-3.19 l -49.037,3.19 z"
   id="path84" />
		<g
   id="g86">
			<path
   style="fill:url(#swatch183)"
   d="m 468.302,378.963 v 0 c 0,-2.79 -2.283,-5.073 -5.074,-5.073 h -2.243 c 0,0 -1.737,2.283 -1.737,5.073 v 0 c 0,2.79 1.737,5.073 1.737,5.073 h 2.243 c 2.791,10e-4 5.074,-2.282 5.074,-5.073 z"
   id="path85" />
			<path
   style="fill:url(#swatch185)"
   d="m 461.422,378.963 c 0,-1.329 -0.522,-2.539 -1.366,-3.447 -0.413,0.907 -0.807,2.117 -0.807,3.447 v 0 c 0,1.329 0.395,2.539 0.807,3.447 0.844,-0.907 1.366,-2.118 1.366,-3.447 z"
   id="path86" />
		</g>
		<path
   style="fill:url(#swatch177)"
   d="m 477.139,393.557 v 0 c 0,-4.013 -3.284,-7.297 -7.297,-7.297 H 413.55 c -4.013,0 -7.297,3.284 -7.297,7.297 v 0 c 0,4.013 3.284,7.297 7.297,7.297 h 56.292 c 4.014,0 7.297,-3.283 7.297,-7.297 z"
   id="path87" />
		<path
   style="fill:url(#swatch180)"
   d="m 420.832,400.854 h 49.011 c 2.493,0 4.703,-1.268 6.02,-3.19 z"
   id="path88" />
		<g
   id="g90">
			<path
   style="fill:url(#swatch183)"
   d="m 473.43,393.557 v 0 c 0,-2.79 -2.283,-5.074 -5.074,-5.074 h -2.242 c 0,0 -1.737,2.283 -1.737,5.074 v 0 c 0,2.79 1.737,5.073 1.737,5.073 h 2.242 c 2.791,10e-4 5.074,-2.282 5.074,-5.073 z"
   id="path89" />
			<path
   style="fill:url(#swatch185)"
   d="m 466.55,393.557 c 0,-1.329 -0.522,-2.54 -1.366,-3.447 -0.413,0.907 -0.807,2.117 -0.807,3.447 v 0 c 0,1.329 0.395,2.539 0.807,3.447 0.844,-0.907 1.366,-2.117 1.366,-3.447 z"
   id="path90" />
		</g>
		<path
   style="fill:url(#swatch177)"
   d="m 374.48,407.932 v -25.559 c 0,-5.889 4.818,-10.708 10.708,-10.708 h 31.241 c 4.71,0 8.563,3.853 8.563,8.563 v 41.25 c 0,4.71 -3.853,8.563 -8.563,8.563 H 396.59 c -12.16,0.002 -22.11,-9.948 -22.11,-22.109 z"
   id="path91" />
		<g
   id="g93">
			<path
   style="fill:url(#swatch183)"
   d="m 383.811,357.327 0.439,-2.199 c 0.509,-2.548 -1.021,-5.028 -3.44,-5.803 -0.135,0.318 -0.239,0.653 -0.309,1.003 l -1.555,7.781 c 2.563,0.338 4.865,-0.782 4.865,-0.782 z"
   id="path92" />
			<path
   style="fill:url(#swatch185)"
   d="m 378.95,358.095 c 1.139,0.149 2.228,0.026 3.084,-0.174 -0.639,-0.888 -1.57,-1.554 -2.673,-1.882 z"
   id="path93" />
		</g>
	</g>
	<g
   id="g105"
   inkscape:label="rock">
		<path
   style="fill:url(#swatch180)"
   d="m 265.809,102.14 v 0 c -2.148,2.148 -2.147,5.662 0,7.809 l 16.331,16.33 c 2.855,2.855 7.528,2.855 10.383,0 l 0.068,-0.068 c 2.855,-2.855 2.855,-7.528 0,-10.383 L 278.902,102.14 c -3.601,-3.601 -9.493,-3.601 -13.093,0 z"
   id="path94" />
		<path
   style="fill:url(#swatch180)"
   d="m 290.207,90.02 v 0 c -2.148,-2.148 -5.911,-2.45 -8.362,-0.671 l -15.196,11.025 c -3.259,2.365 -3.59,6.636 -0.735,9.491 l 0.068,0.068 c 2.855,2.855 7.859,3.257 11.118,0.892 l 12.18,-8.837 c 4.111,-2.982 4.528,-8.368 0.927,-11.968 z"
   id="path95" />
		<rect
   x="286.12601"
   y="121.712"
   style="fill:url(#swatch177)"
   width="38.055"
   height="33.271"
   id="rect95" />
		<path
   style="fill:url(#swatch180)"
   d="m 305.156,138.787 c 6.971,0 13.485,1.312 19.024,3.585 v -18.66 h -38.055 v 18.663 c 5.542,-2.275 12.057,-3.588 19.031,-3.588 z"
   id="path96" />
		<path
   style="fill:url(#swatch177)"
   d="m 283.262,29.842 v 0 c -4.013,0 -7.297,3.284 -7.297,7.297 v 56.292 c 0,4.013 3.284,7.297 7.297,7.297 v 0 c 4.013,0 7.297,-3.284 7.297,-7.297 V 37.139 c 0,-4.013 -3.284,-7.297 -7.297,-7.297 z"
   id="path97" />
		<g
   id="g99">
			<path
   style="fill:url(#swatch183)"
   d="m 283.262,33.08 v 0 c -2.79,0 -5.073,2.283 -5.073,5.073 v 2.243 c 0,0 2.283,1.737 5.073,1.737 v 0 c 2.79,0 5.074,-1.737 5.074,-1.737 v -2.243 c -0.001,-2.79 -2.284,-5.073 -5.074,-5.073 z"
   id="path98" />
			<path
   style="fill:url(#swatch185)"
   d="m 283.262,39.96 c -1.329,0 -2.539,0.522 -3.447,1.366 0.907,0.413 2.117,0.807 3.447,0.807 v 0 c 1.329,0 2.54,-0.395 3.447,-0.807 -0.908,-0.844 -2.118,-1.366 -3.447,-1.366 z"
   id="path99" />
		</g>
		<path
   style="fill:url(#swatch177)"
   d="m 297.856,69.525 v 0 c -4.013,0 -7.297,3.284 -7.297,7.297 v 23.072 c 0,4.013 3.284,7.297 7.297,7.297 v 0 c 4.013,0 7.297,-3.284 7.297,-7.297 V 76.822 c 0,-4.013 -3.284,-7.297 -7.297,-7.297 z"
   id="path100" />
		<path
   style="fill:url(#swatch177)"
   d="m 312.45,69.525 v 0 c -4.013,0 -7.297,3.284 -7.297,7.297 v 23.072 c 0,4.013 3.284,7.297 7.297,7.297 v 0 c 4.013,0 7.297,-3.284 7.297,-7.297 V 76.822 c 0,-4.013 -3.283,-7.297 -7.297,-7.297 z"
   id="path101" />
		<path
   style="fill:url(#swatch177)"
   d="m 327.044,39.262 v 0 c -4.013,0 -7.297,3.284 -7.297,7.297 v 56.292 c 0,4.013 3.284,7.297 7.297,7.297 v 0 c 4.013,0 7.297,-3.284 7.297,-7.297 V 46.559 c 0,-4.013 -3.283,-7.297 -7.297,-7.297 z"
   id="path102" />
		<g
   id="g104">
			<path
   style="fill:url(#swatch183)"
   d="m 327.044,42.702 v 0 c -2.79,0 -5.073,2.283 -5.073,5.073 v 2.243 c 0,0 2.283,1.737 5.073,1.737 v 0 c 2.79,0 5.073,-1.737 5.073,-1.737 v -2.243 c 10e-4,-2.79 -2.282,-5.073 -5.073,-5.073 z"
   id="path103" />
			<path
   style="fill:url(#swatch185)"
   d="m 327.044,49.582 c -1.329,0 -2.539,0.522 -3.447,1.366 0.907,0.413 2.117,0.807 3.447,0.807 v 0 c 1.329,0 2.54,-0.395 3.447,-0.807 -0.907,-0.844 -2.118,-1.366 -3.447,-1.366 z"
   id="path104" />
		</g>
		<path
   style="fill:url(#swatch177)"
   d="m 312.231,132.669 h -15.945 c -11.177,0 -20.322,-9.145 -20.322,-20.322 V 90.72 c 0,-4.71 3.853,-8.563 8.563,-8.563 h 41.25 c 4.71,0 8.563,3.853 8.563,8.563 v 19.838 c 0.001,12.161 -9.948,22.111 -22.109,22.111 z"
   id="path105" />
	</g>
	<g
   id="g121"
   inkscape:label="four">
		<path
   style="fill:url(#swatch180)"
   d="m 59.719,394.293 v 0 c -2.148,2.148 -2.148,5.662 0,7.809 l 16.331,16.33 c 2.855,2.855 7.528,2.855 10.383,0 l 0.068,-0.068 c 2.855,-2.855 2.855,-7.528 0,-10.383 L 72.812,394.292 c -3.601,-3.599 -9.493,-3.599 -13.093,0.001 z"
   id="path106" />
		<path
   style="fill:url(#swatch180)"
   d="m 84.117,382.173 v 0 c -2.148,-2.148 -5.911,-2.45 -8.362,-0.671 l -15.196,11.024 c -3.259,2.365 -3.59,6.636 -0.735,9.491 l 0.068,0.068 c 2.855,2.855 7.859,3.257 11.118,0.892 l 12.181,-8.837 c 4.11,-2.981 4.527,-8.366 0.926,-11.967 z"
   id="path107" />
		<rect
   x="80.036003"
   y="413.86499"
   style="fill:url(#swatch177)"
   width="38.055"
   height="33.271"
   id="rect107" />
		<path
   style="fill:url(#swatch180)"
   d="m 99.066,429.626 c 6.971,0 13.485,1.312 19.024,3.585 v -18.66 H 80.036 v 18.663 c 5.541,-2.275 12.056,-3.588 19.03,-3.588 z"
   id="path108" />
		<path
   style="fill:url(#swatch177)"
   d="m 64.191,326.129 v 0 c -3.909,0.91 -6.363,4.852 -5.453,8.761 l 12.758,54.827 c 0.91,3.909 4.852,6.363 8.761,5.453 v 0 c 3.909,-0.91 6.363,-4.852 5.453,-8.761 L 72.952,331.582 c -0.909,-3.909 -4.852,-6.363 -8.761,-5.453 z"
   id="path109" />
		<g
   id="g111">
			<path
   style="fill:url(#swatch183)"
   d="m 64.925,329.282 v 0 c -2.718,0.633 -4.424,3.374 -3.792,6.091 l 0.508,2.184 c 0,0 2.617,1.175 5.335,0.542 v 0 c 2.718,-0.632 4.548,-2.842 4.548,-2.842 l -0.508,-2.184 c -0.632,-2.717 -3.373,-4.423 -6.091,-3.791 z"
   id="path110" />
			<path
   style="fill:url(#swatch185)"
   d="m 66.484,335.983 c -1.295,0.301 -2.355,1.084 -3.047,2.112 0.977,0.197 2.245,0.306 3.54,0.005 v 0 c 1.295,-0.301 2.384,-0.96 3.174,-1.567 -1.075,-0.617 -2.372,-0.851 -3.667,-0.55 z"
   id="path111" />
		</g>
		<path
   style="fill:url(#swatch177)"
   d="m 87.832,317.837 v 0 c -4.005,0.257 -7.072,3.743 -6.816,7.749 l 3.599,56.176 c 0.257,4.005 3.743,7.072 7.749,6.816 v 0 c 4.005,-0.257 7.072,-3.743 6.816,-7.749 l -3.599,-56.177 c -0.257,-4.004 -3.744,-7.071 -7.749,-6.815 z"
   id="path112" />
		<g
   id="g114">
			<path
   style="fill:url(#swatch183)"
   d="m 88.039,321.068 v 0 c -2.785,0.178 -4.917,2.603 -4.739,5.387 l 0.143,2.238 c 0,0 2.389,1.588 5.174,1.409 v 0 c 2.785,-0.178 4.952,-2.058 4.952,-2.058 l -0.143,-2.238 c -0.178,-2.784 -2.603,-4.916 -5.387,-4.738 z"
   id="path113" />
			<path
   style="fill:url(#swatch185)"
   d="m 88.479,327.934 c -1.326,0.085 -2.501,0.683 -3.352,1.584 0.932,0.354 2.165,0.67 3.491,0.585 v 0 c 1.326,-0.085 2.509,-0.556 3.388,-1.026 -0.96,-0.784 -2.201,-1.228 -3.527,-1.143 z"
   id="path114" />
		</g>
		<path
   style="fill:url(#swatch177)"
   d="m 112.307,320.185 v 0 c -3.996,-0.375 -7.572,2.587 -7.948,6.583 l -5.264,56.045 c -0.375,3.996 2.587,7.572 6.583,7.948 v 0 c 3.996,0.375 7.572,-2.587 7.947,-6.583 l 5.264,-56.045 c 0.376,-3.996 -2.587,-7.572 -6.582,-7.948 z"
   id="path115" />
		<g
   id="g117">
			<path
   style="fill:url(#swatch183)"
   d="m 112.004,323.409 v 0 c -2.778,-0.261 -5.265,1.799 -5.526,4.577 l -0.21,2.233 c 0,0 2.111,1.943 4.889,2.204 v 0 c 2.778,0.261 5.214,-1.255 5.214,-1.255 l 0.21,-2.233 c 0.261,-2.779 -1.799,-5.265 -4.577,-5.526 z"
   id="path116" />
			<path
   style="fill:url(#swatch185)"
   d="m 111.36,330.259 c -1.323,-0.124 -2.577,0.282 -3.559,1.038 0.864,0.496 2.033,1.002 3.356,1.126 v 0 c 1.323,0.124 2.565,-0.155 3.507,-0.482 -0.824,-0.925 -1.98,-1.558 -3.304,-1.682 z"
   id="path117" />
		</g>
		<path
   style="fill:url(#swatch177)"
   d="m 134.107,332.499 v 0 c -3.891,-0.985 -7.88,1.393 -8.864,5.284 l -13.809,54.572 c -0.985,3.891 1.393,7.88 5.284,8.864 v 0 c 3.891,0.984 7.88,-1.393 8.864,-5.284 l 13.809,-54.572 c 0.985,-3.891 -1.393,-7.88 -5.284,-8.864 z"
   id="path118" />
		<g
   id="g120">
			<path
   style="fill:url(#swatch183)"
   d="m 133.264,335.833 v 0 c -2.705,-0.685 -5.479,0.969 -6.163,3.674 l -0.55,2.174 c 0,0 1.787,2.244 4.492,2.929 v 0 c 2.705,0.684 5.345,-0.44 5.345,-0.44 l 0.55,-2.174 c 0.684,-2.705 -0.969,-5.478 -3.674,-6.163 z"
   id="path119" />
			<path
   style="fill:url(#swatch185)"
   d="m 131.576,342.503 c -1.289,-0.326 -2.59,-0.117 -3.676,0.479 0.778,0.623 1.855,1.302 3.143,1.628 v 0 c 1.289,0.326 2.559,0.24 3.539,0.063 -0.672,-1.041 -1.717,-1.844 -3.006,-2.17 z"
   id="path120" />
		</g>
		<path
   style="fill:url(#swatch177)"
   d="M 106.141,424.822 H 90.196 c -11.177,0 -20.322,-9.145 -20.322,-20.322 v -21.627 c 0,-4.71 3.853,-8.563 8.563,-8.563 h 41.25 c 4.71,0 8.563,3.853 8.563,8.563 v 19.838 c 0.001,12.161 -9.948,22.111 -22.109,22.111 z"
   id="path121" />
	</g>
	<g
   id="g129"
   inkscape:label="zero">
		<path
   style="fill:url(#swatch180)"
   d="m 155.957,236.221 v 0 c -2.148,2.148 -2.148,5.662 0,7.809 l 16.331,16.331 c 2.855,2.855 7.528,2.855 10.383,0 l 0.068,-0.068 c 2.855,-2.855 2.855,-7.528 0,-10.383 L 169.05,236.222 c -3.6,-3.602 -9.492,-3.602 -13.093,-0.001 z"
   id="path122" />
		<path
   style="fill:url(#swatch180)"
   d="m 180.356,224.101 v 0 c -2.148,-2.148 -5.911,-2.45 -8.362,-0.671 l -15.196,11.025 c -3.26,2.365 -3.59,6.636 -0.735,9.491 l 0.068,0.068 c 2.855,2.855 7.859,3.257 11.118,0.892 l 12.181,-8.837 c 4.11,-2.982 4.527,-8.368 0.926,-11.968 z"
   id="path123" />
		<rect
   x="176.27499"
   y="255.79201"
   style="fill:url(#swatch177)"
   width="38.055"
   height="33.271"
   id="rect123" />
		<path
   style="fill:url(#swatch180)"
   d="m 195.305,272.493 c 6.971,0 13.485,1.312 19.024,3.585 v -18.66 h -38.055 v 18.663 c 5.541,-2.275 12.057,-3.588 19.031,-3.588 z"
   id="path124" />
		<path
   style="fill:url(#swatch177)"
   d="m 188.005,200.605 v 0 c -4.013,0 -7.297,3.284 -7.297,7.297 v 23.072 c 0,4.013 3.284,7.297 7.297,7.297 v 0 c 4.013,0 7.297,-3.284 7.297,-7.297 v -23.072 c 0,-4.013 -3.284,-7.297 -7.297,-7.297 z"
   id="path125" />
		<path
   style="fill:url(#swatch177)"
   d="m 173.411,204.606 v 0 c -4.014,0 -7.297,3.284 -7.297,7.297 v 23.072 c 0,4.013 3.284,7.297 7.297,7.297 v 0 c 4.013,0 7.297,-3.284 7.297,-7.297 v -23.072 c 0,-4.013 -3.284,-7.297 -7.297,-7.297 z"
   id="path126" />
		<path
   style="fill:url(#swatch177)"
   d="m 202.599,203.606 v 0 c -4.013,0 -7.297,3.284 -7.297,7.297 v 23.072 c 0,4.013 3.284,7.297 7.297,7.297 v 0 c 4.013,0 7.297,-3.284 7.297,-7.297 v -23.072 c 0,-4.014 -3.284,-7.297 -7.297,-7.297 z"
   id="path127" />
		<path
   style="fill:url(#swatch177)"
   d="m 217.193,209.219 v 0 c -4.013,0 -7.297,3.284 -7.297,7.297 v 23.072 c 0,4.013 3.284,7.297 7.297,7.297 v 0 c 4.013,0 7.297,-3.284 7.297,-7.297 v -23.072 c 0,-4.013 -3.284,-7.297 -7.297,-7.297 z"
   id="path128" />
		<path
   style="fill:url(#swatch177)"
   d="m 202.38,266.749 h -15.945 c -11.177,0 -20.322,-9.145 -20.322,-20.322 V 224.8 c 0,-4.71 3.853,-8.563 8.563,-8.563 h 41.25 c 4.71,0 8.563,3.853 8.563,8.563 v 19.838 c 0.001,12.162 -9.948,22.111 -22.109,22.111 z"
   id="path129" />
	</g>
	<g
   id="g146"
   inkscape:label="OK">
		<path
   style="fill:url(#swatch180)"
   d="m 165.111,393.802 v 0 c -2.148,2.148 -2.148,5.662 0,7.809 l 16.331,16.331 c 2.855,2.855 7.528,2.855 10.383,0 l 0.068,-0.068 c 2.855,-2.855 2.855,-7.528 0,-10.383 l -13.689,-13.689 c -3.601,-3.6 -9.493,-3.6 -13.093,0 z"
   id="path130" />
		<path
   style="fill:url(#swatch180)"
   d="m 189.509,381.682 v 0 c -2.148,-2.147 -5.911,-2.449 -8.362,-0.671 l -15.196,11.025 c -3.259,2.365 -3.59,6.636 -0.735,9.491 l 0.068,0.068 c 2.855,2.855 7.859,3.257 11.118,0.892 l 12.18,-8.836 c 4.111,-2.982 4.528,-8.368 0.927,-11.969 z"
   id="path131" />
		<rect
   x="185.42799"
   y="413.37399"
   style="fill:url(#swatch177)"
   width="38.055"
   height="33.271"
   id="rect131" />
		<path
   style="fill:url(#swatch180)"
   d="m 204.458,429.565 c 6.971,0 13.485,1.312 19.024,3.585 v -18.66 h -38.055 v 18.663 c 5.542,-2.275 12.057,-3.588 19.031,-3.588 z"
   id="path132" />
		<path
   style="fill:url(#swatch177)"
   d="m 182.564,362.187 v 0 c -4.013,0 -7.297,3.284 -7.297,7.297 v 23.072 c 0,4.013 3.284,7.297 7.297,7.297 v 0 c 4.013,0 7.297,-3.284 7.297,-7.297 v -23.072 c 0,-4.013 -3.284,-7.297 -7.297,-7.297 z"
   id="path133" />
		<path
   style="fill:url(#swatch177)"
   d="m 197.158,318.272 v 0 c -4.013,0 -7.297,3.284 -7.297,7.297 v 56.292 c 0,4.013 3.284,7.297 7.297,7.297 v 0 c 4.013,0 7.297,-3.284 7.297,-7.297 v -56.292 c 0,-4.014 -3.283,-7.297 -7.297,-7.297 z"
   id="path134" />
		<path
   style="fill:url(#swatch180)"
   d="m 204.455,374.579 v -49.011 c 0,-2.493 -1.268,-4.703 -3.19,-6.02 z"
   id="path135" />
		<g
   id="g137">
			<path
   style="fill:url(#swatch183)"
   d="m 197.158,321.982 v 0 c -2.79,0 -5.074,2.283 -5.074,5.074 v 2.243 c 0,0 2.283,1.737 5.074,1.737 v 0 c 2.79,0 5.074,-1.737 5.074,-1.737 v -2.243 c 0,-2.791 -2.283,-5.074 -5.074,-5.074 z"
   id="path136" />
			<path
   style="fill:url(#swatch185)"
   d="m 197.158,328.862 c -1.329,0 -2.539,0.522 -3.447,1.366 0.907,0.413 2.117,0.807 3.447,0.807 v 0 c 1.329,0 2.54,-0.395 3.447,-0.807 -0.907,-0.844 -2.118,-1.366 -3.447,-1.366 z"
   id="path137" />
		</g>
		<path
   style="fill:url(#swatch177)"
   d="m 211.752,324.788 v 0 c -4.013,0 -7.297,3.284 -7.297,7.297 v 56.292 c 0,4.013 3.284,7.297 7.297,7.297 v 0 c 4.013,0 7.297,-3.284 7.297,-7.297 v -56.292 c 0,-4.013 -3.283,-7.297 -7.297,-7.297 z"
   id="path138" />
		<path
   style="fill:url(#swatch177)"
   d="m 226.346,333.292 v 0 c -4.013,0 -7.297,3.284 -7.297,7.297 v 56.292 c 0,4.013 3.284,7.297 7.297,7.297 v 0 c 4.013,0 7.297,-3.284 7.297,-7.297 v -56.292 c 0.001,-4.013 -3.283,-7.297 -7.297,-7.297 z"
   id="path139" />
		<path
   style="fill:url(#swatch180)"
   d="m 219.049,374.579 v -42.494 c 0,-2.493 -1.268,-4.703 -3.19,-6.02 z"
   id="path140" />
		<path
   style="fill:url(#swatch180)"
   d="m 233.644,374.579 v -33.991 c 0,-2.493 -1.268,-4.703 -3.19,-6.02 z"
   id="path141" />
		<g
   id="g143">
			<path
   style="fill:url(#swatch183)"
   d="m 211.752,328.765 v 0 c -2.791,0 -5.074,2.283 -5.074,5.073 v 2.243 c 0,0 2.283,1.737 5.073,1.737 v 0 c 2.79,0 5.073,-1.737 5.073,-1.737 v -2.243 c 0.002,-2.79 -2.281,-5.073 -5.072,-5.073 z"
   id="path142" />
			<path
   style="fill:url(#swatch185)"
   d="m 211.752,335.645 c -1.329,0 -2.54,0.522 -3.447,1.366 0.907,0.413 2.117,0.807 3.447,0.807 v 0 c 1.329,0 2.539,-0.395 3.447,-0.807 -0.907,-0.844 -2.117,-1.366 -3.447,-1.366 z"
   id="path143" />
		</g>
		<g
   id="g145">
			<path
   style="fill:url(#swatch183)"
   d="m 226.346,336.732 v 0 c -2.79,0 -5.074,2.283 -5.074,5.073 v 2.243 c 0,0 2.283,1.737 5.074,1.737 v 0 c 2.79,0 5.074,-1.737 5.074,-1.737 v -2.243 c 0,-2.79 -2.283,-5.073 -5.074,-5.073 z"
   id="path144" />
			<path
   style="fill:url(#swatch185)"
   d="m 226.346,343.612 c -1.329,0 -2.539,0.522 -3.447,1.366 0.907,0.413 2.117,0.807 3.447,0.807 v 0 c 1.329,0 2.54,-0.395 3.447,-0.807 -0.907,-0.844 -2.117,-1.366 -3.447,-1.366 z"
   id="path145" />
		</g>
		<path
   style="fill:url(#swatch177)"
   d="m 211.533,424.331 h -15.945 c -11.177,0 -20.321,-9.145 -20.321,-20.322 v -21.627 c 0,-4.71 3.853,-8.563 8.563,-8.563 h 41.25 c 4.71,0 8.563,3.853 8.563,8.563 v 19.838 c 0.001,12.161 -9.949,22.111 -22.11,22.111 z"
   id="path146" />
	</g>
	<g
   id="g158"
   inkscape:label="two">
		<path
   style="fill:url(#swatch180)"
   d="m 268.805,392.406 v 0 c -2.148,2.148 -2.148,5.662 0,7.809 l 16.331,16.331 c 2.855,2.855 7.528,2.855 10.383,0 l 0.068,-0.068 c 2.855,-2.855 2.855,-7.528 0,-10.383 l -13.689,-13.689 c -3.6,-3.6 -9.492,-3.6 -13.093,0 z"
   id="path147" />
		<path
   style="fill:url(#swatch180)"
   d="m 293.204,380.286 v 0 c -2.148,-2.148 -5.91,-2.45 -8.362,-0.671 l -15.196,11.025 c -3.259,2.365 -3.59,6.636 -0.735,9.491 l 0.068,0.068 c 2.855,2.855 7.859,3.257 11.118,0.892 l 12.18,-8.837 c 4.11,-2.982 4.527,-8.367 0.927,-11.968 z"
   id="path148" />
		<rect
   x="289.12201"
   y="411.978"
   style="fill:url(#swatch177)"
   width="38.055"
   height="33.271"
   id="rect148" />
		<path
   style="fill:url(#swatch180)"
   d="m 308.294,427.192 c 6.971,0 13.485,1.312 19.024,3.585 v -18.66 h -38.055 v 18.663 c 5.542,-2.275 12.057,-3.588 19.031,-3.588 z"
   id="path149" />
		<path
   style="fill:url(#swatch177)"
   d="m 276.967,322.506 v 0 c -3.968,0.599 -6.725,4.336 -6.126,8.305 l 8.403,55.661 c 0.599,3.969 4.336,6.725 8.305,6.126 v 0 c 3.968,-0.599 6.725,-4.336 6.126,-8.305 l -8.403,-55.661 c -0.599,-3.969 -4.336,-6.725 -8.305,-6.126 z"
   id="path150" />
		<g
   id="g152">
			<path
   style="fill:url(#swatch183)"
   d="m 277.451,325.707 v 0 c -2.759,0.417 -4.676,3.015 -4.259,5.774 l 0.335,2.217 c 0,0 2.517,1.377 5.276,0.96 v 0 c 2.759,-0.417 4.757,-2.475 4.757,-2.475 l -0.335,-2.217 c -0.417,-2.759 -3.015,-4.675 -5.774,-4.259 z"
   id="path151" />
			<path
   style="fill:url(#swatch185)"
   d="m 278.478,332.51 c -1.314,0.199 -2.433,0.895 -3.204,1.865 0.958,0.273 2.214,0.482 3.528,0.284 v 0 c 1.314,-0.198 2.452,-0.769 3.287,-1.313 -1.022,-0.699 -2.297,-1.035 -3.611,-0.836 z"
   id="path152" />
		</g>
		<path
   style="fill:url(#swatch177)"
   d="m 315.192,359.791 h -0.527 c -4.153,0 -7.552,3.398 -7.552,7.552 v 22.563 c 0,4.153 3.398,7.552 7.552,7.552 h 0.527 c 4.153,0 7.552,-3.398 7.552,-7.552 v -22.563 c 0,-4.154 -3.398,-7.552 -7.552,-7.552 z"
   id="path153" />
		<path
   style="fill:url(#swatch177)"
   d="m 330.041,363.791 v 0 c -4.013,0 -7.297,3.284 -7.297,7.297 v 23.072 c 0,4.013 3.284,7.297 7.297,7.297 v 0 c 4.013,0 7.297,-3.284 7.297,-7.297 v -23.072 c 0,-4.013 -3.284,-7.297 -7.297,-7.297 z"
   id="path154" />
		<path
   style="fill:url(#swatch177)"
   d="m 304.048,319.59 v 0 c -4.003,-0.288 -7.514,2.751 -7.802,6.754 l -4.043,56.146 c -0.288,4.003 2.751,7.514 6.754,7.802 v 0 c 4.003,0.288 7.514,-2.751 7.802,-6.754 l 4.043,-56.146 c 0.289,-4.003 -2.751,-7.514 -6.754,-7.802 z"
   id="path155" />
		<g
   id="g157">
			<path
   style="fill:url(#swatch183)"
   d="m 303.801,323.021 v 0 c -2.783,-0.2 -5.224,1.913 -5.425,4.696 l -0.161,2.237 c 0,0 2.152,1.897 4.936,2.097 v 0 c 2.783,0.2 5.185,-1.368 5.185,-1.368 l 0.161,-2.237 c 0.201,-2.784 -1.913,-5.225 -4.696,-5.425 z"
   id="path156" />
			<path
   style="fill:url(#swatch185)"
   d="m 303.307,329.883 c -1.326,-0.095 -2.57,0.338 -3.536,1.115 0.875,0.477 2.054,0.957 3.38,1.053 v 0 c 1.326,0.095 2.561,-0.211 3.496,-0.558 -0.844,-0.907 -2.014,-1.515 -3.34,-1.61 z"
   id="path157" />
		</g>
		<path
   style="fill:url(#swatch177)"
   d="m 315.228,422.935 h -15.945 c -11.177,0 -20.322,-9.145 -20.322,-20.322 v -21.627 c 0,-4.71 3.853,-8.563 8.563,-8.563 h 41.25 c 4.71,0 8.563,3.854 8.563,8.563 v 19.838 c 0.001,12.161 -9.949,22.111 -22.109,22.111 z"
   id="path158" />
	</g>
	<g
   id="g172"
   inkscape:label="three">
		<path
   style="fill:url(#swatch180)"
   d="m 377.963,252.996 v 0 c -2.148,2.148 -2.148,5.662 0,7.809 l 16.331,16.331 c 2.855,2.855 7.528,2.855 10.383,0 l 0.068,-0.068 c 2.855,-2.855 2.855,-7.528 0,-10.383 l -13.689,-13.689 c -3.6,-3.601 -9.492,-3.601 -13.093,0 z"
   id="path159" />
		<path
   style="fill:url(#swatch180)"
   d="m 402.362,240.875 v 0 c -2.148,-2.148 -5.911,-2.449 -8.362,-0.671 l -15.196,11.025 c -3.259,2.365 -3.59,6.636 -0.735,9.491 l 0.068,0.068 c 2.855,2.855 7.859,3.257 11.118,0.892 l 12.18,-8.837 c 4.11,-2.981 4.527,-8.367 0.927,-11.968 z"
   id="path160" />
		<rect
   x="398.28"
   y="272.56699"
   style="fill:url(#swatch177)"
   width="38.055"
   height="33.271"
   id="rect160" />
		<path
   style="fill:url(#swatch180)"
   d="m 417.311,288.173 c 6.971,0 13.485,1.312 19.024,3.585 v -18.66 H 398.28 v 18.663 c 5.541,-2.275 12.057,-3.588 19.031,-3.588 z"
   id="path161" />
		<path
   style="fill:url(#swatch177)"
   d="m 386.125,183.095 v 0 c -3.968,0.599 -6.725,4.336 -6.126,8.305 l 8.403,55.661 c 0.599,3.968 4.336,6.725 8.305,6.126 v 0 c 3.969,-0.599 6.725,-4.336 6.126,-8.305 l -8.403,-55.661 c -0.599,-3.968 -4.336,-6.725 -8.305,-6.126 z"
   id="path162" />
		<g
   id="g164">
			<path
   style="fill:url(#swatch183)"
   d="m 386.609,186.297 v 0 c -2.759,0.416 -4.676,3.015 -4.259,5.774 l 0.335,2.217 c 0,0 2.517,1.377 5.276,0.96 v 0 c 2.759,-0.416 4.757,-2.475 4.757,-2.475 l -0.335,-2.218 c -0.417,-2.758 -3.015,-4.675 -5.774,-4.258 z"
   id="path163" />
			<path
   style="fill:url(#swatch185)"
   d="m 387.636,193.1 c -1.314,0.198 -2.433,0.895 -3.204,1.865 0.958,0.273 2.214,0.482 3.528,0.284 v 0 c 1.314,-0.198 2.452,-0.769 3.287,-1.313 -1.022,-0.699 -2.297,-1.035 -3.611,-0.836 z"
   id="path164" />
		</g>
		<path
   style="fill:url(#swatch177)"
   d="m 438.497,224.381 v 0 c -4.399,0 -7.999,3.6 -7.999,7.999 v 21.668 c 0,4.399 3.599,7.999 7.999,7.999 v 0 c 4.399,0 7.999,-3.599 7.999,-7.999 V 232.38 c 0,-4.4 -3.6,-7.999 -7.999,-7.999 z"
   id="path165" />
		<path
   style="fill:url(#swatch177)"
   d="m 426.775,180.179 v 0 c -4.003,-0.288 -7.514,2.751 -7.802,6.754 l -4.043,56.146 c -0.288,4.003 2.751,7.514 6.754,7.802 v 0 c 4.003,0.288 7.514,-2.751 7.802,-6.754 l 4.043,-56.146 c 0.289,-4.002 -2.751,-7.514 -6.754,-7.802 z"
   id="path166" />
		<g
   id="g168">
			<path
   style="fill:url(#swatch183)"
   d="m 426.528,183.61 v 0 c -2.783,-0.2 -5.224,1.913 -5.425,4.696 l -0.161,2.237 c 0,0 2.152,1.897 4.936,2.097 v 0 c 2.783,0.2 5.185,-1.368 5.185,-1.368 l 0.161,-2.237 c 0.201,-2.783 -1.912,-5.224 -4.696,-5.425 z"
   id="path167" />
			<path
   style="fill:url(#swatch185)"
   d="m 426.034,190.473 c -1.326,-0.096 -2.57,0.338 -3.536,1.115 0.875,0.477 2.054,0.957 3.38,1.053 v 0 c 1.326,0.095 2.561,-0.211 3.496,-0.558 -0.844,-0.907 -2.014,-1.515 -3.34,-1.61 z"
   id="path168" />
		</g>
		<path
   style="fill:url(#swatch177)"
   d="m 408.01,174.333 v 0 c -4.013,0 -7.297,3.284 -7.297,7.297 v 56.292 c 0,4.013 3.284,7.297 7.297,7.297 v 0 c 4.013,0 7.297,-3.284 7.297,-7.297 V 181.63 c 0,-4.014 -3.283,-7.297 -7.297,-7.297 z"
   id="path169" />
		<g
   id="g171">
			<path
   style="fill:url(#swatch183)"
   d="m 408.01,177.57 v 0 c -2.79,0 -5.073,2.283 -5.073,5.074 v 2.243 c 0,0 2.283,1.737 5.073,1.737 v 0 c 2.79,0 5.074,-1.737 5.074,-1.737 v -2.243 c 0,-2.791 -2.283,-5.074 -5.074,-5.074 z"
   id="path170" />
			<path
   style="fill:url(#swatch185)"
   d="m 408.01,184.45 c -1.329,0 -2.539,0.522 -3.447,1.366 0.907,0.413 2.117,0.807 3.447,0.807 v 0 c 1.329,0 2.539,-0.395 3.447,-0.807 -0.907,-0.844 -2.117,-1.366 -3.447,-1.366 z"
   id="path171" />
		</g>
		<path
   style="fill:url(#swatch177)"
   d="m 424.386,283.524 h -15.945 c -11.177,0 -20.322,-9.145 -20.322,-20.321 v -21.627 c 0,-4.71 3.853,-8.563 8.563,-8.563 h 41.25 c 4.71,0 8.563,3.853 8.563,8.563 v 19.838 c 10e-4,12.16 -9.949,22.11 -22.109,22.11 z"
   id="path172"
   inkscape:label="path172" />
	</g>
</g>
<g
   id="DESIGNED_BY_FREEPIK"
   style="display:none">
	<g
   id="XMLID_76_">
		<g
   id="XMLID_929_">
			<path
   id="XMLID_958_"
   style="fill:#ffffff"
   d="m 181.087,472.134 c -0.246,0 -0.435,0.085 -0.567,0.255 -0.133,0.17 -0.199,0.421 -0.199,0.753 v 2.393 c -0.304,-0.332 -0.617,-0.579 -0.937,-0.739 -0.321,-0.159 -0.715,-0.24 -1.182,-0.24 -0.807,0 -1.458,0.283 -1.953,0.849 -0.494,0.566 -0.742,1.355 -0.742,2.369 0,0.479 0.063,0.923 0.188,1.335 0.124,0.412 0.307,0.77 0.549,1.074 0.241,0.305 0.526,0.539 0.857,0.703 0.33,0.164 0.689,0.246 1.078,0.246 0.293,0 0.563,-0.04 0.809,-0.122 0.247,-0.08 0.477,-0.199 0.689,-0.356 0.212,-0.155 0.426,-0.358 0.644,-0.607 v 0.16 c 0,0.297 0.072,0.525 0.217,0.685 0.145,0.16 0.328,0.24 0.549,0.24 0.226,0 0.409,-0.077 0.552,-0.231 0.143,-0.154 0.213,-0.386 0.213,-0.694 v -7.147 c 0,-0.305 -0.066,-0.534 -0.199,-0.69 -0.133,-0.158 -0.321,-0.236 -0.566,-0.236 z m -1.066,6.841 c -0.141,0.306 -0.329,0.533 -0.563,0.682 -0.236,0.148 -0.496,0.223 -0.781,0.223 -0.28,0 -0.539,-0.078 -0.777,-0.236 -0.237,-0.154 -0.424,-0.387 -0.561,-0.695 -0.136,-0.31 -0.205,-0.683 -0.205,-1.122 0,-0.415 0.063,-0.78 0.193,-1.096 0.128,-0.314 0.31,-0.556 0.543,-0.724 0.233,-0.168 0.499,-0.252 0.795,-0.252 0.285,0 0.547,0.082 0.787,0.245 0.239,0.165 0.429,0.402 0.569,0.713 0.141,0.311 0.21,0.682 0.21,1.113 0.001,0.457 -0.068,0.841 -0.21,1.149 z" />
			<path
   id="XMLID_954_"
   style="fill:#ffffff"
   d="m 188.452,478.054 c 0.233,-0.122 0.35,-0.385 0.35,-0.793 0,-0.438 -0.113,-0.87 -0.338,-1.294 -0.225,-0.423 -0.564,-0.769 -1.019,-1.035 -0.453,-0.268 -0.996,-0.399 -1.628,-0.399 -0.487,0 -0.93,0.077 -1.33,0.233 -0.4,0.156 -0.737,0.381 -1.01,0.674 -0.272,0.293 -0.48,0.643 -0.623,1.054 -0.143,0.409 -0.213,0.853 -0.213,1.332 0,1.017 0.289,1.822 0.867,2.415 0.577,0.593 1.387,0.891 2.427,0.891 0.456,0 0.858,-0.06 1.207,-0.178 0.352,-0.12 0.641,-0.268 0.874,-0.448 0.231,-0.181 0.404,-0.368 0.519,-0.565 0.115,-0.196 0.172,-0.366 0.172,-0.514 0,-0.166 -0.052,-0.294 -0.155,-0.386 -0.103,-0.09 -0.237,-0.137 -0.403,-0.137 -0.154,0 -0.273,0.036 -0.356,0.107 -0.203,0.19 -0.366,0.34 -0.492,0.451 -0.126,0.111 -0.265,0.216 -0.415,0.313 -0.15,0.098 -0.305,0.167 -0.466,0.214 -0.16,0.044 -0.337,0.067 -0.531,0.067 -0.289,0 -0.553,-0.07 -0.792,-0.213 -0.239,-0.143 -0.432,-0.355 -0.576,-0.636 -0.144,-0.281 -0.219,-0.605 -0.222,-0.974 h 3.168 c 0.423,10e-4 0.752,-0.059 0.985,-0.179 z m -4.155,-0.739 c 0.055,-0.547 0.212,-0.96 0.472,-1.238 0.259,-0.28 0.59,-0.418 0.994,-0.418 0.423,0 0.764,0.137 1.024,0.411 0.259,0.275 0.409,0.69 0.448,1.245 z" />
			<path
   id="XMLID_952_"
   style="fill:#ffffff"
   d="m 193.878,477.617 c -0.319,-0.17 -0.729,-0.316 -1.231,-0.439 -0.424,-0.104 -0.756,-0.19 -0.997,-0.261 -0.242,-0.07 -0.434,-0.161 -0.576,-0.27 -0.143,-0.108 -0.213,-0.247 -0.213,-0.418 0,-0.186 0.097,-0.342 0.291,-0.465 0.194,-0.126 0.437,-0.188 0.73,-0.188 0.286,0 0.511,0.047 0.677,0.142 0.166,0.096 0.31,0.223 0.433,0.381 0.151,0.189 0.284,0.331 0.401,0.426 0.116,0.096 0.258,0.144 0.424,0.144 0.23,0 0.407,-0.061 0.532,-0.178 0.124,-0.119 0.187,-0.271 0.187,-0.457 0,-0.171 -0.058,-0.345 -0.175,-0.523 -0.116,-0.178 -0.286,-0.34 -0.51,-0.485 -0.223,-0.147 -0.502,-0.265 -0.837,-0.351 -0.333,-0.088 -0.71,-0.131 -1.13,-0.131 -0.535,0 -0.99,0.085 -1.367,0.259 -0.378,0.172 -0.665,0.402 -0.859,0.69 -0.194,0.289 -0.291,0.597 -0.291,0.92 0,0.364 0.105,0.671 0.315,0.921 0.21,0.249 0.489,0.45 0.839,0.602 0.351,0.152 0.804,0.298 1.362,0.435 0.494,0.12 0.849,0.244 1.066,0.375 0.216,0.131 0.323,0.338 0.323,0.622 0,0.187 -0.104,0.352 -0.311,0.497 -0.208,0.144 -0.474,0.216 -0.798,0.216 -0.4,0 -0.715,-0.07 -0.947,-0.213 -0.232,-0.144 -0.431,-0.357 -0.597,-0.647 -0.082,-0.149 -0.169,-0.267 -0.261,-0.351 -0.091,-0.082 -0.221,-0.124 -0.39,-0.124 -0.194,0 -0.355,0.064 -0.481,0.19 -0.128,0.126 -0.191,0.278 -0.191,0.456 0,0.27 0.099,0.537 0.296,0.805 0.198,0.267 0.505,0.489 0.92,0.667 0.415,0.179 0.914,0.268 1.495,0.268 0.609,0 1.127,-0.082 1.552,-0.246 0.425,-0.164 0.747,-0.405 0.964,-0.725 0.218,-0.318 0.326,-0.701 0.326,-1.148 0,-0.297 -0.081,-0.56 -0.246,-0.792 -0.165,-0.233 -0.407,-0.434 -0.725,-0.604 z" />
			<path
   id="XMLID_950_"
   style="fill:#ffffff"
   d="m 196.486,474.543 c -0.238,0 -0.431,0.081 -0.579,0.243 -0.149,0.162 -0.222,0.404 -0.222,0.724 v 4.636 c 0,0.316 0.073,0.56 0.222,0.73 0.148,0.17 0.341,0.255 0.579,0.255 0.238,0 0.433,-0.083 0.588,-0.249 0.154,-0.166 0.232,-0.412 0.232,-0.736 v -4.683 c 0,-0.288 -0.078,-0.515 -0.232,-0.677 -0.155,-0.162 -0.35,-0.243 -0.588,-0.243 z" />
			<path
   id="XMLID_949_"
   style="fill:#ffffff"
   d="m 196.504,472.204 c -0.217,0 -0.409,0.073 -0.573,0.223 -0.165,0.149 -0.246,0.337 -0.246,0.567 0,0.254 0.08,0.449 0.24,0.588 0.16,0.138 0.353,0.208 0.579,0.208 0.217,0 0.405,-0.071 0.563,-0.212 0.158,-0.14 0.238,-0.335 0.238,-0.584 0,-0.258 -0.081,-0.453 -0.244,-0.588 -0.161,-0.134 -0.347,-0.202 -0.557,-0.202 z" />
			<path
   id="XMLID_945_"
   style="fill:#ffffff"
   d="m 203.626,474.543 c -0.217,0 -0.396,0.077 -0.535,0.231 -0.139,0.154 -0.208,0.372 -0.208,0.652 v 0.221 c -0.289,-0.376 -0.602,-0.651 -0.938,-0.829 -0.337,-0.175 -0.734,-0.264 -1.193,-0.264 -0.384,0 -0.736,0.068 -1.056,0.204 -0.321,0.138 -0.604,0.34 -0.849,0.609 -0.245,0.268 -0.433,0.599 -0.566,0.991 -0.133,0.392 -0.199,0.831 -0.199,1.317 0,0.653 0.108,1.228 0.327,1.728 0.217,0.498 0.529,0.886 0.934,1.163 0.406,0.276 0.88,0.415 1.422,0.415 0.45,0 0.839,-0.091 1.166,-0.272 0.327,-0.182 0.614,-0.447 0.864,-0.797 -0.008,0.531 -0.02,0.916 -0.036,1.155 -0.016,0.24 -0.07,0.465 -0.164,0.674 -0.093,0.209 -0.255,0.373 -0.486,0.489 -0.232,0.117 -0.557,0.176 -0.977,0.176 -0.205,0 -0.387,-0.02 -0.545,-0.057 -0.159,-0.038 -0.294,-0.095 -0.406,-0.171 -0.112,-0.078 -0.216,-0.171 -0.309,-0.28 -0.093,-0.108 -0.183,-0.217 -0.27,-0.323 -0.178,-0.21 -0.386,-0.315 -0.624,-0.315 -0.189,0 -0.352,0.062 -0.486,0.188 -0.135,0.123 -0.202,0.284 -0.202,0.482 0,0.262 0.119,0.516 0.356,0.764 0.238,0.247 0.576,0.448 1.014,0.605 0.439,0.155 0.938,0.233 1.496,0.233 0.609,0 1.119,-0.061 1.528,-0.184 0.409,-0.122 0.741,-0.311 0.994,-0.563 0.253,-0.254 0.438,-0.574 0.551,-0.961 0.115,-0.389 0.173,-0.852 0.173,-1.39 v -4.706 c 0,-0.384 -0.051,-0.678 -0.155,-0.882 -0.101,-0.2 -0.309,-0.303 -0.621,-0.303 z m -1.026,4.365 c -0.151,0.291 -0.346,0.508 -0.586,0.653 -0.239,0.144 -0.493,0.217 -0.762,0.217 -0.455,0 -0.826,-0.168 -1.113,-0.505 -0.287,-0.336 -0.431,-0.834 -0.431,-1.49 0,-0.648 0.139,-1.149 0.419,-1.501 0.279,-0.352 0.649,-0.528 1.113,-0.528 0.475,0 0.858,0.184 1.148,0.553 0.291,0.367 0.437,0.882 0.437,1.542 0,0.416 -0.076,0.768 -0.225,1.059 z" />
			<path
   id="XMLID_944_"
   style="fill:#ffffff"
   d="m 210.978,475.61 c -0.165,-0.339 -0.418,-0.602 -0.753,-0.788 -0.337,-0.187 -0.718,-0.279 -1.146,-0.279 -0.439,0 -0.828,0.088 -1.166,0.264 -0.338,0.177 -0.65,0.452 -0.935,0.828 v -0.195 c 0,-0.193 -0.034,-0.358 -0.104,-0.493 -0.069,-0.134 -0.162,-0.234 -0.276,-0.302 -0.114,-0.068 -0.244,-0.102 -0.387,-0.102 -0.233,0 -0.416,0.076 -0.552,0.229 -0.134,0.152 -0.201,0.383 -0.201,0.691 v 4.683 c 0,0.316 0.076,0.56 0.226,0.73 0.15,0.17 0.342,0.255 0.576,0.255 0.241,0 0.438,-0.082 0.59,-0.246 0.152,-0.164 0.228,-0.411 0.228,-0.739 v -2.03 c 0,-0.66 0.04,-1.11 0.119,-1.353 0.11,-0.3 0.284,-0.537 0.522,-0.71 0.237,-0.172 0.5,-0.258 0.788,-0.258 0.444,0 0.74,0.143 0.888,0.425 0.148,0.282 0.223,0.691 0.223,1.226 v 2.7 c 0,0.316 0.074,0.56 0.226,0.73 0.15,0.17 0.346,0.255 0.587,0.255 0.238,0 0.431,-0.083 0.578,-0.249 0.149,-0.166 0.224,-0.412 0.224,-0.736 v -3.016 c 0,-0.357 -0.017,-0.648 -0.048,-0.878 -0.03,-0.229 -0.1,-0.443 -0.207,-0.642 z" />
			<path
   id="XMLID_939_"
   style="fill:#ffffff"
   d="m 217.821,478.054 c 0.233,-0.122 0.35,-0.385 0.35,-0.793 0,-0.438 -0.113,-0.87 -0.338,-1.294 -0.226,-0.423 -0.565,-0.769 -1.019,-1.035 -0.453,-0.268 -0.996,-0.399 -1.628,-0.399 -0.487,0 -0.93,0.077 -1.33,0.233 -0.4,0.156 -0.736,0.381 -1.009,0.674 -0.273,0.293 -0.481,0.643 -0.624,1.054 -0.142,0.409 -0.213,0.853 -0.213,1.332 0,1.017 0.289,1.822 0.866,2.415 0.578,0.593 1.387,0.891 2.428,0.891 0.455,0 0.858,-0.06 1.208,-0.178 0.351,-0.12 0.64,-0.268 0.872,-0.448 0.232,-0.181 0.405,-0.368 0.52,-0.565 0.114,-0.196 0.172,-0.366 0.172,-0.514 0,-0.166 -0.051,-0.294 -0.154,-0.386 -0.103,-0.09 -0.238,-0.137 -0.404,-0.137 -0.154,0 -0.273,0.036 -0.356,0.107 -0.201,0.19 -0.366,0.34 -0.492,0.451 -0.128,0.111 -0.266,0.216 -0.415,0.313 -0.151,0.098 -0.307,0.167 -0.466,0.214 -0.161,0.044 -0.338,0.067 -0.532,0.067 -0.288,0 -0.553,-0.07 -0.792,-0.213 -0.239,-0.143 -0.431,-0.355 -0.575,-0.636 -0.145,-0.281 -0.219,-0.605 -0.223,-0.974 h 3.169 c 0.424,10e-4 0.752,-0.059 0.985,-0.179 z m -4.155,-0.739 c 0.056,-0.547 0.212,-0.96 0.471,-1.238 0.259,-0.28 0.591,-0.418 0.995,-0.418 0.423,0 0.765,0.137 1.024,0.411 0.259,0.275 0.409,0.69 0.448,1.245 z" />
			<path
   id="XMLID_936_"
   style="fill:#ffffff"
   d="m 224.206,472.134 c -0.245,0 -0.434,0.085 -0.567,0.255 -0.132,0.17 -0.199,0.421 -0.199,0.753 v 2.393 c -0.304,-0.332 -0.617,-0.579 -0.938,-0.739 -0.32,-0.159 -0.714,-0.24 -1.181,-0.24 -0.808,0 -1.458,0.283 -1.953,0.849 -0.495,0.566 -0.741,1.355 -0.741,2.369 0,0.479 0.062,0.923 0.187,1.335 0.125,0.412 0.308,0.77 0.549,1.074 0.241,0.305 0.527,0.539 0.857,0.703 0.33,0.164 0.689,0.246 1.077,0.246 0.293,0 0.563,-0.04 0.81,-0.122 0.248,-0.08 0.476,-0.199 0.689,-0.356 0.211,-0.155 0.426,-0.358 0.643,-0.607 v 0.16 c 0,0.297 0.072,0.525 0.217,0.685 0.145,0.16 0.328,0.24 0.549,0.24 0.226,0 0.41,-0.077 0.552,-0.231 0.143,-0.154 0.213,-0.386 0.213,-0.694 v -7.147 c 0,-0.305 -0.065,-0.534 -0.199,-0.69 -0.13,-0.158 -0.319,-0.236 -0.565,-0.236 z m -1.065,6.841 c -0.14,0.306 -0.328,0.533 -0.564,0.682 -0.235,0.148 -0.495,0.223 -0.781,0.223 -0.281,0 -0.54,-0.078 -0.776,-0.236 -0.238,-0.154 -0.425,-0.387 -0.562,-0.695 -0.137,-0.31 -0.205,-0.683 -0.205,-1.122 0,-0.415 0.064,-0.78 0.193,-1.096 0.129,-0.314 0.31,-0.556 0.543,-0.724 0.233,-0.168 0.499,-0.252 0.795,-0.252 0.285,0 0.547,0.082 0.787,0.245 0.239,0.165 0.43,0.402 0.57,0.713 0.14,0.311 0.21,0.682 0.21,1.113 0.001,0.457 -0.07,0.841 -0.21,1.149 z" />
			<path
   id="XMLID_933_"
   style="fill:#ffffff"
   d="m 233.586,474.938 c -0.406,-0.255 -0.877,-0.383 -1.415,-0.383 -0.467,0 -0.859,0.084 -1.175,0.252 -0.317,0.168 -0.627,0.411 -0.932,0.728 v -2.476 c 0,-0.297 -0.068,-0.524 -0.202,-0.686 -0.135,-0.159 -0.326,-0.239 -0.576,-0.239 -0.237,0 -0.423,0.084 -0.555,0.252 -0.133,0.168 -0.198,0.416 -0.198,0.744 v 7.075 c 0,0.305 0.068,0.535 0.205,0.692 0.136,0.156 0.319,0.233 0.549,0.233 0.226,0 0.412,-0.077 0.558,-0.233 0.146,-0.157 0.22,-0.388 0.22,-0.692 v -0.16 c 0.178,0.205 0.322,0.36 0.43,0.463 0.109,0.103 0.241,0.203 0.395,0.3 0.154,0.098 0.341,0.175 0.561,0.234 0.22,0.06 0.454,0.089 0.704,0.089 0.407,0 0.781,-0.082 1.119,-0.246 0.338,-0.164 0.626,-0.397 0.864,-0.698 0.237,-0.3 0.418,-0.655 0.543,-1.064 0.124,-0.41 0.187,-0.859 0.187,-1.35 0,-0.665 -0.112,-1.241 -0.336,-1.725 -0.227,-0.484 -0.541,-0.855 -0.946,-1.11 z m -0.79,4.41 c -0.295,0.354 -0.646,0.531 -1.053,0.531 -0.479,0 -0.866,-0.174 -1.161,-0.521 -0.295,-0.346 -0.442,-0.841 -0.442,-1.486 0,-0.44 0.069,-0.818 0.207,-1.136 0.138,-0.319 0.328,-0.563 0.57,-0.73 0.24,-0.168 0.516,-0.252 0.825,-0.252 0.3,0 0.563,0.084 0.789,0.252 0.225,0.168 0.399,0.406 0.521,0.716 0.123,0.308 0.184,0.677 0.184,1.103 0.002,0.661 -0.146,1.168 -0.44,1.523 z" />
			<path
   id="XMLID_931_"
   style="fill:#ffffff"
   d="m 240.529,474.641 c -0.112,-0.065 -0.23,-0.098 -0.353,-0.098 -0.171,0 -0.302,0.029 -0.395,0.09 -0.093,0.058 -0.181,0.173 -0.264,0.344 -0.083,0.17 -0.176,0.406 -0.279,0.705 l -1.3,3.71 -1.371,-3.988 c -0.091,-0.277 -0.195,-0.489 -0.314,-0.638 -0.119,-0.148 -0.295,-0.223 -0.529,-0.223 -0.135,0 -0.264,0.035 -0.389,0.107 -0.124,0.07 -0.222,0.166 -0.294,0.285 -0.071,0.117 -0.107,0.246 -0.107,0.385 0,0.131 0.062,0.341 0.184,0.629 l 1.995,5.022 -0.148,0.362 c -0.111,0.265 -0.208,0.466 -0.294,0.601 -0.085,0.139 -0.181,0.234 -0.288,0.289 -0.107,0.056 -0.254,0.084 -0.44,0.084 -0.075,0 -0.163,-0.013 -0.266,-0.036 -0.083,-0.024 -0.168,-0.036 -0.256,-0.036 -0.221,0 -0.388,0.051 -0.501,0.151 -0.113,0.101 -0.169,0.245 -0.169,0.431 0,0.272 0.119,0.461 0.356,0.564 0.237,0.103 0.593,0.153 1.068,0.153 0.487,0 0.873,-0.073 1.161,-0.223 0.287,-0.147 0.517,-0.361 0.691,-0.638 0.174,-0.277 0.353,-0.659 0.535,-1.146 l 2.113,-5.531 c 0.051,-0.143 0.095,-0.283 0.13,-0.421 0.037,-0.14 0.061,-0.246 0.078,-0.321 0,-0.123 -0.032,-0.239 -0.093,-0.35 -0.061,-0.11 -0.148,-0.198 -0.261,-0.263 z" />
		</g>
		<g
   id="XMLID_365_">
			<g
   id="XMLID_380_">
				<path
   id="XMLID_928_"
   style="fill:#ffffff"
   d="m 262.93,472.129 c -0.533,0 -0.954,0.068 -1.26,0.204 -0.308,0.137 -0.527,0.354 -0.654,0.652 -0.13,0.301 -0.191,0.702 -0.191,1.211 v 0.487 h -0.387 c -0.543,0 -0.815,0.191 -0.815,0.582 0,0.174 0.065,0.315 0.196,0.423 0.132,0.111 0.316,0.164 0.559,0.164 h 0.446 v 4.294 c 0,0.318 0.074,0.563 0.228,0.729 0.154,0.17 0.344,0.254 0.573,0.254 0.243,0 0.438,-0.084 0.589,-0.254 0.155,-0.167 0.23,-0.411 0.23,-0.729 v -4.294 h 0.396 c 0.291,0 0.517,-0.035 0.681,-0.107 0.166,-0.071 0.245,-0.24 0.245,-0.503 0,-0.373 -0.307,-0.559 -0.926,-0.559 h -0.396 v -0.387 c 0,-0.321 0.043,-0.567 0.122,-0.739 0.087,-0.172 0.273,-0.26 0.565,-0.26 0.108,0 0.241,0.014 0.39,0.034 0.155,0.026 0.268,0.038 0.33,0.038 0.134,0 0.252,-0.055 0.348,-0.16 0.102,-0.107 0.15,-0.235 0.15,-0.385 0.001,-0.466 -0.47,-0.695 -1.419,-0.695 z" />
				<path
   id="XMLID_926_"
   style="fill:#ffffff"
   d="m 268.089,474.795 c -0.32,-0.171 -0.648,-0.255 -0.99,-0.255 -0.342,0 -0.61,0.084 -0.818,0.255 -0.202,0.171 -0.4,0.421 -0.592,0.755 -0.015,-0.334 -0.08,-0.584 -0.199,-0.755 -0.119,-0.171 -0.313,-0.255 -0.583,-0.255 -0.525,0 -0.788,0.364 -0.788,1.093 v 4.514 c 0,0.323 0.078,0.568 0.226,0.732 0.149,0.169 0.34,0.251 0.579,0.251 0.236,0 0.432,-0.081 0.586,-0.247 0.15,-0.163 0.233,-0.41 0.233,-0.736 v -1.356 c 0,-0.486 0.014,-0.899 0.045,-1.238 0.033,-0.337 0.09,-0.631 0.17,-0.878 0.084,-0.243 0.201,-0.425 0.353,-0.554 0.149,-0.122 0.345,-0.186 0.582,-0.186 0.172,0 0.374,0.036 0.602,0.108 0.227,0.073 0.371,0.112 0.434,0.112 0.157,0 0.304,-0.064 0.44,-0.194 0.135,-0.126 0.204,-0.292 0.204,-0.488 -0.002,-0.281 -0.162,-0.507 -0.484,-0.678 z" />
				<path
   id="XMLID_922_"
   style="fill:#ffffff"
   d="m 274.176,478.052 c 0.233,-0.122 0.351,-0.385 0.351,-0.791 0,-0.44 -0.112,-0.87 -0.339,-1.296 -0.222,-0.423 -0.565,-0.77 -1.018,-1.033 -0.453,-0.27 -0.997,-0.403 -1.629,-0.403 -0.488,0 -0.931,0.078 -1.329,0.232 -0.402,0.157 -0.735,0.381 -1.008,0.675 -0.275,0.295 -0.484,0.644 -0.624,1.055 -0.145,0.41 -0.218,0.854 -0.218,1.333 0,1.017 0.293,1.823 0.87,2.418 0.576,0.593 1.385,0.889 2.429,0.889 0.453,0 0.857,-0.061 1.207,-0.179 0.349,-0.117 0.64,-0.269 0.874,-0.446 0.232,-0.182 0.404,-0.368 0.522,-0.566 0.111,-0.194 0.167,-0.365 0.167,-0.512 0,-0.167 -0.048,-0.294 -0.152,-0.386 -0.104,-0.093 -0.237,-0.139 -0.405,-0.139 -0.152,0 -0.271,0.038 -0.355,0.108 -0.202,0.189 -0.367,0.34 -0.493,0.449 -0.128,0.113 -0.264,0.218 -0.415,0.313 -0.15,0.097 -0.307,0.17 -0.466,0.213 -0.16,0.048 -0.336,0.069 -0.531,0.069 -0.29,0 -0.552,-0.07 -0.792,-0.212 -0.24,-0.145 -0.431,-0.357 -0.578,-0.636 -0.145,-0.28 -0.216,-0.606 -0.222,-0.974 h 3.171 c 0.422,0 0.749,-0.06 0.983,-0.181 z m -4.156,-0.739 c 0.055,-0.546 0.213,-0.957 0.472,-1.236 0.26,-0.28 0.592,-0.418 0.995,-0.418 0.426,0 0.764,0.136 1.024,0.412 0.261,0.273 0.407,0.688 0.446,1.242 z" />
				<path
   id="XMLID_919_"
   style="fill:#ffffff"
   d="m 280.916,478.052 c 0.232,-0.122 0.352,-0.385 0.352,-0.791 0,-0.44 -0.116,-0.87 -0.341,-1.296 -0.222,-0.423 -0.564,-0.77 -1.013,-1.033 -0.46,-0.27 -1.003,-0.403 -1.634,-0.403 -0.486,0 -0.932,0.078 -1.33,0.232 -0.4,0.157 -0.736,0.381 -1.009,0.675 -0.273,0.295 -0.48,0.644 -0.622,1.055 -0.145,0.41 -0.218,0.854 -0.218,1.333 0,1.017 0.291,1.823 0.868,2.418 0.58,0.593 1.387,0.889 2.43,0.889 0.453,0 0.859,-0.061 1.208,-0.179 0.348,-0.117 0.641,-0.269 0.872,-0.446 0.234,-0.182 0.408,-0.368 0.518,-0.566 0.116,-0.194 0.171,-0.365 0.171,-0.512 0,-0.167 -0.047,-0.294 -0.15,-0.386 -0.104,-0.093 -0.238,-0.139 -0.406,-0.139 -0.151,0 -0.27,0.038 -0.355,0.108 -0.202,0.189 -0.367,0.34 -0.492,0.449 -0.127,0.113 -0.264,0.218 -0.415,0.313 -0.152,0.097 -0.307,0.17 -0.469,0.213 -0.157,0.048 -0.335,0.069 -0.527,0.069 -0.291,0 -0.556,-0.07 -0.795,-0.212 -0.238,-0.145 -0.431,-0.357 -0.575,-0.636 -0.144,-0.28 -0.218,-0.606 -0.222,-0.974 h 3.17 c 0.422,0 0.75,-0.06 0.984,-0.181 z m -4.154,-0.739 c 0.053,-0.546 0.211,-0.957 0.47,-1.236 0.261,-0.28 0.592,-0.418 0.995,-0.418 0.425,0 0.764,0.136 1.026,0.412 0.257,0.273 0.407,0.688 0.446,1.242 z" />
				<path
   id="XMLID_390_"
   style="fill:#ffffff"
   d="m 286.927,474.938 c -0.42,-0.257 -0.883,-0.387 -1.379,-0.387 -0.415,0 -0.79,0.09 -1.114,0.268 -0.331,0.176 -0.648,0.452 -0.952,0.827 v -0.194 c 0,-0.297 -0.071,-0.52 -0.218,-0.678 -0.144,-0.155 -0.329,-0.233 -0.56,-0.233 -0.233,0 -0.419,0.078 -0.554,0.228 -0.133,0.154 -0.199,0.382 -0.199,0.691 v 6.995 c 0,0.354 0.051,0.62 0.145,0.807 0.102,0.183 0.301,0.274 0.607,0.274 0.517,0 0.777,-0.358 0.777,-1.068 v -2.434 c 0.286,0.358 0.586,0.635 0.9,0.817 0.314,0.187 0.704,0.279 1.166,0.279 0.385,0 0.741,-0.076 1.079,-0.228 0.334,-0.152 0.622,-0.372 0.868,-0.653 0.245,-0.283 0.44,-0.632 0.58,-1.05 0.14,-0.418 0.21,-0.878 0.21,-1.376 0,-0.677 -0.122,-1.261 -0.366,-1.758 -0.241,-0.494 -0.571,-0.87 -0.99,-1.127 z m -0.477,4.002 c -0.137,0.313 -0.32,0.546 -0.552,0.704 -0.229,0.153 -0.48,0.233 -0.748,0.233 -0.454,0 -0.828,-0.179 -1.133,-0.536 -0.307,-0.358 -0.46,-0.862 -0.46,-1.504 0,-0.687 0.155,-1.204 0.462,-1.558 0.307,-0.35 0.685,-0.527 1.131,-0.527 0.281,0 0.54,0.083 0.77,0.247 0.229,0.163 0.411,0.398 0.542,0.705 0.13,0.306 0.196,0.674 0.196,1.101 0,0.443 -0.069,0.822 -0.208,1.135 z" />
				<path
   id="XMLID_389_"
   style="fill:#ffffff"
   d="m 289.9,474.54 c -0.238,0 -0.428,0.079 -0.58,0.244 -0.146,0.163 -0.222,0.403 -0.222,0.722 v 4.642 c 0,0.313 0.076,0.555 0.222,0.729 0.152,0.17 0.342,0.254 0.58,0.254 0.238,0 0.432,-0.082 0.588,-0.251 0.154,-0.164 0.231,-0.409 0.231,-0.731 v -4.688 c 0,-0.286 -0.077,-0.512 -0.231,-0.675 -0.156,-0.167 -0.349,-0.246 -0.588,-0.246 z" />
				<path
   id="XMLID_388_"
   style="fill:#ffffff"
   d="m 289.917,472.199 c -0.217,0 -0.407,0.076 -0.571,0.223 -0.166,0.149 -0.247,0.339 -0.247,0.568 0,0.253 0.08,0.447 0.242,0.586 0.158,0.138 0.35,0.209 0.576,0.209 0.22,0 0.408,-0.071 0.566,-0.21 0.157,-0.14 0.236,-0.335 0.236,-0.585 0,-0.257 -0.082,-0.454 -0.244,-0.591 -0.161,-0.132 -0.345,-0.2 -0.558,-0.2 z" />
				<path
   id="XMLID_387_"
   style="fill:#ffffff"
   d="m 297.258,479.569 -1.662,-2.614 0.861,-0.788 c 0.438,-0.395 0.658,-0.714 0.658,-0.951 0,-0.192 -0.068,-0.354 -0.2,-0.483 -0.138,-0.128 -0.306,-0.192 -0.509,-0.192 -0.169,0 -0.313,0.043 -0.432,0.13 -0.121,0.086 -0.29,0.251 -0.517,0.486 l -1.822,1.913 v -3.933 c 0,-0.329 -0.074,-0.581 -0.221,-0.751 -0.147,-0.171 -0.344,-0.257 -0.593,-0.257 -0.256,0 -0.457,0.093 -0.596,0.283 -0.136,0.188 -0.207,0.462 -0.207,0.82 v 6.914 c 0,0.323 0.073,0.568 0.215,0.732 0.141,0.169 0.339,0.251 0.588,0.251 0.213,0 0.405,-0.084 0.566,-0.254 0.164,-0.167 0.247,-0.406 0.247,-0.719 v -1.29 l 0.88,-0.83 1.428,2.352 c 0.182,0.278 0.329,0.472 0.435,0.58 0.107,0.109 0.261,0.16 0.459,0.16 0.226,0 0.412,-0.073 0.553,-0.222 0.142,-0.15 0.214,-0.351 0.214,-0.609 0,-0.089 -0.029,-0.189 -0.082,-0.288 -0.051,-0.1 -0.142,-0.244 -0.263,-0.44 z" />
				<path
   id="XMLID_386_"
   style="fill:#ffffff"
   d="m 299.45,479.343 c -0.251,0 -0.459,0.087 -0.63,0.262 -0.171,0.173 -0.257,0.381 -0.257,0.622 0,0.287 0.091,0.51 0.269,0.665 0.179,0.159 0.389,0.238 0.633,0.238 0.237,0 0.444,-0.079 0.624,-0.241 0.175,-0.157 0.264,-0.38 0.264,-0.662 0,-0.243 -0.089,-0.454 -0.264,-0.626 -0.18,-0.171 -0.391,-0.258 -0.639,-0.258 z" />
				<path
   id="XMLID_385_"
   style="fill:#ffffff"
   d="m 306.835,478.416 c -0.166,0 -0.308,0.055 -0.422,0.156 -0.113,0.104 -0.219,0.245 -0.318,0.427 -0.177,0.31 -0.381,0.538 -0.616,0.69 -0.23,0.149 -0.509,0.225 -0.834,0.225 -0.24,0 -0.463,-0.045 -0.666,-0.141 -0.201,-0.094 -0.372,-0.229 -0.516,-0.409 -0.144,-0.18 -0.252,-0.398 -0.325,-0.652 -0.075,-0.256 -0.114,-0.537 -0.114,-0.842 0,-0.646 0.147,-1.161 0.44,-1.533 0.293,-0.375 0.682,-0.561 1.158,-0.561 0.333,0 0.606,0.075 0.82,0.227 0.219,0.147 0.425,0.376 0.623,0.674 0.108,0.158 0.209,0.27 0.299,0.339 0.09,0.069 0.201,0.104 0.338,0.104 0.202,0 0.377,-0.068 0.524,-0.203 0.143,-0.135 0.214,-0.3 0.214,-0.491 0,-0.192 -0.062,-0.397 -0.192,-0.617 -0.127,-0.218 -0.315,-0.424 -0.556,-0.62 -0.245,-0.192 -0.54,-0.352 -0.891,-0.474 -0.353,-0.124 -0.736,-0.185 -1.156,-0.185 -0.674,0 -1.26,0.139 -1.747,0.419 -0.485,0.278 -0.858,0.673 -1.113,1.183 -0.259,0.511 -0.387,1.098 -0.387,1.765 0,0.982 0.281,1.765 0.841,2.35 0.563,0.582 1.345,0.876 2.349,0.876 0.469,0 0.894,-0.065 1.269,-0.191 0.377,-0.126 0.688,-0.295 0.935,-0.503 0.248,-0.207 0.434,-0.425 0.553,-0.655 0.122,-0.23 0.183,-0.446 0.183,-0.647 0,-0.169 -0.066,-0.331 -0.198,-0.481 -0.132,-0.153 -0.297,-0.23 -0.495,-0.23 z" />
				<path
   id="XMLID_382_"
   style="fill:#ffffff"
   d="m 313.646,475.453 c -0.288,-0.291 -0.628,-0.518 -1.026,-0.675 -0.4,-0.16 -0.847,-0.238 -1.336,-0.238 -0.482,0 -0.924,0.078 -1.326,0.233 -0.398,0.158 -0.737,0.38 -1.02,0.669 -0.281,0.288 -0.498,0.637 -0.648,1.045 -0.146,0.408 -0.225,0.857 -0.225,1.349 0,0.485 0.076,0.93 0.22,1.332 0.151,0.401 0.369,0.75 0.657,1.048 0.284,0.292 0.626,0.521 1.016,0.676 0.393,0.159 0.835,0.239 1.326,0.239 0.492,0 0.937,-0.08 1.336,-0.234 0.394,-0.157 0.735,-0.382 1.02,-0.675 0.286,-0.291 0.502,-0.642 0.656,-1.05 0.145,-0.408 0.222,-0.854 0.222,-1.336 0,-0.488 -0.075,-0.932 -0.221,-1.339 -0.149,-0.401 -0.364,-0.748 -0.651,-1.044 z m -1.191,3.915 c -0.29,0.373 -0.682,0.558 -1.171,0.558 -0.324,0 -0.604,-0.086 -0.846,-0.253 -0.24,-0.168 -0.424,-0.409 -0.554,-0.729 -0.129,-0.316 -0.193,-0.685 -0.193,-1.108 0,-0.428 0.066,-0.803 0.197,-1.124 0.13,-0.321 0.314,-0.564 0.556,-0.728 0.242,-0.163 0.522,-0.245 0.84,-0.245 0.489,0 0.881,0.182 1.171,0.555 0.289,0.367 0.436,0.881 0.436,1.542 0,0.65 -0.147,1.163 -0.436,1.532 z" />
				<path
   id="XMLID_381_"
   style="fill:#ffffff"
   d="m 323.569,474.814 c -0.32,-0.173 -0.705,-0.263 -1.146,-0.263 -0.38,0 -0.726,0.081 -1.038,0.241 -0.314,0.161 -0.607,0.408 -0.882,0.738 -0.191,-0.326 -0.431,-0.572 -0.725,-0.735 -0.292,-0.162 -0.642,-0.244 -1.048,-0.244 -0.395,0 -0.748,0.079 -1.07,0.241 -0.319,0.156 -0.62,0.403 -0.903,0.738 v -0.153 c 0,-0.261 -0.073,-0.466 -0.221,-0.616 -0.15,-0.145 -0.335,-0.221 -0.558,-0.221 -0.226,0 -0.412,0.078 -0.556,0.238 -0.14,0.157 -0.21,0.389 -0.21,0.694 v 4.636 c 0,0.337 0.078,0.592 0.235,0.765 0.156,0.171 0.358,0.258 0.604,0.258 0.248,0 0.447,-0.087 0.603,-0.258 0.149,-0.173 0.227,-0.428 0.227,-0.765 v -2.189 c 0,-0.683 0.086,-1.206 0.253,-1.566 0.169,-0.369 0.517,-0.55 1.048,-0.55 0.264,0 0.459,0.071 0.582,0.22 0.121,0.142 0.197,0.33 0.226,0.552 0.027,0.226 0.04,0.544 0.04,0.952 v 2.581 c 0,0.342 0.078,0.594 0.232,0.768 0.148,0.17 0.35,0.255 0.595,0.255 0.254,0 0.454,-0.085 0.61,-0.255 0.156,-0.174 0.23,-0.426 0.23,-0.768 v -2.153 c 0,-0.694 0.063,-1.178 0.178,-1.452 0.109,-0.209 0.259,-0.383 0.451,-0.508 0.191,-0.125 0.395,-0.191 0.608,-0.191 0.264,0 0.463,0.071 0.596,0.215 0.128,0.142 0.209,0.318 0.238,0.528 0.029,0.21 0.044,0.486 0.044,0.837 v 2.725 c 0,0.337 0.078,0.592 0.234,0.765 0.157,0.171 0.356,0.258 0.604,0.258 0.252,0 0.458,-0.085 0.611,-0.255 0.154,-0.174 0.229,-0.426 0.229,-0.768 v -3.163 c 0,-0.629 -0.068,-1.091 -0.206,-1.386 -0.156,-0.323 -0.395,-0.573 -0.715,-0.746 z" />
			</g>
			<g
   id="XMLID_366_">
				<path
   id="XMLID_379_"
   style="fill:#ffffff"
   d="m 245.273,477.443 c -0.001,-0.003 -0.001,-0.006 -0.001,-0.011 0,0.006 0,0.008 0.001,0.011 z" />
				<path
   id="XMLID_378_"
   style="fill:#ffffff"
   d="m 245.355,477.961 c 0.001,0 0.001,0 0.001,0 -0.03,-0.146 -0.055,-0.294 -0.073,-0.438 0.018,0.146 0.043,0.293 0.072,0.438 z" />
				<path
   id="XMLID_377_"
   style="fill:#ffffff"
   d="m 245.891,479.466 c -0.003,-0.007 -0.006,-0.014 -0.01,-0.021 0.004,0.007 0.007,0.014 0.01,0.021 z" />
				<path
   id="XMLID_376_"
   style="fill:#ffffff"
   d="m 245.84,479.365 c -0.014,-0.027 -0.027,-0.056 -0.04,-0.083 0.012,0.029 0.026,0.056 0.04,0.083 z" />
				<path
   id="XMLID_375_"
   style="fill:#ffffff"
   d="m 245.505,478.541 c 0.08,0.25 0.175,0.492 0.286,0.724 -0.113,-0.236 -0.206,-0.478 -0.284,-0.724 z" />
				<path
   id="XMLID_374_"
   style="fill:#ffffff"
   d="m 250.736,470.682 -0.076,-0.26 c 0.299,-0.063 0.523,-0.329 0.523,-0.647 0,-0.363 -0.296,-0.659 -0.66,-0.659 -0.365,0 -0.66,0.296 -0.66,0.659 0,0.317 0.225,0.584 0.522,0.647 l 0.084,0.289 c -1.021,0.141 -1.834,0.539 -1.834,0.539 l 0.144,0.44 c 0.617,-0.206 1.153,-0.331 1.64,-0.383 0.476,-0.051 0.833,-0.073 1.126,-0.073 0.313,0 0.545,0.025 0.81,0.069 l 0.075,-0.476 c 0,10e-4 -0.733,-0.224 -1.694,-0.145 z" />
				<path
   id="XMLID_373_"
   style="fill:#ffffff"
   d="m 245.453,473.189 c -0.017,0.023 -0.497,0.465 -0.876,1.279 -0.016,-0.025 -0.035,-0.051 -0.056,-0.074 -0.114,-0.124 -0.272,-0.188 -0.474,-0.184 -0.003,0 -0.006,0 -0.01,0 -0.124,0 -0.21,-0.042 -0.266,-0.093 0.056,-0.07 0.089,-0.16 0.089,-0.258 0,-0.23 -0.188,-0.419 -0.419,-0.419 -0.23,0 -0.417,0.189 -0.417,0.419 0,0.231 0.188,0.417 0.417,0.417 0.037,0 0.071,-0.005 0.105,-0.012 0.102,0.113 0.266,0.214 0.504,0.209 0.124,-0.002 0.214,0.03 0.273,0.097 0.07,0.075 0.093,0.185 0.1,0.267 -0.001,0.002 -0.001,0.004 -0.002,0.004 -0.272,0.743 -0.194,1.668 -0.194,1.668 l 0.661,0.025 c 0.014,-0.336 0.061,-0.925 0.232,-1.393 0.329,-0.906 0.741,-1.472 0.757,-1.496 l 0.004,-0.005 c 0.024,-0.031 0.047,-0.06 0.071,-0.089 l -0.196,-0.142 z" />
				<path
   id="XMLID_372_"
   style="fill:#ffffff"
   d="m 257.294,471.787 c -0.23,0 -0.419,0.186 -0.419,0.417 0,0.037 0.006,0.071 0.016,0.104 -0.115,0.104 -0.215,0.267 -0.211,0.506 0.002,0.123 -0.03,0.213 -0.097,0.273 -0.053,0.047 -0.119,0.071 -0.185,0.087 -0.492,-0.689 -1.098,-1.109 -1.098,-1.109 l -0.474,0.509 c 0.358,0.326 0.725,0.734 1.08,1.244 0.246,0.352 0.499,0.806 0.71,1.258 l 0.64,-0.304 c 0,0 -0.292,-0.722 -0.703,-1.369 0.071,-0.025 0.143,-0.063 0.206,-0.12 0.126,-0.113 0.188,-0.272 0.184,-0.474 -10e-4,-0.13 0.041,-0.218 0.093,-0.275 0.071,0.054 0.16,0.089 0.258,0.089 0.232,0 0.418,-0.188 0.418,-0.419 0,-0.23 -0.187,-0.417 -0.418,-0.417 z" />
				<path
   id="XMLID_371_"
   style="fill:#ffffff"
   d="m 255.633,477.537 c -0.88,0.429 -2.33,0.996 -4.236,1.262 -0.749,0.104 -1.475,0.143 -2.143,0.143 -0.869,0 -1.638,-0.064 -2.227,-0.14 -0.672,-0.084 -1.198,-0.188 -1.52,-0.261 0.078,0.245 0.171,0.487 0.284,0.724 0.002,0.006 0.005,0.013 0.008,0.018 0.013,0.027 0.027,0.056 0.04,0.083 0.014,0.027 0.027,0.055 0.041,0.079 0.004,0.008 0.007,0.015 0.01,0.021 0.19,0.357 0.417,0.684 0.676,0.968 0.899,0.984 1.816,1.139 1.825,1.141 l 0.015,0.002 0.013,0.005 c 0.009,0.003 0.821,0.265 2.057,0.265 1.215,0 2.409,-0.244 3.545,-0.729 0.842,-0.431 1.639,-1.085 2.033,-1.668 0.306,-0.452 0.526,-0.934 0.656,-1.434 0.069,-0.266 0.124,-0.692 0.092,-1.141 -0.247,0.167 -0.639,0.404 -1.169,0.662 z" />
				<path
   id="XMLID_367_"
   style="fill:#ffffff"
   d="m 252.322,471.655 c -0.265,-0.044 -0.477,-0.068 -0.777,-0.068 -0.279,0 -0.626,0.022 -1.088,0.07 -0.465,0.049 -0.982,0.171 -1.583,0.373 -0.842,0.282 -1.604,0.725 -2.204,1.28 l -0.02,0.019 c -0.089,0.081 -0.275,0.254 -0.488,0.525 -0.025,0.037 -0.408,0.578 -0.709,1.408 -0.226,0.621 -0.216,1.526 -0.216,1.537 v 0.001 c 0,0.212 0.013,0.423 0.036,0.632 0,0.005 0,0.008 0.001,0.011 0.003,0.027 0.007,0.053 0.01,0.08 0.019,0.144 0.043,0.291 0.074,0.438 0.438,0.112 3.048,0.721 5.967,0.314 1.829,-0.254 3.218,-0.795 4.061,-1.204 0.701,-0.34 1.151,-0.647 1.325,-0.773 -0.173,-0.643 -0.651,-1.65 -1.089,-2.278 -1.255,-1.792 -2.606,-2.25 -3.3,-2.365 z m -3.643,5.259 c -0.972,0 -1.759,-0.787 -1.759,-1.76 0,-0.972 0.788,-1.76 1.759,-1.76 0.973,0 1.761,0.788 1.761,1.76 -0.001,0.973 -0.789,1.76 -1.761,1.76 z m 5.149,-1.297 c -0.601,0 -1.088,-0.489 -1.088,-1.09 0,-0.603 0.487,-1.09 1.088,-1.09 0.601,0 1.09,0.487 1.09,1.09 0,0.601 -0.489,1.09 -1.09,1.09 z" />
			</g>
		</g>
	</g>
</g>
</svg>
