<?xml version="1.0" encoding="UTF-8" standalone="no"?>
<!-- Generator: Adobe Illustrator 27.5.0, SVG Export Plug-In . SVG Version: 6.00 Build 0)  -->

<svg
   version="1.1"
   x="0px"
   y="0px"
   viewBox="0 0 70.370651 128.37299"
   xml:space="preserve"
   id="svg172"
   sodipodi:docname="2096137_283958-P698JZ-77.svg"
   inkscape:version="1.3.2 (091e20e, 2023-11-25, custom)"
   width="70.370651"
   height="128.37299"
   xmlns:inkscape="http://www.inkscape.org/namespaces/inkscape"
   xmlns:sodipodi="http://sodipodi.sourceforge.net/DTD/sodipodi-0.dtd"
   xmlns="http://www.w3.org/2000/svg"
   xmlns:svg="http://www.w3.org/2000/svg"><defs
   id="defs172"><linearGradient
     id="swatch185"
     inkscape:swatch="solid"
     inkscape:label="Cuticle"><stop
       style="stop-color:#ffd8b6;stop-opacity:1;"
       offset="0"
       id="stop185" /></linearGradient><linearGradient
     id="swatch183"
     inkscape:swatch="solid"
     inkscape:label="Nail"><stop
       style="stop-color:#ffead9;stop-opacity:1;"
       offset="0"
       id="stop183" /></linearGradient><linearGradient
     id="swatch182"
     inkscape:swatch="solid"
     inkscape:label="Blue"><stop
       style="stop-color:#334b73;stop-opacity:1;"
       offset="0"
       id="stop182" /></linearGradient><linearGradient
     id="swatch180"
     inkscape:swatch="solid"
     inkscape:label="Shadow"><stop
       style="stop-color:#deac7f;stop-opacity:1;"
       offset="0"
       id="stop180" /></linearGradient><linearGradient
     id="swatch177"
     inkscape:swatch="solid"
     inkscape:label="Light"><stop
       style="stop-color:#ffc896;stop-opacity:1;"
       offset="0"
       id="stop177" /></linearGradient></defs><sodipodi:namedview
   id="namedview172"
   pagecolor="#ffffff"
   bordercolor="#000000"
   borderopacity="0.25"
   inkscape:showpageshadow="2"
   inkscape:pageopacity="0.0"
   inkscape:pagecheckerboard="0"
   inkscape:deskcolor="#d1d1d1"
   inkscape:zoom="1.722"
   inkscape:cx="144.88966"
   inkscape:cy="94.367015"
   inkscape:window-width="1858"
   inkscape:window-height="1057"
   inkscape:window-x="54"
   inkscape:window-y="-8"
   inkscape:window-maximized="1"
   inkscape:current-layer="OBJECTS" />

<g
   id="OBJECTS"
   transform="translate(-163.27335,-318.272)">
	
	
	
	
	
	
	
	
	
	
	
	
	
	
	
	
	
	
	
	
	
	<g
   id="g146"
   inkscape:label="OK">
		<path
   style="fill:url(#swatch180)"
   d="m 165.111,393.802 v 0 c -2.148,2.148 -2.148,5.662 0,7.809 l 16.331,16.331 c 2.855,2.855 7.528,2.855 10.383,0 l 0.068,-0.068 c 2.855,-2.855 2.855,-7.528 0,-10.383 l -13.689,-13.689 c -3.601,-3.6 -9.493,-3.6 -13.093,0 z"
   id="path130" />
		<path
   style="fill:url(#swatch180)"
   d="m 189.509,381.682 v 0 c -2.148,-2.147 -5.911,-2.449 -8.362,-0.671 l -15.196,11.025 c -3.259,2.365 -3.59,6.636 -0.735,9.491 l 0.068,0.068 c 2.855,2.855 7.859,3.257 11.118,0.892 l 12.18,-8.836 c 4.111,-2.982 4.528,-8.368 0.927,-11.969 z"
   id="path131" />
		<rect
   x="185.42799"
   y="413.37399"
   style="fill:url(#swatch177)"
   width="38.055"
   height="33.271"
   id="rect131" />
		<path
   style="fill:url(#swatch180)"
   d="m 204.458,429.565 c 6.971,0 13.485,1.312 19.024,3.585 v -18.66 h -38.055 v 18.663 c 5.542,-2.275 12.057,-3.588 19.031,-3.588 z"
   id="path132" />
		<path
   style="fill:url(#swatch177)"
   d="m 182.564,362.187 v 0 c -4.013,0 -7.297,3.284 -7.297,7.297 v 23.072 c 0,4.013 3.284,7.297 7.297,7.297 v 0 c 4.013,0 7.297,-3.284 7.297,-7.297 v -23.072 c 0,-4.013 -3.284,-7.297 -7.297,-7.297 z"
   id="path133" />
		<path
   style="fill:url(#swatch177)"
   d="m 197.158,318.272 v 0 c -4.013,0 -7.297,3.284 -7.297,7.297 v 56.292 c 0,4.013 3.284,7.297 7.297,7.297 v 0 c 4.013,0 7.297,-3.284 7.297,-7.297 v -56.292 c 0,-4.014 -3.283,-7.297 -7.297,-7.297 z"
   id="path134" />
		<path
   style="fill:url(#swatch180)"
   d="m 204.455,374.579 v -49.011 c 0,-2.493 -1.268,-4.703 -3.19,-6.02 z"
   id="path135" />
		<g
   id="g137">
			<path
   style="fill:url(#swatch183)"
   d="m 197.158,321.982 v 0 c -2.79,0 -5.074,2.283 -5.074,5.074 v 2.243 c 0,0 2.283,1.737 5.074,1.737 v 0 c 2.79,0 5.074,-1.737 5.074,-1.737 v -2.243 c 0,-2.791 -2.283,-5.074 -5.074,-5.074 z"
   id="path136" />
			<path
   style="fill:url(#swatch185)"
   d="m 197.158,328.862 c -1.329,0 -2.539,0.522 -3.447,1.366 0.907,0.413 2.117,0.807 3.447,0.807 v 0 c 1.329,0 2.54,-0.395 3.447,-0.807 -0.907,-0.844 -2.118,-1.366 -3.447,-1.366 z"
   id="path137" />
		</g>
		<path
   style="fill:url(#swatch177)"
   d="m 211.752,324.788 v 0 c -4.013,0 -7.297,3.284 -7.297,7.297 v 56.292 c 0,4.013 3.284,7.297 7.297,7.297 v 0 c 4.013,0 7.297,-3.284 7.297,-7.297 v -56.292 c 0,-4.013 -3.283,-7.297 -7.297,-7.297 z"
   id="path138" />
		<path
   style="fill:url(#swatch177)"
   d="m 226.346,333.292 v 0 c -4.013,0 -7.297,3.284 -7.297,7.297 v 56.292 c 0,4.013 3.284,7.297 7.297,7.297 v 0 c 4.013,0 7.297,-3.284 7.297,-7.297 v -56.292 c 0.001,-4.013 -3.283,-7.297 -7.297,-7.297 z"
   id="path139" />
		<path
   style="fill:url(#swatch180)"
   d="m 219.049,374.579 v -42.494 c 0,-2.493 -1.268,-4.703 -3.19,-6.02 z"
   id="path140" />
		<path
   style="fill:url(#swatch180)"
   d="m 233.644,374.579 v -33.991 c 0,-2.493 -1.268,-4.703 -3.19,-6.02 z"
   id="path141" />
		<g
   id="g143">
			<path
   style="fill:url(#swatch183)"
   d="m 211.752,328.765 v 0 c -2.791,0 -5.074,2.283 -5.074,5.073 v 2.243 c 0,0 2.283,1.737 5.073,1.737 v 0 c 2.79,0 5.073,-1.737 5.073,-1.737 v -2.243 c 0.002,-2.79 -2.281,-5.073 -5.072,-5.073 z"
   id="path142" />
			<path
   style="fill:url(#swatch185)"
   d="m 211.752,335.645 c -1.329,0 -2.54,0.522 -3.447,1.366 0.907,0.413 2.117,0.807 3.447,0.807 v 0 c 1.329,0 2.539,-0.395 3.447,-0.807 -0.907,-0.844 -2.117,-1.366 -3.447,-1.366 z"
   id="path143" />
		</g>
		<g
   id="g145">
			<path
   style="fill:url(#swatch183)"
   d="m 226.346,336.732 v 0 c -2.79,0 -5.074,2.283 -5.074,5.073 v 2.243 c 0,0 2.283,1.737 5.074,1.737 v 0 c 2.79,0 5.074,-1.737 5.074,-1.737 v -2.243 c 0,-2.79 -2.283,-5.073 -5.074,-5.073 z"
   id="path144" />
			<path
   style="fill:url(#swatch185)"
   d="m 226.346,343.612 c -1.329,0 -2.539,0.522 -3.447,1.366 0.907,0.413 2.117,0.807 3.447,0.807 v 0 c 1.329,0 2.54,-0.395 3.447,-0.807 -0.907,-0.844 -2.117,-1.366 -3.447,-1.366 z"
   id="path145" />
		</g>
		<path
   style="fill:url(#swatch177)"
   d="m 211.533,424.331 h -15.945 c -11.177,0 -20.321,-9.145 -20.321,-20.322 v -21.627 c 0,-4.71 3.853,-8.563 8.563,-8.563 h 41.25 c 4.71,0 8.563,3.853 8.563,8.563 v 19.838 c 0.001,12.161 -9.949,22.111 -22.11,22.111 z"
   id="path146" />
	</g>
	
	
</g>

</svg>
