<?xml version="1.0" encoding="UTF-8" standalone="no"?>
<!-- Generator: Adobe Illustrator 27.5.0, SVG Export Plug-In . SVG Version: 6.00 Build 0)  -->

<svg
   version="1.1"
   x="0px"
   y="0px"
   viewBox="0 0 70.369995 88.458008"
   xml:space="preserve"
   id="svg172"
   sodipodi:docname="2096137_283958-P698JZ-77.svg"
   inkscape:version="1.3.2 (091e20e, 2023-11-25, custom)"
   width="70.369995"
   height="88.458008"
   xmlns:inkscape="http://www.inkscape.org/namespaces/inkscape"
   xmlns:sodipodi="http://sodipodi.sourceforge.net/DTD/sodipodi-0.dtd"
   xmlns="http://www.w3.org/2000/svg"
   xmlns:svg="http://www.w3.org/2000/svg"><defs
   id="defs172"><linearGradient
     id="swatch185"
     inkscape:swatch="solid"
     inkscape:label="Cuticle"><stop
       style="stop-color:#ffd8b6;stop-opacity:1;"
       offset="0"
       id="stop185" /></linearGradient><linearGradient
     id="swatch183"
     inkscape:swatch="solid"
     inkscape:label="Nail"><stop
       style="stop-color:#ffead9;stop-opacity:1;"
       offset="0"
       id="stop183" /></linearGradient><linearGradient
     id="swatch182"
     inkscape:swatch="solid"
     inkscape:label="Blue"><stop
       style="stop-color:#334b73;stop-opacity:1;"
       offset="0"
       id="stop182" /></linearGradient><linearGradient
     id="swatch180"
     inkscape:swatch="solid"
     inkscape:label="Shadow"><stop
       style="stop-color:#deac7f;stop-opacity:1;"
       offset="0"
       id="stop180" /></linearGradient><linearGradient
     id="swatch177"
     inkscape:swatch="solid"
     inkscape:label="Light"><stop
       style="stop-color:#ffc896;stop-opacity:1;"
       offset="0"
       id="stop177" /></linearGradient></defs><sodipodi:namedview
   id="namedview172"
   pagecolor="#ffffff"
   bordercolor="#000000"
   borderopacity="0.25"
   inkscape:showpageshadow="2"
   inkscape:pageopacity="0.0"
   inkscape:pagecheckerboard="0"
   inkscape:deskcolor="#d1d1d1"
   inkscape:zoom="1.722"
   inkscape:cx="144.88966"
   inkscape:cy="94.367015"
   inkscape:window-width="1858"
   inkscape:window-height="1057"
   inkscape:window-x="54"
   inkscape:window-y="-8"
   inkscape:window-maximized="1"
   inkscape:current-layer="OBJECTS" />

<g
   id="OBJECTS"
   transform="translate(-154.12001,-200.605)">
	
	
	
	
	
	
	
	
	
	
	
	
	
	
	
	
	
	
	
	
	<g
   id="g129"
   inkscape:label="zero">
		<path
   style="fill:url(#swatch180)"
   d="m 155.957,236.221 v 0 c -2.148,2.148 -2.148,5.662 0,7.809 l 16.331,16.331 c 2.855,2.855 7.528,2.855 10.383,0 l 0.068,-0.068 c 2.855,-2.855 2.855,-7.528 0,-10.383 L 169.05,236.222 c -3.6,-3.602 -9.492,-3.602 -13.093,-0.001 z"
   id="path122" />
		<path
   style="fill:url(#swatch180)"
   d="m 180.356,224.101 v 0 c -2.148,-2.148 -5.911,-2.45 -8.362,-0.671 l -15.196,11.025 c -3.26,2.365 -3.59,6.636 -0.735,9.491 l 0.068,0.068 c 2.855,2.855 7.859,3.257 11.118,0.892 l 12.181,-8.837 c 4.11,-2.982 4.527,-8.368 0.926,-11.968 z"
   id="path123" />
		<rect
   x="176.27499"
   y="255.79201"
   style="fill:url(#swatch177)"
   width="38.055"
   height="33.271"
   id="rect123" />
		<path
   style="fill:url(#swatch180)"
   d="m 195.305,272.493 c 6.971,0 13.485,1.312 19.024,3.585 v -18.66 h -38.055 v 18.663 c 5.541,-2.275 12.057,-3.588 19.031,-3.588 z"
   id="path124" />
		<path
   style="fill:url(#swatch177)"
   d="m 188.005,200.605 v 0 c -4.013,0 -7.297,3.284 -7.297,7.297 v 23.072 c 0,4.013 3.284,7.297 7.297,7.297 v 0 c 4.013,0 7.297,-3.284 7.297,-7.297 v -23.072 c 0,-4.013 -3.284,-7.297 -7.297,-7.297 z"
   id="path125" />
		<path
   style="fill:url(#swatch177)"
   d="m 173.411,204.606 v 0 c -4.014,0 -7.297,3.284 -7.297,7.297 v 23.072 c 0,4.013 3.284,7.297 7.297,7.297 v 0 c 4.013,0 7.297,-3.284 7.297,-7.297 v -23.072 c 0,-4.013 -3.284,-7.297 -7.297,-7.297 z"
   id="path126" />
		<path
   style="fill:url(#swatch177)"
   d="m 202.599,203.606 v 0 c -4.013,0 -7.297,3.284 -7.297,7.297 v 23.072 c 0,4.013 3.284,7.297 7.297,7.297 v 0 c 4.013,0 7.297,-3.284 7.297,-7.297 v -23.072 c 0,-4.014 -3.284,-7.297 -7.297,-7.297 z"
   id="path127" />
		<path
   style="fill:url(#swatch177)"
   d="m 217.193,209.219 v 0 c -4.013,0 -7.297,3.284 -7.297,7.297 v 23.072 c 0,4.013 3.284,7.297 7.297,7.297 v 0 c 4.013,0 7.297,-3.284 7.297,-7.297 v -23.072 c 0,-4.013 -3.284,-7.297 -7.297,-7.297 z"
   id="path128" />
		<path
   style="fill:url(#swatch177)"
   d="m 202.38,266.749 h -15.945 c -11.177,0 -20.322,-9.145 -20.322,-20.322 V 224.8 c 0,-4.71 3.853,-8.563 8.563,-8.563 h 41.25 c 4.71,0 8.563,3.853 8.563,8.563 v 19.838 c 0.001,12.162 -9.948,22.111 -22.109,22.111 z"
   id="path129" />
	</g>
	
	
	
</g>

</svg>
