<?xml version="1.0" encoding="UTF-8" standalone="no"?>
<!-- Generator: Adobe Illustrator 27.5.0, SVG Export Plug-In . SVG Version: 6.00 Build 0)  -->

<svg
   version="1.1"
   x="0px"
   y="0px"
   viewBox="0 0 81.732224 129.31392"
   xml:space="preserve"
   id="svg172"
   sodipodi:docname="2096137_283958-P698JZ-77.svg"
   inkscape:version="1.3.2 (091e20e, 2023-11-25, custom)"
   width="81.732224"
   height="129.31392"
   xmlns:inkscape="http://www.inkscape.org/namespaces/inkscape"
   xmlns:sodipodi="http://sodipodi.sourceforge.net/DTD/sodipodi-0.dtd"
   xmlns="http://www.w3.org/2000/svg"
   xmlns:svg="http://www.w3.org/2000/svg"><defs
   id="defs172"><linearGradient
     id="swatch185"
     inkscape:swatch="solid"
     inkscape:label="Cuticle"><stop
       style="stop-color:#ffd8b6;stop-opacity:1;"
       offset="0"
       id="stop185" /></linearGradient><linearGradient
     id="swatch183"
     inkscape:swatch="solid"
     inkscape:label="Nail"><stop
       style="stop-color:#ffead9;stop-opacity:1;"
       offset="0"
       id="stop183" /></linearGradient><linearGradient
     id="swatch182"
     inkscape:swatch="solid"
     inkscape:label="Blue"><stop
       style="stop-color:#334b73;stop-opacity:1;"
       offset="0"
       id="stop182" /></linearGradient><linearGradient
     id="swatch180"
     inkscape:swatch="solid"
     inkscape:label="Shadow"><stop
       style="stop-color:#deac7f;stop-opacity:1;"
       offset="0"
       id="stop180" /></linearGradient><linearGradient
     id="swatch177"
     inkscape:swatch="solid"
     inkscape:label="Light"><stop
       style="stop-color:#ffc896;stop-opacity:1;"
       offset="0"
       id="stop177" /></linearGradient></defs><sodipodi:namedview
   id="namedview172"
   pagecolor="#ffffff"
   bordercolor="#000000"
   borderopacity="0.25"
   inkscape:showpageshadow="2"
   inkscape:pageopacity="0.0"
   inkscape:pagecheckerboard="0"
   inkscape:deskcolor="#d1d1d1"
   inkscape:zoom="1.722"
   inkscape:cx="144.88966"
   inkscape:cy="94.367015"
   inkscape:window-width="1858"
   inkscape:window-height="1057"
   inkscape:window-x="54"
   inkscape:window-y="-8"
   inkscape:window-maximized="1"
   inkscape:current-layer="OBJECTS" />

<g
   id="OBJECTS"
   transform="translate(-57.881347,-317.82207)">
	
	
	
	
	
	
	
	
	
	
	
	
	
	
	
	
	
	
	
	<g
   id="g121"
   inkscape:label="four">
		<path
   style="fill:url(#swatch180)"
   d="m 59.719,394.293 v 0 c -2.148,2.148 -2.148,5.662 0,7.809 l 16.331,16.33 c 2.855,2.855 7.528,2.855 10.383,0 l 0.068,-0.068 c 2.855,-2.855 2.855,-7.528 0,-10.383 L 72.812,394.292 c -3.601,-3.599 -9.493,-3.599 -13.093,0.001 z"
   id="path106" />
		<path
   style="fill:url(#swatch180)"
   d="m 84.117,382.173 v 0 c -2.148,-2.148 -5.911,-2.45 -8.362,-0.671 l -15.196,11.024 c -3.259,2.365 -3.59,6.636 -0.735,9.491 l 0.068,0.068 c 2.855,2.855 7.859,3.257 11.118,0.892 l 12.181,-8.837 c 4.11,-2.981 4.527,-8.366 0.926,-11.967 z"
   id="path107" />
		<rect
   x="80.036003"
   y="413.86499"
   style="fill:url(#swatch177)"
   width="38.055"
   height="33.271"
   id="rect107" />
		<path
   style="fill:url(#swatch180)"
   d="m 99.066,429.626 c 6.971,0 13.485,1.312 19.024,3.585 v -18.66 H 80.036 v 18.663 c 5.541,-2.275 12.056,-3.588 19.03,-3.588 z"
   id="path108" />
		<path
   style="fill:url(#swatch177)"
   d="m 64.191,326.129 v 0 c -3.909,0.91 -6.363,4.852 -5.453,8.761 l 12.758,54.827 c 0.91,3.909 4.852,6.363 8.761,5.453 v 0 c 3.909,-0.91 6.363,-4.852 5.453,-8.761 L 72.952,331.582 c -0.909,-3.909 -4.852,-6.363 -8.761,-5.453 z"
   id="path109" />
		<g
   id="g111">
			<path
   style="fill:url(#swatch183)"
   d="m 64.925,329.282 v 0 c -2.718,0.633 -4.424,3.374 -3.792,6.091 l 0.508,2.184 c 0,0 2.617,1.175 5.335,0.542 v 0 c 2.718,-0.632 4.548,-2.842 4.548,-2.842 l -0.508,-2.184 c -0.632,-2.717 -3.373,-4.423 -6.091,-3.791 z"
   id="path110" />
			<path
   style="fill:url(#swatch185)"
   d="m 66.484,335.983 c -1.295,0.301 -2.355,1.084 -3.047,2.112 0.977,0.197 2.245,0.306 3.54,0.005 v 0 c 1.295,-0.301 2.384,-0.96 3.174,-1.567 -1.075,-0.617 -2.372,-0.851 -3.667,-0.55 z"
   id="path111" />
		</g>
		<path
   style="fill:url(#swatch177)"
   d="m 87.832,317.837 v 0 c -4.005,0.257 -7.072,3.743 -6.816,7.749 l 3.599,56.176 c 0.257,4.005 3.743,7.072 7.749,6.816 v 0 c 4.005,-0.257 7.072,-3.743 6.816,-7.749 l -3.599,-56.177 c -0.257,-4.004 -3.744,-7.071 -7.749,-6.815 z"
   id="path112" />
		<g
   id="g114">
			<path
   style="fill:url(#swatch183)"
   d="m 88.039,321.068 v 0 c -2.785,0.178 -4.917,2.603 -4.739,5.387 l 0.143,2.238 c 0,0 2.389,1.588 5.174,1.409 v 0 c 2.785,-0.178 4.952,-2.058 4.952,-2.058 l -0.143,-2.238 c -0.178,-2.784 -2.603,-4.916 -5.387,-4.738 z"
   id="path113" />
			<path
   style="fill:url(#swatch185)"
   d="m 88.479,327.934 c -1.326,0.085 -2.501,0.683 -3.352,1.584 0.932,0.354 2.165,0.67 3.491,0.585 v 0 c 1.326,-0.085 2.509,-0.556 3.388,-1.026 -0.96,-0.784 -2.201,-1.228 -3.527,-1.143 z"
   id="path114" />
		</g>
		<path
   style="fill:url(#swatch177)"
   d="m 112.307,320.185 v 0 c -3.996,-0.375 -7.572,2.587 -7.948,6.583 l -5.264,56.045 c -0.375,3.996 2.587,7.572 6.583,7.948 v 0 c 3.996,0.375 7.572,-2.587 7.947,-6.583 l 5.264,-56.045 c 0.376,-3.996 -2.587,-7.572 -6.582,-7.948 z"
   id="path115" />
		<g
   id="g117">
			<path
   style="fill:url(#swatch183)"
   d="m 112.004,323.409 v 0 c -2.778,-0.261 -5.265,1.799 -5.526,4.577 l -0.21,2.233 c 0,0 2.111,1.943 4.889,2.204 v 0 c 2.778,0.261 5.214,-1.255 5.214,-1.255 l 0.21,-2.233 c 0.261,-2.779 -1.799,-5.265 -4.577,-5.526 z"
   id="path116" />
			<path
   style="fill:url(#swatch185)"
   d="m 111.36,330.259 c -1.323,-0.124 -2.577,0.282 -3.559,1.038 0.864,0.496 2.033,1.002 3.356,1.126 v 0 c 1.323,0.124 2.565,-0.155 3.507,-0.482 -0.824,-0.925 -1.98,-1.558 -3.304,-1.682 z"
   id="path117" />
		</g>
		<path
   style="fill:url(#swatch177)"
   d="m 134.107,332.499 v 0 c -3.891,-0.985 -7.88,1.393 -8.864,5.284 l -13.809,54.572 c -0.985,3.891 1.393,7.88 5.284,8.864 v 0 c 3.891,0.984 7.88,-1.393 8.864,-5.284 l 13.809,-54.572 c 0.985,-3.891 -1.393,-7.88 -5.284,-8.864 z"
   id="path118" />
		<g
   id="g120">
			<path
   style="fill:url(#swatch183)"
   d="m 133.264,335.833 v 0 c -2.705,-0.685 -5.479,0.969 -6.163,3.674 l -0.55,2.174 c 0,0 1.787,2.244 4.492,2.929 v 0 c 2.705,0.684 5.345,-0.44 5.345,-0.44 l 0.55,-2.174 c 0.684,-2.705 -0.969,-5.478 -3.674,-6.163 z"
   id="path119" />
			<path
   style="fill:url(#swatch185)"
   d="m 131.576,342.503 c -1.289,-0.326 -2.59,-0.117 -3.676,0.479 0.778,0.623 1.855,1.302 3.143,1.628 v 0 c 1.289,0.326 2.559,0.24 3.539,0.063 -0.672,-1.041 -1.717,-1.844 -3.006,-2.17 z"
   id="path120" />
		</g>
		<path
   style="fill:url(#swatch177)"
   d="M 106.141,424.822 H 90.196 c -11.177,0 -20.322,-9.145 -20.322,-20.322 v -21.627 c 0,-4.71 3.853,-8.563 8.563,-8.563 h 41.25 c 4.71,0 8.563,3.853 8.563,8.563 v 19.838 c 0.001,12.161 -9.948,22.111 -22.109,22.111 z"
   id="path121" />
	</g>
	
	
	
	
</g>

</svg>
