<?xml version="1.0" encoding="UTF-8" standalone="no"?>
<!-- Generator: Adobe Illustrator 27.5.0, SVG Export Plug-In . SVG Version: 6.00 Build 0)  -->

<svg
   version="1.1"
   x="0px"
   y="0px"
   viewBox="0 0 124.97319 84.007492"
   xml:space="preserve"
   id="svg172"
   sodipodi:docname="2096137_283958-P698JZ-77.svg"
   inkscape:version="1.3.2 (091e20e, 2023-11-25, custom)"
   width="124.97319"
   height="84.007492"
   xmlns:inkscape="http://www.inkscape.org/namespaces/inkscape"
   xmlns:sodipodi="http://sodipodi.sourceforge.net/DTD/sodipodi-0.dtd"
   xmlns="http://www.w3.org/2000/svg"
   xmlns:svg="http://www.w3.org/2000/svg"><defs
   id="defs172"><linearGradient
     id="swatch185"
     inkscape:swatch="solid"
     inkscape:label="Cuticle"><stop
       style="stop-color:#ffd8b6;stop-opacity:1;"
       offset="0"
       id="stop185" /></linearGradient><linearGradient
     id="swatch183"
     inkscape:swatch="solid"
     inkscape:label="Nail"><stop
       style="stop-color:#ffead9;stop-opacity:1;"
       offset="0"
       id="stop183" /></linearGradient><linearGradient
     id="swatch182"
     inkscape:swatch="solid"
     inkscape:label="Blue"><stop
       style="stop-color:#334b73;stop-opacity:1;"
       offset="0"
       id="stop182" /></linearGradient><linearGradient
     id="swatch180"
     inkscape:swatch="solid"
     inkscape:label="Shadow"><stop
       style="stop-color:#deac7f;stop-opacity:1;"
       offset="0"
       id="stop180" /></linearGradient><linearGradient
     id="swatch177"
     inkscape:swatch="solid"
     inkscape:label="Light"><stop
       style="stop-color:#ffc896;stop-opacity:1;"
       offset="0"
       id="stop177" /></linearGradient></defs><sodipodi:namedview
   id="namedview172"
   pagecolor="#ffffff"
   bordercolor="#000000"
   borderopacity="0.25"
   inkscape:showpageshadow="2"
   inkscape:pageopacity="0.0"
   inkscape:pagecheckerboard="0"
   inkscape:deskcolor="#d1d1d1"
   inkscape:zoom="1.722"
   inkscape:cx="144.88966"
   inkscape:cy="94.367015"
   inkscape:window-width="1858"
   inkscape:window-height="1057"
   inkscape:window-x="54"
   inkscape:window-y="-8"
   inkscape:window-maximized="1"
   inkscape:current-layer="OBJECTS" />

<g
   id="OBJECTS"
   transform="translate(-352.16581,-346.03351)">
	
	
	
	
	
	
	
	
	
	
	
	
	
	
	
	
	
	<g
   id="g94"
   inkscape:label="gun">
		<path
   style="fill:url(#swatch177)"
   d="m 439.408,408.186 v -0.057 c 0,-3.994 -3.268,-7.262 -7.262,-7.262 h -18.27 c -3.994,0 -7.262,3.268 -7.262,7.262 v 0.057 c 0,3.994 3.268,7.262 7.262,7.262 h 18.27 c 3.995,0 7.262,-3.268 7.262,-7.262 z"
   id="path79" />
		<path
   style="fill:url(#swatch177)"
   d="m 435.448,422.767 v -0.057 c 0,-3.994 -3.268,-7.262 -7.262,-7.262 h -18.27 c -3.994,0 -7.262,3.268 -7.262,7.262 v 0.057 c 0,3.994 3.268,7.262 7.262,7.262 h 18.27 c 3.994,0 7.262,-3.268 7.262,-7.262 z"
   id="path80" />
		<path
   style="fill:url(#swatch177)"
   d="m 385.951,346.121 v 0 c -2.438,-0.487 -4.831,1.109 -5.318,3.547 l -6.03,30.177 c -0.688,3.442 1.566,6.821 5.008,7.509 l 1.977,0.395 c 3.442,0.688 6.821,-1.566 7.509,-5.008 l 4.905,-24.548 c 1.106,-5.533 -2.517,-10.966 -8.051,-12.072 z"
   id="path81" />
		
			<rect
   x="349.77399"
   y="384.21899"
   transform="rotate(90,368.80135,400.85445)"
   style="fill:url(#swatch177)"
   width="38.055"
   height="33.271"
   id="rect81" />
		<path
   style="fill:url(#swatch180)"
   d="m 368.736,400.857 c 0,6.971 -1.312,13.485 -3.585,19.024 h 18.66 v -38.055 h -18.663 c 2.275,5.542 3.588,12.057 3.588,19.031 z"
   id="path82" />
		<path
   style="fill:url(#swatch177)"
   d="m 471.539,378.963 v 0 c 0,-4.013 -3.284,-7.297 -7.297,-7.297 H 407.95 c -4.013,0 -7.297,3.284 -7.297,7.297 v 0 c 0,4.013 3.284,7.297 7.297,7.297 h 56.292 c 4.014,0 7.297,-3.283 7.297,-7.297 z"
   id="path83" />
		<path
   style="fill:url(#swatch180)"
   d="m 464.242,386.26 c 2.493,0 4.702,-1.268 6.02,-3.19 l -49.037,3.19 z"
   id="path84" />
		<g
   id="g86">
			<path
   style="fill:url(#swatch183)"
   d="m 468.302,378.963 v 0 c 0,-2.79 -2.283,-5.073 -5.074,-5.073 h -2.243 c 0,0 -1.737,2.283 -1.737,5.073 v 0 c 0,2.79 1.737,5.073 1.737,5.073 h 2.243 c 2.791,10e-4 5.074,-2.282 5.074,-5.073 z"
   id="path85" />
			<path
   style="fill:url(#swatch185)"
   d="m 461.422,378.963 c 0,-1.329 -0.522,-2.539 -1.366,-3.447 -0.413,0.907 -0.807,2.117 -0.807,3.447 v 0 c 0,1.329 0.395,2.539 0.807,3.447 0.844,-0.907 1.366,-2.118 1.366,-3.447 z"
   id="path86" />
		</g>
		<path
   style="fill:url(#swatch177)"
   d="m 477.139,393.557 v 0 c 0,-4.013 -3.284,-7.297 -7.297,-7.297 H 413.55 c -4.013,0 -7.297,3.284 -7.297,7.297 v 0 c 0,4.013 3.284,7.297 7.297,7.297 h 56.292 c 4.014,0 7.297,-3.283 7.297,-7.297 z"
   id="path87" />
		<path
   style="fill:url(#swatch180)"
   d="m 420.832,400.854 h 49.011 c 2.493,0 4.703,-1.268 6.02,-3.19 z"
   id="path88" />
		<g
   id="g90">
			<path
   style="fill:url(#swatch183)"
   d="m 473.43,393.557 v 0 c 0,-2.79 -2.283,-5.074 -5.074,-5.074 h -2.242 c 0,0 -1.737,2.283 -1.737,5.074 v 0 c 0,2.79 1.737,5.073 1.737,5.073 h 2.242 c 2.791,10e-4 5.074,-2.282 5.074,-5.073 z"
   id="path89" />
			<path
   style="fill:url(#swatch185)"
   d="m 466.55,393.557 c 0,-1.329 -0.522,-2.54 -1.366,-3.447 -0.413,0.907 -0.807,2.117 -0.807,3.447 v 0 c 0,1.329 0.395,2.539 0.807,3.447 0.844,-0.907 1.366,-2.117 1.366,-3.447 z"
   id="path90" />
		</g>
		<path
   style="fill:url(#swatch177)"
   d="m 374.48,407.932 v -25.559 c 0,-5.889 4.818,-10.708 10.708,-10.708 h 31.241 c 4.71,0 8.563,3.853 8.563,8.563 v 41.25 c 0,4.71 -3.853,8.563 -8.563,8.563 H 396.59 c -12.16,0.002 -22.11,-9.948 -22.11,-22.109 z"
   id="path91" />
		<g
   id="g93">
			<path
   style="fill:url(#swatch183)"
   d="m 383.811,357.327 0.439,-2.199 c 0.509,-2.548 -1.021,-5.028 -3.44,-5.803 -0.135,0.318 -0.239,0.653 -0.309,1.003 l -1.555,7.781 c 2.563,0.338 4.865,-0.782 4.865,-0.782 z"
   id="path92" />
			<path
   style="fill:url(#swatch185)"
   d="m 378.95,358.095 c 1.139,0.149 2.228,0.026 3.084,-0.174 -0.639,-0.888 -1.57,-1.554 -2.673,-1.882 z"
   id="path93" />
		</g>
	</g>
	
	
	
	
	
	
</g>

</svg>
