<?xml version="1.0" encoding="UTF-8" standalone="no"?>
<!-- Generator: Adobe Illustrator 27.5.0, SVG Export Plug-In . SVG Version: 6.00 Build 0)  -->

<svg
   version="1.1"
   x="0px"
   y="0px"
   viewBox="0 0 72.976997 125.14101"
   xml:space="preserve"
   id="svg172"
   sodipodi:docname="2096137_283958-P698JZ-77.svg"
   inkscape:version="1.3.2 (091e20e, 2023-11-25, custom)"
   width="72.976997"
   height="125.14101"
   xmlns:inkscape="http://www.inkscape.org/namespaces/inkscape"
   xmlns:sodipodi="http://sodipodi.sourceforge.net/DTD/sodipodi-0.dtd"
   xmlns:xlink="http://www.w3.org/1999/xlink"
   xmlns="http://www.w3.org/2000/svg"
   xmlns:svg="http://www.w3.org/2000/svg"><defs
   id="defs172"><linearGradient
     id="swatch185"
     inkscape:swatch="solid"
     inkscape:label="Cuticle"><stop
       style="stop-color:#ffd8b6;stop-opacity:1;"
       offset="0"
       id="stop185" /></linearGradient><linearGradient
     id="swatch183"
     inkscape:swatch="solid"
     inkscape:label="Nail"><stop
       style="stop-color:#ffead9;stop-opacity:1;"
       offset="0"
       id="stop183" /></linearGradient><linearGradient
     id="swatch182"
     inkscape:swatch="solid"
     inkscape:label="Blue"><stop
       style="stop-color:#334b73;stop-opacity:1;"
       offset="0"
       id="stop182" /></linearGradient><linearGradient
     id="swatch180"
     inkscape:swatch="solid"
     inkscape:label="Shadow"><stop
       style="stop-color:#deac7f;stop-opacity:1;"
       offset="0"
       id="stop180" /></linearGradient><linearGradient
     id="swatch177"
     inkscape:swatch="solid"
     inkscape:label="Light"><stop
       style="stop-color:#ffc896;stop-opacity:1;"
       offset="0"
       id="stop177" /></linearGradient><linearGradient
     inkscape:collect="always"
     xlink:href="#swatch183"
     id="linearGradient183"
     x1="56.577999"
     y1="233.5155"
     x2="61.195"
     y2="233.5155"
     gradientUnits="userSpaceOnUse" /><linearGradient
     inkscape:collect="always"
     xlink:href="#swatch183"
     id="linearGradient184"
     x1="73.401001"
     y1="183.689"
     x2="83.547997"
     y2="183.689"
     gradientUnits="userSpaceOnUse" /><linearGradient
     inkscape:collect="always"
     xlink:href="#swatch185"
     id="linearGradient185"
     x1="56.577999"
     y1="236.9415"
     x2="59.568001"
     y2="236.9415"
     gradientUnits="userSpaceOnUse" /><linearGradient
     inkscape:collect="always"
     xlink:href="#swatch185"
     id="linearGradient186"
     x1="75.028"
     y1="187.12849"
     x2="81.921997"
     y2="187.12849"
     gradientUnits="userSpaceOnUse" /></defs><sodipodi:namedview
   id="namedview172"
   pagecolor="#ffffff"
   bordercolor="#000000"
   borderopacity="0.25"
   inkscape:showpageshadow="2"
   inkscape:pageopacity="0.0"
   inkscape:pagecheckerboard="0"
   inkscape:deskcolor="#d1d1d1"
   inkscape:zoom="1.722"
   inkscape:cx="144.88966"
   inkscape:cy="94.367015"
   inkscape:window-width="1858"
   inkscape:window-height="1057"
   inkscape:window-x="54"
   inkscape:window-y="-8"
   inkscape:window-maximized="1"
   inkscape:current-layer="OBJECTS" />

<g
   id="OBJECTS"
   transform="translate(-56.577,-175.924)">
	
	
	
	
	
	
	
	
	
	
	
	
	
	<g
   id="g46"
   inkscape:label="one">
		<path
   style="fill:url(#swatch177)"
   d="m 78.475,175.924 v 0 c -4.013,0 -7.297,3.284 -7.297,7.297 v 56.292 c 0,4.013 3.284,7.297 7.297,7.297 v 0 c 4.013,0 7.297,-3.284 7.297,-7.297 v -56.292 c 0,-4.013 -3.284,-7.297 -7.297,-7.297 z"
   id="path34" />
		<g
   id="g36">
			<path
   style="fill:url(#linearGradient184)"
   d="m 78.475,179.162 v 0 c -2.79,0 -5.074,2.283 -5.074,5.074 v 2.243 c 0,0 2.283,1.737 5.074,1.737 v 0 c 2.79,0 5.073,-1.737 5.073,-1.737 v -2.243 c 0.001,-2.791 -2.283,-5.074 -5.073,-5.074 z"
   id="path35" />
			<path
   style="fill:url(#linearGradient186)"
   d="m 78.475,186.042 c -1.329,0 -2.54,0.522 -3.447,1.366 0.907,0.413 2.117,0.807 3.447,0.807 v 0 c 1.329,0 2.539,-0.394 3.447,-0.807 -0.907,-0.844 -2.118,-1.366 -3.447,-1.366 z"
   id="path36" />
		</g>
		<path
   style="fill:url(#swatch177)"
   d="m 93.069,211.902 v 0 c -4.013,0 -7.297,3.284 -7.297,7.297 v 23.16 c 0,4.013 3.284,7.297 7.297,7.297 v 0 c 4.013,0 7.297,-3.284 7.297,-7.297 v -23.16 c 0,-4.013 -3.283,-7.297 -7.297,-7.297 z"
   id="path37" />
		<path
   style="fill:url(#swatch177)"
   d="m 107.663,213.298 v 0 c -4.013,0 -7.297,3.284 -7.297,7.297 v 23.16 c 0,4.013 3.284,7.297 7.297,7.297 v 0 c 4.013,0 7.297,-3.284 7.297,-7.297 v -23.16 c 0,-4.013 -3.283,-7.297 -7.297,-7.297 z"
   id="path38" />
		<path
   style="fill:url(#swatch177)"
   d="m 122.257,216.432 v 0 c -4.013,0 -7.297,3.284 -7.297,7.297 v 23.16 c 0,4.013 3.284,7.297 7.297,7.297 v 0 c 4.013,0 7.297,-3.284 7.297,-7.297 v -23.16 c 0.001,-4.014 -3.283,-7.297 -7.297,-7.297 z"
   id="path39" />
		<path
   style="fill:url(#swatch180)"
   d="m 62.071,224.877 v 0 c -3.021,0 -5.493,2.472 -5.493,5.493 v 22.537 c 0,4.038 3.304,7.341 7.341,7.341 h 0.098 c 4.038,0 7.341,-3.304 7.341,-7.341 v -18.743 c 0,-5.108 -4.179,-9.287 -9.287,-9.287 z"
   id="path40" />
		<rect
   x="81.338997"
   y="267.79401"
   style="fill:url(#swatch177)"
   width="38.055"
   height="33.271"
   id="rect40" />
		<path
   style="fill:url(#swatch180)"
   d="m 100.369,282.494 c 6.971,0 13.485,1.312 19.024,3.585 v -18.66 H 81.339 v 18.663 c 5.541,-2.275 12.056,-3.588 19.03,-3.588 z"
   id="path41" />
		<path
   style="fill:url(#swatch180)"
   d="m 58.188,250.427 v 0 c -2.148,2.148 -2.148,5.662 0,7.809 l 16.331,16.331 c 2.855,2.855 7.528,2.855 10.383,0 l 0.068,-0.068 c 2.855,-2.855 2.855,-7.528 0,-10.383 L 71.281,250.428 c -3.6,-3.602 -9.492,-3.602 -13.093,-0.001 z"
   id="path42" />
		<path
   style="fill:url(#swatch177)"
   d="m 107.095,278.75 h -25.04 c -5.982,0 -10.877,-4.895 -10.877,-10.877 V 235.33 c 0,-4.784 3.914,-8.698 8.698,-8.698 h 40.98 c 4.784,0 8.698,3.914 8.698,8.698 v 20.961 c 0.001,12.353 -10.106,22.459 -22.459,22.459 z"
   id="path43" />
		<g
   id="g45">
			<path
   style="fill:url(#linearGradient183)"
   d="m 61.195,236.285 v -2.243 c 0,-2.598 -1.986,-4.731 -4.511,-5.016 -0.07,0.338 -0.106,0.687 -0.106,1.045 v 7.934 c 2.578,-0.171 4.617,-1.72 4.617,-1.72 z"
   id="path44" />
			<path
   style="fill:url(#linearGradient185)"
   d="m 56.578,237.99 c 1.146,-0.077 2.189,-0.411 2.99,-0.775 -0.801,-0.745 -1.844,-1.216 -2.99,-1.322 z"
   id="path45" />
		</g>
	</g>
	
	
	
	
	
	
	
	
	
	
</g>

</svg>
