<?xml version="1.0" encoding="UTF-8" standalone="no"?>
<!-- Generator: Adobe Illustrator 27.5.0, SVG Export Plug-In . SVG Version: 6.00 Build 0)  -->

<svg
   version="1.1"
   x="0px"
   y="0px"
   viewBox="0 0 95.455208 107.75362"
   xml:space="preserve"
   id="svg172"
   sodipodi:docname="2096137_283958-P698JZ-77.svg"
   inkscape:version="1.3.2 (091e20e, 2023-11-25, custom)"
   width="95.455208"
   height="107.75362"
   xmlns:inkscape="http://www.inkscape.org/namespaces/inkscape"
   xmlns:sodipodi="http://sodipodi.sourceforge.net/DTD/sodipodi-0.dtd"
   xmlns="http://www.w3.org/2000/svg"
   xmlns:svg="http://www.w3.org/2000/svg"><defs
   id="defs172"><linearGradient
     id="swatch185"
     inkscape:swatch="solid"
     inkscape:label="Cuticle"><stop
       style="stop-color:#ffd8b6;stop-opacity:1;"
       offset="0"
       id="stop185" /></linearGradient><linearGradient
     id="swatch183"
     inkscape:swatch="solid"
     inkscape:label="Nail"><stop
       style="stop-color:#ffead9;stop-opacity:1;"
       offset="0"
       id="stop183" /></linearGradient><linearGradient
     id="swatch182"
     inkscape:swatch="solid"
     inkscape:label="Blue"><stop
       style="stop-color:#334b73;stop-opacity:1;"
       offset="0"
       id="stop182" /></linearGradient><linearGradient
     id="swatch180"
     inkscape:swatch="solid"
     inkscape:label="Shadow"><stop
       style="stop-color:#deac7f;stop-opacity:1;"
       offset="0"
       id="stop180" /></linearGradient><linearGradient
     id="swatch177"
     inkscape:swatch="solid"
     inkscape:label="Light"><stop
       style="stop-color:#ffc896;stop-opacity:1;"
       offset="0"
       id="stop177" /></linearGradient></defs><sodipodi:namedview
   id="namedview172"
   pagecolor="#ffffff"
   bordercolor="#000000"
   borderopacity="0.25"
   inkscape:showpageshadow="2"
   inkscape:pageopacity="0.0"
   inkscape:pagecheckerboard="0"
   inkscape:deskcolor="#d1d1d1"
   inkscape:zoom="1.722"
   inkscape:cx="144.88966"
   inkscape:cy="94.367015"
   inkscape:window-width="1858"
   inkscape:window-height="1057"
   inkscape:window-x="54"
   inkscape:window-y="-8"
   inkscape:window-maximized="1"
   inkscape:current-layer="OBJECTS" />

<g
   id="OBJECTS"
   transform="translate(-142.628,-47.229371)">
	
	
	
	
	
	
	
	
	
	
	
	
	
	
	<g
   id="g57"
   inkscape:label="radical">
		<path
   style="fill:url(#swatch177)"
   d="m 188.3,68.206 v 0 c -4.049,0 -7.362,3.313 -7.362,7.362 v 18.07 c 0,4.049 3.313,7.362 7.362,7.362 v 0 c 4.049,0 7.362,-3.313 7.362,-7.362 v -18.07 c 0,-4.049 -3.313,-7.362 -7.362,-7.362 z"
   id="path46" />
		<path
   style="fill:url(#swatch177)"
   d="m 173.294,69.72 v 0 c -4.204,0 -7.644,3.44 -7.644,7.644 V 94.87 c 0,4.204 3.44,7.644 7.644,7.644 v 0 c 4.204,0 7.644,-3.44 7.644,-7.644 V 77.364 c 0,-4.204 -3.44,-7.644 -7.644,-7.644 z"
   id="path47" />
		<path
   style="fill:url(#swatch177)"
   d="m 203.311,68.206 v 0 c -4.207,0 -7.649,3.442 -7.649,7.649 V 93.35 c 0,4.207 3.442,7.649 7.649,7.649 v 0 c 4.207,0 7.649,-3.442 7.649,-7.649 V 75.855 c 0.001,-4.207 -3.442,-7.649 -7.649,-7.649 z"
   id="path48" />
		<path
   style="fill:url(#swatch177)"
   d="m 233.567,47.776 v 0 c -3.711,-1.528 -7.998,0.259 -9.526,3.97 l -21.429,52.053 c -1.528,3.711 0.258,7.998 3.97,9.526 v 0 c 3.711,1.528 7.998,-0.259 9.526,-3.97 l 21.429,-52.053 c 1.527,-3.712 -0.259,-7.999 -3.97,-9.526 z"
   id="path49" />
		<path
   style="fill:url(#swatch177)"
   d="m 144.143,97.093 v 0 c -2.02,2.02 -2.02,5.325 0,7.345 l 24.668,24.668 c 2.852,2.852 7.519,2.852 10.371,0 l 0.08,-0.08 c 2.852,-2.852 2.852,-7.519 0,-10.371 L 157.7,97.093 c -3.727,-3.728 -9.828,-3.728 -13.557,0 z"
   id="path50" />
		<rect
   x="175.811"
   y="121.712"
   style="fill:url(#swatch177)"
   width="38.055"
   height="33.271"
   id="rect50" />
		<path
   style="fill:url(#swatch180)"
   d="m 194.841,138.787 c 6.971,0 13.485,1.312 19.024,3.585 v -18.66 H 175.81 v 18.663 c 5.542,-2.275 12.057,-3.588 19.031,-3.588 z"
   id="path51" />
		<path
   style="fill:url(#swatch177)"
   d="m 201.916,132.669 h -25.559 c -5.889,0 -10.708,-4.819 -10.708,-10.708 V 90.72 c 0,-4.71 3.854,-8.563 8.563,-8.563 h 41.25 c 4.71,0 8.563,3.853 8.563,8.563 v 19.838 c 0.001,12.161 -9.948,22.111 -22.109,22.111 z"
   id="path52" />
		<g
   id="g54">
			<path
   style="fill:url(#swatch183)"
   d="m 232.257,50.957 v 0 c -2.58,-1.062 -5.561,0.18 -6.623,2.76 l -0.854,2.074 c 0,0 1.45,2.476 4.03,3.538 v 0 c 2.58,1.062 5.353,0.325 5.353,0.325 l 0.854,-2.074 c 1.062,-2.581 -0.18,-5.561 -2.76,-6.623 z"
   id="path53" />
			<path
   style="fill:url(#swatch185)"
   d="m 229.638,57.318 c -1.229,-0.506 -2.547,-0.484 -3.707,-0.049 0.682,0.727 1.651,1.553 2.88,2.059 v 0 c 1.229,0.506 2.498,0.602 3.494,0.565 -0.517,-1.125 -1.438,-2.069 -2.667,-2.575 z"
   id="path54" />
		</g>
		<g
   id="g56">
			<path
   style="fill:url(#swatch183)"
   d="m 151.803,105.567 -1.586,-1.586 c -1.837,-1.837 -4.75,-1.941 -6.737,-0.357 0.19,0.288 0.411,0.561 0.663,0.814 l 5.611,5.61 c 1.702,-1.944 2.049,-4.481 2.049,-4.481 z"
   id="path55" />
			<path
   style="fill:url(#swatch185)"
   d="m 149.744,110.038 c 0.756,-0.865 1.258,-1.839 1.566,-2.663 -1.093,0.039 -2.164,0.444 -3.049,1.18 z"
   id="path56" />
		</g>
	</g>
	
	
	
	
	
	
	
	
	
</g>

</svg>
