<?xml version="1.0" encoding="UTF-8" standalone="no"?>
<!-- Generator: Adobe Illustrator 27.5.0, SVG Export Plug-In . SVG Version: 6.00 Build 0)  -->

<svg
   version="1.1"
   x="0px"
   y="0px"
   viewBox="0 0 81.397003 130.74001"
   xml:space="preserve"
   id="svg172"
   sodipodi:docname="2096137_283958-P698JZ-77.svg"
   inkscape:version="1.3.2 (091e20e, 2023-11-25, custom)"
   width="81.397003"
   height="130.74001"
   xmlns:inkscape="http://www.inkscape.org/namespaces/inkscape"
   xmlns:sodipodi="http://sodipodi.sourceforge.net/DTD/sodipodi-0.dtd"
   xmlns:xlink="http://www.w3.org/1999/xlink"
   xmlns="http://www.w3.org/2000/svg"
   xmlns:svg="http://www.w3.org/2000/svg"><defs
   id="defs172"><linearGradient
     id="swatch185"
     inkscape:swatch="solid"
     inkscape:label="Cuticle"><stop
       style="stop-color:#ffd8b6;stop-opacity:1;"
       offset="0"
       id="stop185" /></linearGradient><linearGradient
     id="swatch183"
     inkscape:swatch="solid"
     inkscape:label="Nail"><stop
       style="stop-color:#ffead9;stop-opacity:1;"
       offset="0"
       id="stop183" /></linearGradient><linearGradient
     id="swatch182"
     inkscape:swatch="solid"
     inkscape:label="Blue"><stop
       style="stop-color:#334b73;stop-opacity:1;"
       offset="0"
       id="stop182" /></linearGradient><linearGradient
     id="swatch180"
     inkscape:swatch="solid"
     inkscape:label="Shadow"><stop
       style="stop-color:#deac7f;stop-opacity:1;"
       offset="0"
       id="stop180" /></linearGradient><linearGradient
     id="swatch177"
     inkscape:swatch="solid"
     inkscape:label="Light"><stop
       style="stop-color:#ffc896;stop-opacity:1;"
       offset="0"
       id="stop177" /></linearGradient><linearGradient
     inkscape:collect="always"
     xlink:href="#swatch177"
     id="linearGradient177"
     x1="63.876999"
     y1="109.6095"
     x2="122.253"
     y2="109.6095"
     gradientUnits="userSpaceOnUse" /></defs><sodipodi:namedview
   id="namedview172"
   pagecolor="#ffffff"
   bordercolor="#000000"
   borderopacity="0.25"
   inkscape:showpageshadow="2"
   inkscape:pageopacity="0.0"
   inkscape:pagecheckerboard="0"
   inkscape:deskcolor="#d1d1d1"
   inkscape:zoom="1.722"
   inkscape:cx="144.88966"
   inkscape:cy="94.367015"
   inkscape:window-width="1858"
   inkscape:window-height="1057"
   inkscape:window-x="54"
   inkscape:window-y="-8"
   inkscape:window-maximized="1"
   inkscape:current-layer="OBJECTS" />

<g
   id="OBJECTS"
   transform="translate(-40.857,-27.243)">
	
	
	
	
	
	
	
	
	
	
	
	
	<g
   id="g34"
   inkscape:label="five">
		<path
   style="fill:url(#swatch177)"
   d="m 71.175,32.843 v 0 c -4.013,0 -7.297,3.284 -7.297,7.297 v 56.292 c 0,4.013 3.284,7.297 7.297,7.297 v 0 c 4.013,0 7.297,-3.284 7.297,-7.297 V 40.14 c 0,-4.014 -3.284,-7.297 -7.297,-7.297 z"
   id="path13" />
		<path
   style="fill:url(#swatch180)"
   d="m 78.472,40.14 c 0,-2.493 -1.268,-4.702 -3.19,-6.02 l 3.19,49.037 z"
   id="path14" />
		<g
   id="g16">
			<path
   style="fill:url(#swatch183)"
   d="m 71.175,36.08 v 0 c -2.79,0 -5.074,2.283 -5.074,5.074 v 2.243 c 0,0 2.283,1.737 5.074,1.737 v 0 c 2.79,0 5.073,-1.737 5.073,-1.737 v -2.243 c 0,-2.791 -2.283,-5.074 -5.073,-5.074 z"
   id="path15" />
			<path
   style="fill:url(#swatch185)"
   d="m 71.175,42.96 c -1.329,0 -2.54,0.522 -3.447,1.366 0.907,0.413 2.117,0.807 3.447,0.807 v 0 c 1.329,0 2.539,-0.395 3.447,-0.807 -0.908,-0.844 -2.118,-1.366 -3.447,-1.366 z"
   id="path16" />
		</g>
		<path
   style="fill:url(#swatch177)"
   d="m 85.769,27.243 v 0 c -4.013,0 -7.297,3.284 -7.297,7.297 v 56.292 c 0,4.013 3.284,7.297 7.297,7.297 v 0 c 4.013,0 7.297,-3.284 7.297,-7.297 V 34.54 c 0,-4.014 -3.284,-7.297 -7.297,-7.297 z"
   id="path17" />
		<path
   style="fill:url(#swatch180)"
   d="M 93.066,83.55 V 34.54 c 0,-2.493 -1.268,-4.703 -3.19,-6.02 z"
   id="path18" />
		<g
   id="g20">
			<path
   style="fill:url(#swatch183)"
   d="m 85.769,30.952 v 0 c -2.79,0 -5.074,2.283 -5.074,5.074 v 2.243 c 0,0 2.283,1.737 5.074,1.737 v 0 c 2.79,0 5.073,-1.737 5.073,-1.737 v -2.243 c 0.001,-2.79 -2.283,-5.074 -5.073,-5.074 z"
   id="path19" />
			<path
   style="fill:url(#swatch185)"
   d="m 85.769,37.832 c -1.329,0 -2.54,0.522 -3.447,1.366 0.907,0.413 2.117,0.807 3.447,0.807 v 0 c 1.329,0 2.539,-0.394 3.446,-0.807 -0.906,-0.844 -2.117,-1.366 -3.446,-1.366 z"
   id="path20" />
		</g>
		<path
   style="fill:url(#swatch177)"
   d="m 100.363,33.759 v 0 c -4.013,0 -7.297,3.284 -7.297,7.297 v 56.292 c 0,4.013 3.284,7.297 7.297,7.297 v 0 c 4.013,0 7.297,-3.284 7.297,-7.297 V 41.056 c 0,-4.014 -3.283,-7.297 -7.297,-7.297 z"
   id="path21" />
		<path
   style="fill:url(#swatch177)"
   d="m 114.957,42.263 v 0 c -4.013,0 -7.297,3.284 -7.297,7.297 v 56.292 c 0,4.013 3.284,7.297 7.297,7.297 v 0 c 4.013,0 7.297,-3.284 7.297,-7.297 V 49.56 c 0,-4.014 -3.283,-7.297 -7.297,-7.297 z"
   id="path22" />
		<path
   style="fill:url(#swatch180)"
   d="M 107.66,83.55 V 41.056 c 0,-2.493 -1.268,-4.703 -3.19,-6.02 z"
   id="path23" />
		<path
   style="fill:url(#swatch180)"
   d="M 122.254,83.55 V 49.56 c 0,-2.493 -1.268,-4.703 -3.19,-6.02 z"
   id="path24" />
		<path
   style="fill:url(#swatch177)"
   d="m 42.372,100.093 v 0 c -2.02,2.02 -2.02,5.325 0,7.345 l 24.668,24.668 c 2.852,2.852 7.519,2.852 10.371,0 l 0.08,-0.08 c 2.852,-2.852 2.852,-7.519 0,-10.371 L 55.93,100.093 c -3.729,-3.728 -9.83,-3.728 -13.558,0 z"
   id="path25" />
		<rect
   x="74.039001"
   y="124.712"
   style="fill:url(#swatch177)"
   width="38.055"
   height="33.271"
   id="rect25" />
		<path
   style="fill:url(#swatch180)"
   d="m 93.069,139.787 c 6.971,0 13.485,1.312 19.024,3.585 v -18.66 H 74.039 v 18.663 c 5.541,-2.275 12.056,-3.588 19.03,-3.588 z"
   id="path26" />
		<path
   style="fill:url(#linearGradient177)"
   d="M 99.795,135.669 H 74.754 c -5.982,0 -10.877,-4.894 -10.877,-10.877 V 92.248 c 0,-4.784 3.914,-8.698 8.698,-8.698 h 49.678 v 29.659 c 0.001,12.353 -10.105,22.46 -22.458,22.46 z"
   id="path27" />
		<g
   id="g29">
			<path
   style="fill:url(#swatch183)"
   d="m 100.363,37.736 v 0 c -2.79,0 -5.074,2.283 -5.074,5.073 v 2.243 c 0,0 2.283,1.737 5.074,1.737 v 0 c 2.79,0 5.073,-1.737 5.073,-1.737 v -2.243 c 10e-4,-2.79 -2.282,-5.073 -5.073,-5.073 z"
   id="path28" />
			<path
   style="fill:url(#swatch185)"
   d="m 100.363,44.616 c -1.329,0 -2.54,0.522 -3.447,1.366 0.907,0.413 2.117,0.807 3.447,0.807 v 0 c 1.329,0 2.539,-0.395 3.447,-0.807 -0.907,-0.844 -2.118,-1.366 -3.447,-1.366 z"
   id="path29" />
		</g>
		<g
   id="g31">
			<path
   style="fill:url(#swatch183)"
   d="m 114.957,45.703 v 0 c -2.79,0 -5.073,2.283 -5.073,5.073 v 2.243 c 0,0 2.283,1.737 5.073,1.737 v 0 c 2.79,0 5.074,-1.737 5.074,-1.737 v -2.243 c 0,-2.79 -2.283,-5.073 -5.074,-5.073 z"
   id="path30" />
			<path
   style="fill:url(#swatch185)"
   d="m 114.957,52.583 c -1.329,0 -2.539,0.522 -3.447,1.366 0.907,0.413 2.117,0.807 3.447,0.807 v 0 c 1.329,0 2.54,-0.395 3.447,-0.807 -0.907,-0.845 -2.117,-1.366 -3.447,-1.366 z"
   id="path31" />
		</g>
		<g
   id="g33">
			<path
   style="fill:url(#swatch183)"
   d="m 50.031,108.568 -1.586,-1.586 c -1.837,-1.837 -4.75,-1.941 -6.737,-0.357 0.19,0.288 0.411,0.561 0.663,0.814 l 5.611,5.61 c 1.702,-1.944 2.049,-4.481 2.049,-4.481 z"
   id="path32" />
			<path
   style="fill:url(#swatch185)"
   d="m 47.972,113.038 c 0.756,-0.865 1.258,-1.839 1.566,-2.663 -1.093,0.039 -2.164,0.444 -3.049,1.18 z"
   id="path33" />
		</g>
	</g>
	
	
	
	
	
	
	
	
	
	
	
</g>

</svg>
