<?xml version="1.0" encoding="UTF-8" standalone="no"?>
<!-- Generator: Adobe Illustrator 27.5.0, SVG Export Plug-In . SVG Version: 6.00 Build 0)  -->

<svg
   version="1.1"
   x="0px"
   y="0px"
   viewBox="0 0 91.012001 85.951935"
   xml:space="preserve"
   id="svg172"
   sodipodi:docname="2096137_283958-P698JZ-77.svg"
   inkscape:version="1.3.2 (091e20e, 2023-11-25, custom)"
   width="91.012001"
   height="85.951935"
   xmlns:inkscape="http://www.inkscape.org/namespaces/inkscape"
   xmlns:sodipodi="http://sodipodi.sourceforge.net/DTD/sodipodi-0.dtd"
   xmlns="http://www.w3.org/2000/svg"
   xmlns:svg="http://www.w3.org/2000/svg"><defs
   id="defs172"><linearGradient
     id="swatch185"
     inkscape:swatch="solid"
     inkscape:label="Cuticle"><stop
       style="stop-color:#ffd8b6;stop-opacity:1;"
       offset="0"
       id="stop185" /></linearGradient><linearGradient
     id="swatch183"
     inkscape:swatch="solid"
     inkscape:label="Nail"><stop
       style="stop-color:#ffead9;stop-opacity:1;"
       offset="0"
       id="stop183" /></linearGradient><linearGradient
     id="swatch182"
     inkscape:swatch="solid"
     inkscape:label="Blue"><stop
       style="stop-color:#334b73;stop-opacity:1;"
       offset="0"
       id="stop182" /></linearGradient><linearGradient
     id="swatch180"
     inkscape:swatch="solid"
     inkscape:label="Shadow"><stop
       style="stop-color:#deac7f;stop-opacity:1;"
       offset="0"
       id="stop180" /></linearGradient><linearGradient
     id="swatch177"
     inkscape:swatch="solid"
     inkscape:label="Light"><stop
       style="stop-color:#ffc896;stop-opacity:1;"
       offset="0"
       id="stop177" /></linearGradient></defs><sodipodi:namedview
   id="namedview172"
   pagecolor="#ffffff"
   bordercolor="#000000"
   borderopacity="0.25"
   inkscape:showpageshadow="2"
   inkscape:pageopacity="0.0"
   inkscape:pagecheckerboard="0"
   inkscape:deskcolor="#d1d1d1"
   inkscape:zoom="1.722"
   inkscape:cx="144.88966"
   inkscape:cy="94.367015"
   inkscape:window-width="1858"
   inkscape:window-height="1057"
   inkscape:window-x="54"
   inkscape:window-y="-8"
   inkscape:window-maximized="1"
   inkscape:current-layer="OBJECTS" />

<g
   id="OBJECTS"
   transform="translate(-255.449,-192.07206)">
	
	
	
	
	
	
	
	
	
	
	
	
	
	
	
	<g
   id="g67"
   inkscape:label="thumbs">
		<path
   style="fill:url(#swatch177)"
   d="m 344.75,226.945 v -0.057 c 0,-3.994 -3.268,-7.262 -7.262,-7.262 h -18.27 c -3.994,0 -7.262,3.268 -7.262,7.262 v 0.057 c 0,3.994 3.268,7.262 7.262,7.262 h 18.27 c 3.994,0 7.262,-3.268 7.262,-7.262 z"
   id="path57" />
		<path
   style="fill:url(#swatch177)"
   d="m 346.461,241.587 v -0.057 c 0,-3.994 -3.268,-7.262 -7.262,-7.262 h -18.27 c -3.994,0 -7.262,3.268 -7.262,7.262 v 0.057 c 0,3.994 3.268,7.262 7.262,7.262 h 18.27 c 3.994,0 7.262,-3.268 7.262,-7.262 z"
   id="path58" />
		<path
   style="fill:url(#swatch177)"
   d="m 342.691,256.168 v -0.057 c 0,-3.994 -3.268,-7.262 -7.262,-7.262 h -18.27 c -3.994,0 -7.262,3.268 -7.262,7.262 v 0.057 c 0,3.994 3.268,7.262 7.262,7.262 h 18.27 c 3.995,0 7.262,-3.268 7.262,-7.262 z"
   id="path59" />
		<path
   style="fill:url(#swatch180)"
   d="m 295.424,216.238 c -0.844,-0.655 -3.877,-1.029 -4.906,-0.948 -0.786,9.877 -5.117,18.731 -8.107,28.094 -0.213,0.667 -0.409,1.34 -0.595,2.015 3.057,1.579 6.653,2.568 10.541,2.722 11.552,0.457 21.209,-6.541 21.568,-15.63 0.359,-9.089 -7.988,-8.097 -18.501,-16.253 z"
   id="path60" />
		<path
   style="fill:url(#swatch177)"
   d="m 338.731,270.749 v -0.057 c 0,-3.994 -3.268,-7.262 -7.262,-7.262 h -18.27 c -3.994,0 -7.262,3.268 -7.262,7.262 v 0.057 c 0,3.994 3.268,7.262 7.262,7.262 h 18.27 c 3.994,10e-4 7.262,-3.268 7.262,-7.262 z"
   id="path61" />
		<path
   style="fill:url(#swatch180)"
   d="m 289.847,192.161 v 0 c -2.477,-0.495 -4.909,1.127 -5.405,3.604 l -6.275,31.404 c -0.699,3.498 1.591,6.932 5.089,7.631 l 1.773,0.354 c 3.498,0.699 6.932,-1.591 7.631,-5.089 l 5.179,-25.919 c 1.099,-5.493 -2.498,-10.887 -7.992,-11.985 z"
   id="path62" />
		
			<rect
   x="253.05701"
   y="232.201"
   transform="rotate(90,272.08435,248.83665)"
   style="fill:url(#swatch177)"
   width="38.055"
   height="33.271"
   id="rect62" />
		<path
   style="fill:url(#swatch180)"
   d="m 273.391,248.852 c 0,6.971 -1.312,13.485 -3.585,19.024 h 18.66 v -38.055 h -18.663 c 2.275,5.542 3.588,12.057 3.588,19.031 z"
   id="path63" />
		<path
   style="fill:url(#swatch177)"
   d="m 277.763,255.915 v -25.559 c 0,-5.889 4.818,-10.708 10.708,-10.708 h 31.241 c 4.71,0 8.563,3.854 8.563,8.563 v 41.25 c 0,4.71 -3.853,8.563 -8.563,8.563 h -19.838 c -12.161,10e-4 -22.111,-9.949 -22.111,-22.109 z"
   id="path64" />
		<g
   id="g66">
			<path
   style="fill:url(#swatch183)"
   d="m 287.634,203.353 0.439,-2.199 c 0.509,-2.547 -1.021,-5.028 -3.44,-5.803 -0.134,0.318 -0.239,0.653 -0.309,1.004 l -1.555,7.781 c 2.563,0.336 4.865,-0.783 4.865,-0.783 z"
   id="path65" />
			<path
   style="fill:url(#swatch185)"
   d="m 282.773,204.12 c 1.139,0.149 2.228,0.026 3.084,-0.174 -0.639,-0.887 -1.57,-1.554 -2.673,-1.882 z"
   id="path66" />
		</g>
	</g>
	
	
	
	
	
	
	
	
</g>

</svg>
