<?xml version="1.0" encoding="UTF-8" standalone="no"?>
<!-- Generator: Adobe Illustrator 27.5.0, SVG Export Plug-In . SVG Version: 6.00 Build 0)  -->

<svg
   version="1.1"
   x="0px"
   y="0px"
   viewBox="0 0 70.369652 125.67789"
   xml:space="preserve"
   id="svg172"
   sodipodi:docname="2096137_283958-P698JZ-77.svg"
   inkscape:version="1.3.2 (091e20e, 2023-11-25, custom)"
   width="70.369652"
   height="125.67789"
   xmlns:inkscape="http://www.inkscape.org/namespaces/inkscape"
   xmlns:sodipodi="http://sodipodi.sourceforge.net/DTD/sodipodi-0.dtd"
   xmlns="http://www.w3.org/2000/svg"
   xmlns:svg="http://www.w3.org/2000/svg"><defs
   id="defs172"><linearGradient
     id="swatch185"
     inkscape:swatch="solid"
     inkscape:label="Cuticle"><stop
       style="stop-color:#ffd8b6;stop-opacity:1;"
       offset="0"
       id="stop185" /></linearGradient><linearGradient
     id="swatch183"
     inkscape:swatch="solid"
     inkscape:label="Nail"><stop
       style="stop-color:#ffead9;stop-opacity:1;"
       offset="0"
       id="stop183" /></linearGradient><linearGradient
     id="swatch182"
     inkscape:swatch="solid"
     inkscape:label="Blue"><stop
       style="stop-color:#334b73;stop-opacity:1;"
       offset="0"
       id="stop182" /></linearGradient><linearGradient
     id="swatch180"
     inkscape:swatch="solid"
     inkscape:label="Shadow"><stop
       style="stop-color:#deac7f;stop-opacity:1;"
       offset="0"
       id="stop180" /></linearGradient><linearGradient
     id="swatch177"
     inkscape:swatch="solid"
     inkscape:label="Light"><stop
       style="stop-color:#ffc896;stop-opacity:1;"
       offset="0"
       id="stop177" /></linearGradient></defs><sodipodi:namedview
   id="namedview172"
   pagecolor="#ffffff"
   bordercolor="#000000"
   borderopacity="0.25"
   inkscape:showpageshadow="2"
   inkscape:pageopacity="0.0"
   inkscape:pagecheckerboard="0"
   inkscape:deskcolor="#d1d1d1"
   inkscape:zoom="1.722"
   inkscape:cx="144.88966"
   inkscape:cy="94.367015"
   inkscape:window-width="1858"
   inkscape:window-height="1057"
   inkscape:window-x="54"
   inkscape:window-y="-8"
   inkscape:window-maximized="1"
   inkscape:current-layer="OBJECTS" />

<g
   id="OBJECTS"
   transform="translate(-266.96835,-319.57111)">
	
	
	
	
	
	
	
	
	
	
	
	
	
	
	
	
	
	
	
	
	
	
	<g
   id="g158"
   inkscape:label="two">
		<path
   style="fill:url(#swatch180)"
   d="m 268.805,392.406 v 0 c -2.148,2.148 -2.148,5.662 0,7.809 l 16.331,16.331 c 2.855,2.855 7.528,2.855 10.383,0 l 0.068,-0.068 c 2.855,-2.855 2.855,-7.528 0,-10.383 l -13.689,-13.689 c -3.6,-3.6 -9.492,-3.6 -13.093,0 z"
   id="path147" />
		<path
   style="fill:url(#swatch180)"
   d="m 293.204,380.286 v 0 c -2.148,-2.148 -5.91,-2.45 -8.362,-0.671 l -15.196,11.025 c -3.259,2.365 -3.59,6.636 -0.735,9.491 l 0.068,0.068 c 2.855,2.855 7.859,3.257 11.118,0.892 l 12.18,-8.837 c 4.11,-2.982 4.527,-8.367 0.927,-11.968 z"
   id="path148" />
		<rect
   x="289.12201"
   y="411.978"
   style="fill:url(#swatch177)"
   width="38.055"
   height="33.271"
   id="rect148" />
		<path
   style="fill:url(#swatch180)"
   d="m 308.294,427.192 c 6.971,0 13.485,1.312 19.024,3.585 v -18.66 h -38.055 v 18.663 c 5.542,-2.275 12.057,-3.588 19.031,-3.588 z"
   id="path149" />
		<path
   style="fill:url(#swatch177)"
   d="m 276.967,322.506 v 0 c -3.968,0.599 -6.725,4.336 -6.126,8.305 l 8.403,55.661 c 0.599,3.969 4.336,6.725 8.305,6.126 v 0 c 3.968,-0.599 6.725,-4.336 6.126,-8.305 l -8.403,-55.661 c -0.599,-3.969 -4.336,-6.725 -8.305,-6.126 z"
   id="path150" />
		<g
   id="g152">
			<path
   style="fill:url(#swatch183)"
   d="m 277.451,325.707 v 0 c -2.759,0.417 -4.676,3.015 -4.259,5.774 l 0.335,2.217 c 0,0 2.517,1.377 5.276,0.96 v 0 c 2.759,-0.417 4.757,-2.475 4.757,-2.475 l -0.335,-2.217 c -0.417,-2.759 -3.015,-4.675 -5.774,-4.259 z"
   id="path151" />
			<path
   style="fill:url(#swatch185)"
   d="m 278.478,332.51 c -1.314,0.199 -2.433,0.895 -3.204,1.865 0.958,0.273 2.214,0.482 3.528,0.284 v 0 c 1.314,-0.198 2.452,-0.769 3.287,-1.313 -1.022,-0.699 -2.297,-1.035 -3.611,-0.836 z"
   id="path152" />
		</g>
		<path
   style="fill:url(#swatch177)"
   d="m 315.192,359.791 h -0.527 c -4.153,0 -7.552,3.398 -7.552,7.552 v 22.563 c 0,4.153 3.398,7.552 7.552,7.552 h 0.527 c 4.153,0 7.552,-3.398 7.552,-7.552 v -22.563 c 0,-4.154 -3.398,-7.552 -7.552,-7.552 z"
   id="path153" />
		<path
   style="fill:url(#swatch177)"
   d="m 330.041,363.791 v 0 c -4.013,0 -7.297,3.284 -7.297,7.297 v 23.072 c 0,4.013 3.284,7.297 7.297,7.297 v 0 c 4.013,0 7.297,-3.284 7.297,-7.297 v -23.072 c 0,-4.013 -3.284,-7.297 -7.297,-7.297 z"
   id="path154" />
		<path
   style="fill:url(#swatch177)"
   d="m 304.048,319.59 v 0 c -4.003,-0.288 -7.514,2.751 -7.802,6.754 l -4.043,56.146 c -0.288,4.003 2.751,7.514 6.754,7.802 v 0 c 4.003,0.288 7.514,-2.751 7.802,-6.754 l 4.043,-56.146 c 0.289,-4.003 -2.751,-7.514 -6.754,-7.802 z"
   id="path155" />
		<g
   id="g157">
			<path
   style="fill:url(#swatch183)"
   d="m 303.801,323.021 v 0 c -2.783,-0.2 -5.224,1.913 -5.425,4.696 l -0.161,2.237 c 0,0 2.152,1.897 4.936,2.097 v 0 c 2.783,0.2 5.185,-1.368 5.185,-1.368 l 0.161,-2.237 c 0.201,-2.784 -1.913,-5.225 -4.696,-5.425 z"
   id="path156" />
			<path
   style="fill:url(#swatch185)"
   d="m 303.307,329.883 c -1.326,-0.095 -2.57,0.338 -3.536,1.115 0.875,0.477 2.054,0.957 3.38,1.053 v 0 c 1.326,0.095 2.561,-0.211 3.496,-0.558 -0.844,-0.907 -2.014,-1.515 -3.34,-1.61 z"
   id="path157" />
		</g>
		<path
   style="fill:url(#swatch177)"
   d="m 315.228,422.935 h -15.945 c -11.177,0 -20.322,-9.145 -20.322,-20.322 v -21.627 c 0,-4.71 3.853,-8.563 8.563,-8.563 h 41.25 c 4.71,0 8.563,3.854 8.563,8.563 v 19.838 c 0.001,12.161 -9.949,22.111 -22.109,22.111 z"
   id="path158" />
	</g>
	
</g>

</svg>
