<?xml version="1.0" encoding="UTF-8" standalone="no"?>
<!-- Generator: Adobe Illustrator 27.5.0, SVG Export Plug-In . SVG Version: 6.00 Build 0)  -->

<svg
   version="1.1"
   x="0px"
   y="0px"
   viewBox="0 0 114.3133 73.192001"
   xml:space="preserve"
   id="svg172"
   sodipodi:docname="2096137_283958-P698JZ-77.svg"
   inkscape:version="1.3.2 (091e20e, 2023-11-25, custom)"
   width="114.3133"
   height="73.192001"
   xmlns:inkscape="http://www.inkscape.org/namespaces/inkscape"
   xmlns:sodipodi="http://sodipodi.sourceforge.net/DTD/sodipodi-0.dtd"
   xmlns="http://www.w3.org/2000/svg"
   xmlns:svg="http://www.w3.org/2000/svg"><defs
   id="defs172"><linearGradient
     id="swatch185"
     inkscape:swatch="solid"
     inkscape:label="Cuticle"><stop
       style="stop-color:#ffd8b6;stop-opacity:1;"
       offset="0"
       id="stop185" /></linearGradient><linearGradient
     id="swatch183"
     inkscape:swatch="solid"
     inkscape:label="Nail"><stop
       style="stop-color:#ffead9;stop-opacity:1;"
       offset="0"
       id="stop183" /></linearGradient><linearGradient
     id="swatch182"
     inkscape:swatch="solid"
     inkscape:label="Blue"><stop
       style="stop-color:#334b73;stop-opacity:1;"
       offset="0"
       id="stop182" /></linearGradient><linearGradient
     id="swatch180"
     inkscape:swatch="solid"
     inkscape:label="Shadow"><stop
       style="stop-color:#deac7f;stop-opacity:1;"
       offset="0"
       id="stop180" /></linearGradient><linearGradient
     id="swatch177"
     inkscape:swatch="solid"
     inkscape:label="Light"><stop
       style="stop-color:#ffc896;stop-opacity:1;"
       offset="0"
       id="stop177" /></linearGradient></defs><sodipodi:namedview
   id="namedview172"
   pagecolor="#ffffff"
   bordercolor="#000000"
   borderopacity="0.25"
   inkscape:showpageshadow="2"
   inkscape:pageopacity="0.0"
   inkscape:pagecheckerboard="0"
   inkscape:deskcolor="#d1d1d1"
   inkscape:zoom="1.722"
   inkscape:cx="144.88966"
   inkscape:cy="94.367015"
   inkscape:window-width="1858"
   inkscape:window-height="1057"
   inkscape:window-x="54"
   inkscape:window-y="-8"
   inkscape:window-maximized="1"
   inkscape:current-layer="OBJECTS" />

<g
   id="OBJECTS"
   transform="translate(-353.9987,-60.266)">
	
	
	
	
	
	
	
	
	
	
	
	
	
	
	
	
	<g
   id="g78"
   inkscape:label="point">
		<path
   style="fill:url(#swatch177)"
   d="m 445.011,97.02 v -0.057 c 0,-3.994 -3.268,-7.262 -7.262,-7.262 h -18.27 c -3.994,0 -7.262,3.268 -7.262,7.262 v 0.057 c 0,3.994 3.268,7.262 7.262,7.262 h 18.27 c 3.994,0.001 7.262,-3.267 7.262,-7.262 z"
   id="path67" />
		<path
   style="fill:url(#swatch177)"
   d="m 441.242,111.602 v -0.057 c 0,-3.994 -3.268,-7.262 -7.262,-7.262 h -18.27 c -3.994,0 -7.262,3.268 -7.262,7.262 v 0.057 c 0,3.994 3.268,7.262 7.262,7.262 h 18.27 c 3.994,0 7.262,-3.268 7.262,-7.262 z"
   id="path68" />
		<path
   style="fill:url(#swatch177)"
   d="m 437.281,126.183 v -0.057 c 0,-3.994 -3.268,-7.262 -7.262,-7.262 h -18.27 c -3.994,0 -7.262,3.268 -7.262,7.262 v 0.057 c 0,3.994 3.268,7.262 7.262,7.262 h 18.27 c 3.994,0 7.262,-3.268 7.262,-7.262 z"
   id="path69" />
		
			<rect
   x="351.60699"
   y="87.635002"
   transform="rotate(90,370.6345,104.2702)"
   style="fill:url(#swatch177)"
   width="38.055"
   height="33.271"
   id="rect69" />
		<path
   style="fill:url(#swatch180)"
   d="m 370.569,104.273 c 0,6.971 -1.312,13.485 -3.585,19.024 h 18.66 V 85.243 h -18.663 c 2.276,5.541 3.588,12.056 3.588,19.03 z"
   id="path70" />
		<path
   style="fill:url(#swatch177)"
   d="m 468.312,82.35 v 0 c 0,-4.013 -3.284,-7.297 -7.297,-7.297 h -56.292 c -4.013,0 -7.297,3.284 -7.297,7.297 v 0 c 0,4.013 3.284,7.297 7.297,7.297 h 56.292 c 4.013,0 7.297,-3.284 7.297,-7.297 z"
   id="path71" />
		<g
   id="g73">
			<path
   style="fill:url(#swatch183)"
   d="m 465.074,82.35 v 0 c 0,-2.791 -2.283,-5.074 -5.073,-5.074 h -2.243 c 0,0 -1.737,2.283 -1.737,5.073 v 0 c 0,2.79 1.737,5.073 1.737,5.073 h 2.243 c 2.79,0.001 5.073,-2.282 5.073,-5.072 z"
   id="path72" />
			<path
   style="fill:url(#swatch185)"
   d="m 458.194,82.35 c 0,-1.329 -0.522,-2.54 -1.366,-3.447 -0.413,0.907 -0.807,2.117 -0.807,3.447 v 0 c 0,1.329 0.395,2.539 0.807,3.447 0.844,-0.908 1.366,-2.118 1.366,-3.447 z"
   id="path73" />
		</g>
		<path
   style="fill:url(#swatch180)"
   d="m 429.313,65.794 v 0 c 0,-3.021 -2.472,-5.493 -5.493,-5.493 h -22.537 c -4.038,0 -7.341,3.304 -7.341,7.341 v 0.098 c 0,4.038 3.304,7.341 7.341,7.341 h 18.743 c 5.108,10e-4 9.287,-4.179 9.287,-9.287 z"
   id="path74" />
		<path
   style="fill:url(#swatch180)"
   d="m 408,61.877 h -1.583 c -2.148,-2.148 -8.315,-2.148 -10.463,0 l -16.331,16.331 c -2.855,2.855 -2.855,7.528 0,10.383 l 0.068,0.068 c 2.855,2.855 7.528,2.855 10.383,0 L 403.762,74.97 c 3.602,-3.6 7.839,-9.492 4.238,-13.093 z"
   id="path75" />
		<g
   id="g77">
			<path
   style="fill:url(#swatch183)"
   d="m 417.905,64.918 h 2.243 c 2.598,0 4.731,-1.986 5.016,-4.511 -0.338,-0.07 -0.687,-0.106 -1.044,-0.106 h -7.935 c 0.171,2.579 1.72,4.617 1.72,4.617 z"
   id="path76" />
			<path
   style="fill:url(#swatch185)"
   d="m 416.2,60.301 c 0.077,1.146 0.411,2.19 0.775,2.99 0.745,-0.801 1.216,-1.844 1.322,-2.99 z"
   id="path77" />
		</g>
		<path
   style="fill:url(#swatch177)"
   d="M 376.313,111.348 V 85.79 c 0,-5.889 4.818,-10.708 10.708,-10.708 h 31.241 c 4.71,0 8.563,3.854 8.563,8.563 v 41.25 c 0,4.71 -3.854,8.563 -8.563,8.563 h -19.838 c -12.161,0 -22.111,-9.949 -22.111,-22.11 z"
   id="path78" />
	</g>
	
	
	
	
	
	
	
</g>

</svg>
